<?xml version="1.0" standalone="no"?>
<!DOCTYPE svg PUBLIC "-//W3C//DTD SVG 20010904//EN"
 "http://www.w3.org/TR/2001/REC-SVG-20010904/DTD/svg10.dtd">
<svg version="1.0" xmlns="http://www.w3.org/2000/svg"
 width="160.000000pt" height="90.000000pt" viewBox="0 0 160.000000 90.000000"
 preserveAspectRatio="xMidYMid meet">

<g transform="translate(0.000000,90.000000) scale(0.100000,-0.100000)"
fill="#f30" stroke="none">
<path d="M1063 801 c-23 -15 -133 -63 -245 -106 -302 -116 -308 -119 -308
-151 0 -19 15 -41 50 -76 l49 -49 143 3 143 3 -38 23 c-21 12 -45 22 -53 22
-8 0 -13 4 -10 9 3 4 31 11 62 15 64 7 89 18 103 45 9 17 6 17 -87 -1 -53 -10
-106 -17 -117 -16 -11 2 35 14 102 26 97 19 125 28 144 48 12 13 20 26 18 29
-3 2 -79 -13 -169 -35 -89 -23 -165 -39 -167 -36 -6 6 7 9 188 56 125 32 158
44 177 65 12 14 22 33 22 41 0 12 -4 13 -22 3 -26 -14 -421 -139 -426 -135 -1
2 93 36 210 76 117 40 221 77 231 82 10 5 27 24 37 41 34 55 26 59 -37 18z
m-468 -231 c-27 -12 -43 -12 -25 0 8 5 22 9 30 9 10 0 8 -3 -5 -9z m1 -82 l29
-33 -32 29 c-31 28 -38 36 -30 36 2 0 16 -15 33 -32z"/>
<path d="M534 402 c-6 -4 -13 -19 -16 -34 -5 -26 -3 -28 26 -28 24 0 27 3 16
10 -12 8 -10 10 8 10 13 0 20 -4 17 -10 -4 -6 6 -10 22 -10 25 0 28 3 28 35 0
30 -3 35 -20 33 -11 -2 -19 -9 -17 -16 1 -7 -8 -12 -23 -12 -18 0 -23 4 -19
15 7 16 -4 19 -22 7z"/>
<path d="M650 395 c-29 -35 18 -75 73 -61 30 7 44 40 27 61 -16 19 -84 19
-100 0z m70 -25 c0 -13 -7 -20 -20 -20 -13 0 -20 7 -20 20 0 13 7 20 20 20 13
0 20 -7 20 -20z"/>
<path d="M765 376 l0 -35 52 0 c48 0 52 2 55 26 2 15 9 29 17 31 10 3 12 -3 9
-27 l-5 -31 79 0 c50 0 77 4 73 10 -3 6 3 10 15 10 12 0 18 -4 15 -10 -4 -6 8
-10 29 -10 l34 0 -30 34 c-34 38 -49 38 -85 -3 -20 -24 -22 -24 -17 -5 8 30
-6 36 -91 41 -73 5 -74 4 -69 -19 l5 -23 -17 23 c-10 13 -27 22 -43 22 -23 0
-26 -4 -26 -34z m203 -3 c-2 -10 -10 -18 -18 -18 -8 0 -16 8 -18 18 -2 12 3
17 18 17 15 0 20 -5 18 -17z m-158 -14 c0 -5 -4 -9 -10 -9 -5 0 -10 7 -10 16
0 8 5 12 10 9 6 -3 10 -10 10 -16z"/>
<path d="M126 263 c-3 -3 -6 -15 -6 -25 0 -24 -8 -23 -29 4 -29 36 -51 18 -51
-42 0 -43 3 -51 17 -48 9 2 20 14 23 27 l5 23 14 -26 c8 -14 23 -26 33 -26 15
0 18 8 18 54 0 51 -9 74 -24 59z"/>
<path d="M190 257 c-49 -24 -30 -107 25 -107 35 0 58 24 58 60 0 20 -7 38 -18
46 -23 17 -33 17 -65 1z m45 -47 c0 -36 -29 -33 -33 3 -3 23 0 28 15 25 12 -2
18 -12 18 -28z"/>
<path d="M548 263 c-23 -4 -28 -10 -34 -48 -3 -24 -3 -48 1 -54 3 -6 26 -11
51 -11 54 0 61 24 12 39 -32 9 -32 9 -5 10 16 1 27 7 27 15 0 8 -12 17 -27 19
-25 4 -25 4 5 6 22 0 32 5 30 14 -5 14 -20 16 -60 10z"/>
<path d="M643 260 c-25 -10 -30 -34 -11 -46 8 -5 6 -11 -6 -19 -15 -12 -15
-14 -1 -29 21 -20 59 -21 79 0 20 19 20 29 1 47 -11 12 -12 16 -2 20 9 3 9 8
-2 20 -15 19 -25 20 -58 7z m32 -20 c3 -5 2 -10 -4 -10 -5 0 -13 5 -16 10 -3
6 -2 10 4 10 5 0 13 -4 16 -10z m0 -50 c3 -5 -1 -10 -9 -10 -9 0 -16 5 -16 10
0 6 4 10 9 10 6 0 13 -4 16 -10z"/>
<path d="M758 263 c-36 -4 -55 -23 -24 -23 10 0 16 -14 18 -42 2 -31 8 -44 21
-46 14 -3 17 4 17 42 0 34 4 46 15 46 8 0 15 7 15 15 0 8 -6 14 -12 13 -7 -1
-30 -3 -50 -5z"/>
<path d="M860 261 c-22 -6 -25 -13 -28 -59 l-3 -53 48 3 c56 4 67 29 18 39
l-30 7 28 1 c16 1 27 7 27 15 0 8 -12 17 -27 19 -25 4 -25 4 5 6 22 0 32 5 30
14 -5 14 -34 18 -68 8z"/>
<path d="M996 251 c-22 -24 -19 -96 4 -96 10 0 14 9 13 25 -2 25 -2 25 9 -2
15 -36 34 -36 46 0 l10 27 1 -27 c1 -18 6 -28 16 -28 12 0 15 13 15 60 0 33
-4 60 -9 60 -4 0 -20 -11 -33 -25 l-26 -25 -6 25 c-8 30 -17 31 -40 6z"/>
<path d="M1150 257 c-49 -24 -30 -107 25 -107 52 0 82 63 46 99 -24 24 -36 26
-71 8z m45 -47 c0 -36 -29 -33 -33 3 -3 23 0 28 15 25 12 -2 18 -12 18 -28z"/>
<path d="M1278 263 c-36 -4 -55 -23 -24 -23 10 0 16 -14 18 -42 2 -31 8 -44
21 -46 14 -3 17 4 17 42 0 34 4 46 15 46 8 0 15 7 15 15 0 8 -6 14 -12 13 -7
-1 -30 -3 -50 -5z"/>
<path d="M1380 257 c-47 -24 -30 -107 22 -107 40 0 58 19 58 60 0 29 -5 42
-19 50 -25 13 -30 13 -61 -3z m45 -37 c8 -24 -1 -40 -21 -40 -9 0 -14 11 -14
30 0 35 25 42 35 10z"/>
<path d="M1489 250 c-24 -20 -24 -20 -5 -35 11 -8 26 -15 33 -15 7 0 13 -4 13
-10 0 -5 -4 -10 -9 -10 -6 0 -13 5 -16 10 -10 17 -37 11 -33 -6 5 -25 31 -38
62 -30 32 8 44 32 28 57 -9 13 -9 20 0 25 7 5 5 11 -7 21 -25 18 -39 17 -66
-7z m36 -10 c3 -5 1 -10 -4 -10 -6 0 -11 5 -11 10 0 6 2 10 4 10 3 0 8 -4 11
-10z"/>
<path d="M288 225 c-1 -19 -2 -43 -2 -52 -1 -10 7 -19 17 -21 13 -3 17 3 17
25 l1 28 19 -26 c16 -21 28 -27 65 -27 68 -2 95 12 95 47 0 52 -8 61 -56 61
l-44 0 0 -47 c-1 -44 -2 -46 -15 -29 -11 14 -12 23 -4 33 21 25 2 43 -46 43
-44 0 -45 0 -47 -35z m62 5 c0 -5 -7 -10 -15 -10 -8 0 -15 5 -15 10 0 6 7 10
15 10 8 0 15 -4 15 -10z m114 -6 c9 -24 7 -31 -9 -38 -11 -4 -15 2 -15 24 0
32 14 40 24 14z"/>
</g>
</svg>
