<svg id="Layer_1" xmlns="http://www.w3.org/2000/svg" viewBox="0 0 592 591.5"><style>.st0{fill:#555555;}</style><path class="st0" d="M283.6 591.5c-.5 0-1-.5-1-1 0-.6.5-1 1-1s1 .5 1 1v.1c0 .5-.4.9-1 .9zm24.1-1c0-.6.4-1 1-1s1 .4 1 1v.1c0 .5-.4 1-1 1-.6-.1-1-.5-1-1.1zm-49.1-1.1c-.5-.1-.9-.5-.9-1v-.1c.1-.5.6-.9 1.1-.9.5.1.9.5.9 1v.1c-.1.5-.5.9-1 .9h-.1zm74-.9v-.1c0-.5.4-.9.9-1 .5-.1 1 .3 1.1.9v.1c0 .5-.4.9-.9 1h-.1c-.5 0-.9-.4-1-.9zm-98.8-3.3c-.5-.1-.8-.5-.8-1v-.2c.1-.5.6-.9 1.2-.8.5.1.8.5.8 1v.2c-.1.5-.5.8-1 .8h-.2zm123.5-.8v-.2c0-.5.3-.9.8-1 .5-.1 1.1.2 1.2.8v.2c0 .5-.3.9-.8 1h-.2c-.5 0-.9-.3-1-.8zm-147.8-5.5c-.4-.1-.7-.5-.7-1v-.3c.2-.5.7-.8 1.2-.7.4.1.7.5.7 1v.3c-.1.4-.5.7-1 .7 0 .1-.1.1-.2 0zm172.1-.7v-.3c0-.4.3-.8.7-1 .5-.2 1.1.1 1.2.7 0 .1.1.2.1.3 0 .4-.3.8-.7 1h-.3c-.5 0-.9-.3-1-.7zm-195.8-7.6c-.4-.2-.6-.5-.6-.9 0-.1 0-.2.1-.4.2-.5.8-.8 1.3-.5.4.1.6.5.6.9 0 .1 0 .2-.1.4-.2.4-.5.6-.9.6-.2-.1-.3-.1-.4-.1zm219.4-.7c-.1-.1-.1-.2-.1-.4 0-.4.2-.8.6-.9.5-.2 1.1 0 1.3.5 0 .1.1.2.1.4 0 .4-.2.8-.6.9-.1 0-.2.1-.4.1-.4 0-.7-.2-.9-.6zm-242.3-9.7c-.4-.2-.6-.5-.6-.9 0-.2 0-.3.1-.5.2-.5.9-.7 1.4-.4.3.2.5.5.5.9 0 .2 0 .3-.1.5-.2.3-.5.5-.9.5-.1 0-.3 0-.4-.1zm265.1-.6c-.1-.2-.1-.3-.1-.5 0-.4.2-.7.5-.9.5-.2 1.1-.1 1.3.4.1.1.1.3.1.5 0 .4-.2.7-.5.9-.1.1-.3.1-.5.1-.2.1-.6-.1-.8-.5zM141 548c-.3-.2-.5-.5-.5-.9 0-.2 0-.4.1-.5.3-.5.9-.6 1.4-.3.3.2.5.5.5.9 0 .2-.1.4-.2.5-.2.3-.5.5-.8.5-.2-.1-.4-.1-.5-.2zm308.9-.5c-.1-.2-.1-.3-.1-.5 0-.3.2-.7.5-.9.5-.3 1.1-.1 1.4.3.1.2.1.3.2.5 0 .3-.2.7-.5.9-.2.1-.3.2-.5.2-.5 0-.8-.2-1-.5zm-329.8-13.6c-.3-.2-.4-.5-.4-.8 0-.2.1-.4.2-.6.3-.4 1-.5 1.4-.2.3.2.4.5.4.8 0 .2-.1.4-.2.6-.2.3-.5.4-.8.4-.2 0-.4-.1-.6-.2zm350.6-.4c-.1-.2-.2-.4-.2-.6 0-.3.1-.6.4-.8.5-.3 1.1-.2 1.4.2.1.2.2.4.2.6 0 .3-.1.6-.4.8-.2.1-.4.2-.6.2-.3 0-.6-.1-.8-.4zm-370.1-15.4c-.2-.2-.3-.5-.3-.8 0-.2.1-.5.2-.7.4-.4 1-.5 1.4-.1.2.2.3.5.3.8 0 .2-.1.5-.2.7-.2.2-.5.3-.8.3-.2.1-.4 0-.6-.2zm389.6-.3c-.2-.2-.2-.4-.2-.7 0-.3.1-.6.3-.8.4-.4 1-.3 1.4.1.2.2.2.4.2.6 0 .3-.1.6-.3.8-.2.2-.4.2-.7.2-.2.2-.5.1-.7-.2zM82.4 500.7c-.2-.2-.3-.4-.3-.7 0-.3.1-.5.3-.7.4-.4 1-.4 1.4 0 .2.2.3.4.3.7 0 .3-.1.5-.3.7-.2.2-.4.3-.7.3-.2 0-.5-.1-.7-.3zm425.9-.1c-.2-.2-.3-.5-.3-.7 0-.2.1-.5.3-.7.4-.4 1-.4 1.4 0 .2.2.3.5.3.7 0 .2-.1.5-.3.7-.2.2-.5.3-.7.3-.2-.1-.5-.1-.7-.3zM65.8 481.9c-.1-.2-.2-.4-.2-.6 0-.3.1-.6.4-.8.4-.3 1.1-.3 1.4.2.2.2.2.4.2.6 0 .3-.1.6-.4.8-.2.1-.4.2-.6.2-.3 0-.6-.2-.8-.4zm459.1-.1c-.2-.2-.4-.5-.4-.8 0-.2.1-.5.2-.6.3-.4 1-.5 1.4-.2.2.2.4.5.4.8 0 .2-.1.4-.2.6-.2.2-.5.4-.8.4-.2.1-.4 0-.6-.2zm-474-20.1c-.1-.2-.2-.4-.2-.6 0-.3.1-.6.4-.8.5-.3 1.1-.2 1.4.3.1.2.2.4.2.6 0 .3-.1.6-.4.8-.2.1-.4.2-.6.2-.3 0-.6-.2-.8-.5zm489 .1c-.3-.2-.4-.5-.4-.8 0-.2.1-.4.2-.6.3-.5.9-.6 1.4-.3.3.2.4.5.4.8 0 .2 0 .4-.2.6-.2.3-.5.4-.8.4-.2 0-.4 0-.6-.1zM37.7 440.4c-.1-.2-.1-.3-.1-.5 0-.3.2-.7.5-.9.5-.3 1.1-.1 1.4.4.1.2.1.3.1.5 0 .4-.2.7-.5.9-.2.1-.3.1-.5.1-.4 0-.8-.2-.9-.5zm515.4.1c-.3-.2-.5-.5-.5-.9 0-.2 0-.3.1-.5.3-.5.9-.6 1.4-.4.3.2.5.5.5.9 0 .2 0 .3-.1.5-.2.3-.5.5-.9.5-.2 0-.3 0-.5-.1zM26.3 418c-.1-.1-.1-.3-.1-.4 0-.4.2-.8.6-.9.5-.2 1.1 0 1.3.5.1.1.1.3.1.4 0 .4-.2.8-.6.9-.1.1-.3.1-.4.1-.4-.1-.7-.3-.9-.6zm538.2.2c-.4-.2-.6-.5-.6-.9 0-.1 0-.3.1-.4.2-.5.8-.7 1.3-.5.4.2.6.5.6.9 0 .1 0 .3-.1.4-.2.4-.5.6-.9.6-.1 0-.3-.1-.4-.1zM16.9 394.7c0-.1-.1-.2-.1-.4 0-.4.3-.8.7-.9.5-.2 1.1.1 1.3.6 0 .1.1.2.1.3 0 .4-.3.8-.7.9h-.3c-.4.1-.8-.1-1-.5zm557 .3c-.4-.2-.7-.5-.7-.9 0-.1 0-.2.1-.3.2-.5.8-.8 1.3-.6.4.2.7.5.7 1 0 .1 0 .2-.1.3-.1.4-.5.7-.9.7-.2-.2-.3-.2-.4-.2zM10 370.7c0-.1-.3-.2-.3-.3 0-.4.2-.8.6-1 .5-.1 1 .2 1.2.7v.2c0 .4-.3.9-.8 1-.1 0 0 0 0 0-.4.1-.7-.2-.7-.6zm571.3.3c-.5-.1-.8-.5-.8-1v-.2c.1-.5.7-.9 1.2-.7.5.1.8.5.8 1v.2c-.1.5-.5.7-1 .7 0 .1-.1.1-.2 0zm-577-24.9v-.2c0-.5.3-.9.8-1 .5-.1 1.1.3 1.2.8v.2c0 .5-.4.9-.8 1h-.2c-.5 0-1-.3-1-.8zm582.3.5c-.5-.1-.8-.5-.8-1v-.2c.1-.5.6-.9 1.2-.8.5.1.8.5.8 1v.2c-.1.5-.5.8-1 .8h-.2zM1.1 321.2s0-.1 0 0c0-.6.4-1 .9-1.1.6 0 1 .4 1.1.9v.1c0 .5-.4 1-.9 1h-.1c-.5 0-1-.4-1-.9zm588.8.6c-.5 0-.9-.5-.9-1v-.1c0-.6.5-1 1.1-.9.5 0 .9.5.9 1v.1c-.1.5-.5.9-1.1.9zM0 296.1c0-.6.4-1 1-1 .5 0 1 .4 1 1s-.5 1-1 1c-.6 0-1-.4-1-1zm590-.3c0-.1 0-.2.1-.3 0-.1-.1-.2-.1-.3 0-.5.4-1 1-1 .5 0 1 .5 1 1 0 .1 0 .2-.1.3 0 .1.1.2.1.3 0 .5-.5 1-1 1s-1-.5-1-1zm-590 .3zm590-1zm-588.1-23c-.5 0-.9-.5-.9-1v-.1c0-.5.5-1 1.1-.9.5 0 .9.5.9 1v.1c0 .5-.5.9-1.1.9.1 0 .1 0 0 0zm587-1.9c0-.1 0-.1 0 0 0-.6.4-1 .9-1.1.5 0 1 .4 1.1.9v.1c0 .5-.4 1-.9 1h-.1c-.5 0-.9-.4-1-.9zM5 247.2c-.5-.1-.8-.5-.8-1v-.2c.1-.5.6-.9 1.1-.8.5.1.8.5.8 1v.2c-.1.5-.5.8-1 .8 0 .1-.1.1-.1 0zm580.7-1.8v-.2c0-.5.4-.9.8-1 .5-.1 1.1.3 1.2.8v.2c0 .5-.3.9-.8 1h-.2c-.5.1-.9-.3-1-.8zM10.1 222.7c-.4-.1-.8-.5-.7-1v-.2c.1-.5.7-.9 1.2-.7.5.1.8.5.8 1v.2c-.1.5-.5.8-1 .8-.1 0-.2 0-.3-.1zm570.3-1.6v-.2c0-.5.3-.9.8-1 .5-.1 1.1.2 1.2.7v.2c0 .4-.3.9-.8 1h-.2c-.5 0-.9-.3-1-.7zM17.3 198.8c-.4-.1-.7-.5-.7-.9v-.3c.2-.5.8-.8 1.3-.6.4.1.7.5.7 1 0 .1 0 .2-.1.3-.1.4-.5.7-.9.7-.1-.2-.2-.2-.3-.2zm555.8-1.6v-.4c0-.4.2-.8.7-.9.5-.2 1.1.1 1.3.6 0 .1.1.2.1.3 0 .4-.3.8-.7.9-.1 0-.2.1-.3.1-.6.1-1-.2-1.1-.6zM26.5 175.5c-.4-.2-.6-.5-.6-.9 0-.1 0-.3.1-.4.2-.5.8-.7 1.3-.5.4.2.6.5.6.9 0 .1 0 .3-.1.4-.2.4-.5.6-.9.6-.1 0-.2-.1-.4-.1zm537.2-1.4c-.1-.1-.1-.3-.1-.4 0-.4.2-.7.6-.9.5-.2 1.1 0 1.3.5.1.1.1.3.1.4 0 .4-.2.8-.6.9-.1.1-.3.1-.4.1-.4 0-.7-.2-.9-.6zm-526-21c-.3-.2-.5-.5-.5-.9 0-.2 0-.3.1-.5.3-.5.9-.6 1.4-.4.3.2.5.5.5.9 0 .2-.1.3-.1.5-.2.3-.5.5-.9.5-.1 0-.3 0-.5-.1zm514.7-1.2c-.1-.1-.1-.3-.1-.5 0-.3.2-.7.5-.9.5-.3 1.1-.1 1.4.4.1.2.1.3.1.5 0 .4-.2.7-.5.9-.2.1-.3.1-.5.1-.3 0-.7-.2-.9-.5zM50.8 131.7c-.3-.2-.4-.5-.4-.8 0-.2.1-.4.2-.6.3-.5.9-.6 1.4-.3.3.2.4.5.4.8 0 .2-.1.4-.2.6-.2.3-.5.4-.8.4-.2.1-.4 0-.6-.1zm488.5-1c-.1-.2-.2-.4-.2-.6 0-.3.1-.6.4-.8.5-.3 1.1-.2 1.4.3.1.2.2.4.2.6 0 .3-.2.6-.4.8-.2.1-.4.2-.6.2-.3-.1-.6-.3-.8-.5zM65.6 111.5c-.2-.2-.4-.5-.4-.8 0-.2.1-.4.2-.6.4-.4 1-.5 1.4-.1.2.2.4.5.4.8 0 .2-.1.4-.2.6-.2.2-.5.4-.8.4-.2-.1-.4-.1-.6-.3zm458.8-.9c-.1-.2-.2-.4-.2-.6 0-.3.1-.6.4-.8.4-.3 1.1-.3 1.4.1.1.2.2.4.2.6 0 .3-.1.6-.4.8-.2.1-.4.2-.6.2-.3.1-.6 0-.8-.3zm-442.3-18c-.2-.2-.3-.5-.3-.7 0-.2.1-.5.3-.7.4-.4 1-.4 1.4 0 .2.2.3.5.3.7 0 .2-.1.5-.3.7-.2.2-.5.3-.7.3-.3 0-.5-.1-.7-.3zm425.8-.7c-.2-.2-.3-.4-.3-.7 0-.3.1-.5.3-.7.4-.4 1-.4 1.4 0 .2.2.3.4.3.7 0 .3-.1.5-.3.7-.2.2-.4.3-.7.3-.3 0-.5-.1-.7-.3zM100.1 75.2c-.2-.2-.2-.4-.2-.6 0-.3.1-.6.3-.8.4-.4 1-.3 1.4.1.2.2.2.4.3.6 0 .3-.1.6-.3.8-.2.2-.4.2-.7.2-.4.1-.7 0-.8-.3zm389.7-.5c-.2-.2-.3-.5-.3-.8 0-.2.1-.5.2-.6.4-.4 1-.5 1.4-.1.2.2.3.5.3.8 0 .2-.1.5-.2.6-.2.2-.5.3-.8.3-.1.1-.4 0-.6-.2zM119.4 59.4c-.1-.2-.2-.4-.2-.6 0-.3.1-.6.4-.8.4-.3 1.1-.2 1.4.2.1.2.2.4.2.6 0 .3-.1.6-.4.8-.2.1-.4.2-.6.2-.3 0-.6-.1-.8-.4zm351-.3c-.3-.2-.4-.5-.4-.8 0-.2.1-.4.2-.6.3-.4 1-.5 1.4-.2.3.2.4.5.4.8 0 .2-.1.4-.2.6-.2.3-.5.4-.8.4-.2-.1-.4-.1-.6-.2zM140.1 45.3c-.1-.2-.1-.3-.1-.5 0-.3.2-.7.5-.9.5-.3 1.1-.1 1.4.3.1.2.1.3.1.5 0 .3-.2.7-.5.9-.2.1-.4.2-.5.2-.4-.1-.7-.2-.9-.5zm309.6-.2c-.3-.2-.5-.5-.5-.9 0-.2.1-.4.2-.5.3-.5.9-.6 1.4-.3.3.2.5.5.5.9 0 .2 0 .4-.1.5-.2.3-.5.5-.9.5-.3-.1-.4-.1-.6-.2zM161.9 32.9c-.1-.1-.1-.3-.1-.5 0-.4.2-.7.5-.9.5-.2 1.1 0 1.3.4.1.1.1.3.1.5 0 .4-.2.7-.5.9-.1.1-.3.1-.5.1-.3.1-.6-.1-.8-.5zm266 0c-.4-.2-.6-.5-.6-.9 0-.2 0-.3.1-.5.2-.5.8-.7 1.3-.5.3.2.5.5.5.9 0 .1 0 .3-.1.5-.2.3-.5.6-.9.6 0 .1-.2 0-.3-.1zM184.6 22.5c0-.1-.1-.2-.1-.4 0-.4.2-.8.6-.9.5-.2 1.1 0 1.3.5.1.1.1.2.1.4 0 .4-.2.8-.6.9-.1 0-.2.1-.4.1-.3 0-.7-.2-.9-.6zm220.5.2c-.4-.2-.6-.5-.6-.9 0-.1 0-.2.1-.4.2-.5.8-.8 1.3-.6.4.2.6.5.6.9 0 .1 0 .2-.1.4-.2.4-.5.6-.9.6-.1.1-.2 0-.4 0zm-196.9-8.6v-.3c0-.4.3-.8.7-.9.5-.2 1.1.1 1.2.7v.3c0 .4-.3.8-.7.9h-.3c-.4 0-.8-.3-.9-.7zm173.4.3c-.4-.1-.7-.5-.7-1v-.3c.2-.5.7-.8 1.2-.7.4.1.7.5.7 1v.3c-.1.4-.5.7-1 .7 0 .1-.1 0-.2 0zM232.4 7.6v-.2c0-.5.3-.9.8-1 .5-.1 1.1.2 1.2.8v.2c0 .5-.3.9-.8 1h-.2c-.5 0-.9-.3-1-.8zm125 .6c-.5-.1-.8-.5-.8-1V7c.1-.5.6-.9 1.2-.8.5.1.8.5.8 1v.2c-.1.5-.5.8-1 .8h-.2zM257 3.3v-.1c0-.5.4-.9.9-1 .6-.1 1.1.3 1.1.9v.1c0 .5-.4.9-.9 1h-.1c-.5 0-.9-.4-1-.9zm75.8.8c-.5-.1-.9-.5-.9-1V3c.1-.6.6-.9 1.1-.9.5.1.9.5.9 1v.1c-.1.5-.5.9-1 .9h-.1zm-50.8-3c0-.6.4-1 .9-1 .6 0 1 .4 1.1 1v.1c0 .5-.4 1-1 1-.6-.2-1-.6-1-1.1zm26 .9c-.5 0-1-.5-1-1V.9c0-.5.5-1 1-1s1 .5 1 1c0 .7-.5 1.1-1 1.1z"/></svg>