<svg id="Layer_1" xmlns="http://www.w3.org/2000/svg" viewBox="0 0 735 735"><style>.st0{fill:#FF0000;}</style><path class="st0" d="M352.9 734.7c-1.4 0-2.5-1.2-2.4-2.6 0-1.4 1.2-2.5 2.6-2.4 1.4.1 2.5 1.2 2.4 2.6-.1 1.3-1.2 2.4-2.5 2.4h-.1zm56.3-4.5c-.2-1.4.8-2.6 2.2-2.8 1.4-.2 2.6.8 2.8 2.2.2 1.4-.8 2.6-2.2 2.8h-.3c-1.3 0-2.3-1-2.5-2.2zm-115-2.5c-1.4-.3-2.2-1.6-2-3 .3-1.4 1.6-2.2 3-2 1.4.3 2.2 1.6 1.9 2.9-.2 1.2-1.3 2-2.4 2-.2.1-.3.1-.5.1zm172.6-8.9c-.4-1.3.4-2.7 1.7-3.1 1.3-.4 2.7.4 3.1 1.7.4 1.3-.4 2.7-1.7 3.1-.2.1-.5.1-.7.1-1.1 0-2.1-.7-2.4-1.8zm-229.4-7.5c-1.3-.5-1.9-1.9-1.5-3.2.5-1.3 1.9-1.9 3.2-1.5 1.3.5 1.9 1.9 1.5 3.2-.4 1-1.3 1.6-2.3 1.6-.4.1-.6 0-.9-.1zm284.5-12.9c-.6-1.2-.1-2.7 1.2-3.3 1.2-.6 2.7.2 3.3 1.4.6 1.2.1 2.6-1.2 3.6h-1.1c-.9-.1-1.8-.8-2.2-1.7zm-338-12.5c-1.2-.7-1.6-2.2-.9-3.4.7-1.2 2.2-1.6 3.4-.9 1.2.7 1.6 2.2.9 3.4-.5.8-1.3 1.2-2.2 1.2-.4.1-.8 0-1.2-.3zm389-16.6c-.8-1.1-.5-2.7.6-3.5 1.1-.8 2.7-.5 3.5.6.8 1.1.5 2.7-.6 3.5-.4.3-.9.4-1.4.4-.9.1-1.6-.3-2.1-1zm-437.7-17c-1.1-.9-1.2-2.5-.4-3.5.9-1.1 2.4-1.2 3.5-.4 1.1.9 1.2 2.5.4 3.5-.5.6-1.2.9-1.9.9-.5.1-1.1-.1-1.6-.5zm483.4-19.9c-1-1-.9-2.6.1-3.5 1-1 2.6-.9 3.5.1.9 1 .9 2.6-.1 3.5-.5.5-1.1.7-1.7.7-.7 0-1.3-.3-1.8-.8zm-526-21c-.9-1-.8-2.6.2-3.5 1-.9 2.6-.8 3.5.2.9 1 .8 2.6-.2 3.5-.5.4-1.1.6-1.6.6-.7 0-1.4-.3-1.9-.8zm565.2-22.7c-1.1-.8-1.3-2.4-.5-3.5s2.4-1.3 3.5-.5 1.3 2.4.5 3.5c-.5.7-1.2 1-2 1-.5 0-1-.1-1.5-.5zM57 564.2c-.7-1.2-.4-2.7.8-3.5 1.2-.7 2.7-.4 3.4.8.7 1.2.4 2.7-.8 3.5-.4.3-.9.4-1.3.4-.8-.1-1.6-.5-2.1-1.2zm632.6-24.9c-1.2-.6-1.7-2.2-1.1-3.4.6-1.2 2.2-1.7 3.4-1.1 1.2.6 1.7 2.2 1 3.4-.5.8-1.3 1.3-2.2 1.3-.3.1-.7 0-1.1-.2zM29.4 511.9c-.5-1.3.1-2.7 1.3-3.3 1.3-.5 2.7.1 3.3 1.3.5 1.3 0 2.7-1.3 3.3-.3.1-.7.2-1 .2-.9 0-1.8-.6-2.3-1.5zM713 485.4c-1.3-.4-2-1.8-1.6-3.2.4-1.3 1.8-2 3.2-1.6 1.3.4 2 1.8 1.6 3.2-.4 1.1-1.3 1.7-2.4 1.7-.2.1-.5 0-.8-.1zM10.7 455.8c-.3-1.3.5-2.7 1.8-3 1.3-.3 2.7.5 3 1.8.3 1.3-.5 2.7-1.8 3-.2.1-.4.1-.6.1-1.1 0-2.1-.7-2.4-1.9zm716.7-27.3c-1.4-.2-2.3-1.5-2.1-2.9.2-1.4 1.5-2.3 2.9-2.1 1.4.2 2.3 1.5 2.1 2.9-.2 1.2-1.3 2.1-2.5 2.1h-.4zM1.2 397c-.1 0 .9-2.4 2.3-2.5 1.4-.1 2.6 1.2 2.7 2.5.1 1.4-.9 2.9-2.3 2.9h-.2c-1.3.1-2.4-.9-2.5-2.9zM730 367.5v-.4-.4c0-1.4 1.1-2.5 2.5-2.5s2.5 1.1 2.5 2.5v.8c0 1.4-1.1 2.5-2.5 2.5s-2.5-1.1-2.5-2.5zM3.4 341c-1.4-.1-2.4-1.3-2.3-2.7.1-1.4 1.3-2.4 2.7-2.3 1.4.1 2.4 1.3 2.3 2.7C6 340 4.9 341 3.6 341h-.2zm721.8-32.4c-.2-1.4.7-2.6 2.1-2.9 1.4-.2 2.7.7 2.9 2.1.2 1.4-.7 2.6-2.1 2.9h-.4c-1.2 0-2.3-.9-2.5-2.1zM12.3 283c-1.3-.3-1.8-1.7-1.8-3 0-1.4 1.7-2.2 3-1.8 1.3.3 2.2 1.7 1.8 3-.3 1.1-1.3 1.9-2.4 1.9-.2 0-.4-.1-.6-.1zm698.9-31c-.4-1.3.3-2.7 1.6-3.2 1.3-.4 2.7.3 3.2 1.6s-.3 2.7-1.6 3.2c-.3.1-.5.1-.8.1-1.1 0-2-.7-2.4-1.7zM30.5 227.1c-1.3-.5-1.9-2-1.3-3.3.5-1.3 2-1.9 3.3-1.3 1.3.5 1.9 2 1.3 3.3-.4 1-1.3 1.5-2.3 1.5-.4 0-.7-.1-1-.2zm657.7-28.7c-.6-1.2-.2-2.7 1-3.4 1.2-.6 2.7-.2 3.4 1 .6 1.2.2 2.7-1 3.4-.4.2-.8.3-1.2.3-.9 0-1.7-.5-2.2-1.3zM57.4 174.9c-1.2-.7-1.5-2.3-.8-3.5.7-1.2 2.3-1.5 3.5-.8 1.2.7 1.5 2.3.8 3.4-.5.8-1.3 1.2-2.1 1.2-.5.1-1-.1-1.4-.3zm599.5-25.7c-.8-1.1-.6-2.7.5-3.5 1.1-.8 2.7-.6 3.5.5.8 1.1.6 2.7-.5 3.5-.5.3-1 .5-1.5.5-.8 0-1.5-.4-2-1zM92.3 127.7c-1-.9-1.1-2.5-.2-3.5.9-1 2.5-1.1 3.5-.2 1 .9 1.1 2.5.2 3.5-.5.6-1.2.8-1.9.8-.5 0-1.1-.2-1.6-.6zm525.8-22.1c-1-.9-1-2.5-.1-3.5 1-1 2.5-1 3.5-.1 1 1 1 2.5.1 3.5-.5.5-1.1.8-1.8.8-.6 0-1.2-.2-1.7-.7zm-483.7-19c-.9-1.1-.7-2.6.4-3.5 1.1-.9 2.6-.7 3.5.4.9 1.1.7 2.6-.3 3.5-.5.4-1 .6-1.6.6-.8-.1-1.5-.4-2-1zm438.5-17.8c-1.1-.8-1.4-2.3-.6-3.5.8-1.1 2.3-1.4 3.5-.6 1.1.8 1.4 2.3.6 3.5-.5.7-1.3 1.1-2.1 1.1-.5-.1-1-.2-1.4-.5zm-390.5-16c-.7-1.2-.3-2.7.9-3.4 1.2-.7 2.7-.3 3.4.9.7 1.2.3 2.7-.9 3.4-.4.2-.8.3-1.2.3-.9.1-1.8-.4-2.2-1.2zm340-13.1c-1.2-.6-1.8-2.1-1.2-3.3.6-1.2 2.1-1.8 3.3-1.2 1.2.6 1.8 2.1 1.2 3.3-.4.9-1.3 1.4-2.3 1.4-.3 0-.7-.1-1-.2zM235.2 27.2c-.5-1.3.2-2.7 1.4-3.2 1.3-.5 2.7.2 3.2 1.5s-.1 2.7-1.4 3.2c-.3.1-.6.2-.9.2-1-.1-1.9-.7-2.3-1.7zM467.8 19c-1.3-.4-2.1-1.8-1.7-3.1.4-1.3 1.8-2.1 3.1-1.7 1.3.4 2.1 1.8 1.7 3.1-.3 1.1-1.3 1.8-2.4 1.8-.3 0-.5 0-.7-.1zm-176.3-8.6c-.3-1.3.6-2.7 1.9-2.9 1.4-.3 2.7.4 3 1.8.3 1.4-.6 2.8-2 2.8-.2 0-.3.2-.5.2-1.1 0-2.2-.7-2.4-1.9zm119.1-2.9c-1.4-.2-2.3-1.4-2.2-2.8.2-1.4 1.4-2.4 2.8-2.2 1.4.2 2.4 1.4 2.2 2.8-.2 1.3-1.2 2.2-2.5 2.2-.1.1-.2 0-.3 0zm-60.9-4.7c-.1-1.4 1-2.5 2.4-2.5s2.5.9 2.6 2.3c.1 1.4-1 2.5-2.4 2.5h-.1c-1.3-.1-2.4-1-2.5-2.3z"/></svg>