<svg id="Layer_1" xmlns="http://www.w3.org/2000/svg" viewBox="0 0 340.1 342.6"><style>.st0{fill:#CC0000;} .st1{fill:#505050;}</style><path class="st0" d="M185.6 340.4c-.2-1.4 1-2.6 2-2.8 2-.2 2.8.8 2.9 2.2.2 1.4-.8 2.6-2.1 2.8h-.3c-1.2 0-2.4-1-2.5-2.2zm-79-7.7c-1.3-.5-1.9-1.9-1.4-3.2.5-1.3 1.9-1.9 3.2-1.5 1.3.5 1.9 1.9 1.5 3.2-.4 1-1.3 1.6-2.3 1.6-.5 0-.8 0-1-.1zm155.6-20.1c-.8-1.1-.5-2.7.6-3.5 1.1-.8 2.7-.5 3.5.6.8 1.1.5 2.7-.6 3.5-.4.3-.9.4-1.4.4-.8.1-1.6-.3-2.1-1zM38.6 285.8c-.9-1-.8-2.6.2-3.5 1-.9 2.6-.8 3.5.2.9 1 .8 2.6-.2 3.5-.5.4-1.1.6-1.7.6-.6 0-1.3-.3-1.8-.8zm278.5-33.3c-1.2-.6-1.7-2.2-1.1-3.4.6-1.2 2.2-1.7 3.4-1 1.2.6 1.7 2.1 1 3.4-.4.9-1.3 1.3-2.2 1.3-.4 0-.8-.1-1.1-.3zM.2 212.7c-.3-1.3.5-2.7 1.8-3 1.3-.3 2.7.5 3 1.8.3 1.3-.5 2.7-1.8 3-.2 0-.4.1-.6.1-1.1 0-2.2-.7-2.4-1.9zm334.9-41.4c0-.1-.2-.1-.2-.2s-.3-.1-.3-.2c0-1.4 1.4-2.5 2.7-2.5 1.4 0 2.6 1.1 2.6 2.5 0 .1.1.1.1.2v.2c0 1.4-1.1 2.5-2.5 2.5-1.3 0-2.4-1.1-2.4-2.5zM1.9 133.2c-1.3-.3-2.2-1.7-1.8-3 .3-1.3 1.7-2.2 3-1.8 1.3.3 2.2 1.7 1.8 3-.3 1.1-1.3 1.9-2.4 1.9-.2 0-.4 0-.6-.1zm313.9-40c-.6-1.2-.2-2.7 1-3.4 1.2-.6 2.7-.2 3.4 1.1.6 1.2.2 2.7-1 3.4-.4.2-.8.3-1.2.3-.8-.1-1.7-.6-2.2-1.4zM38.6 60.6c-1-.9-1.1-2.5-.2-3.5.9-1 2.5-1.1 3.5-.2 1 .9 1.1 2.5.2 3.5-.5.6-1.2.9-1.9.9-.5-.1-1.1-.3-1.6-.7zm224-27.3c-1.1-.8-1.4-2.3-.6-3.5.8-1.1 2.3-1.4 3.5-.6 1.1.8 1.4 2.3.6 3.5-.5.7-1.3 1.1-2.1 1.1-.5-.1-1-.2-1.4-.5zm-157.8-20c-.5-1.3.1-2.7 1.4-3.2 1.3-.5 2.7.2 3.2 1.4.5 1.3-.1 2.7-1.5 3.2-.3.1-.6.2-.9.2-.9 0-1.8-.6-2.2-1.6zM187.6 5c-1.4-.2-2.4-1.4-2.2-2.8.2-1.4 1.4-2.4 2.8-2.2 1.4.2 2.4 1.4 2.2 2.8-.2 1.3-1.2 2.2-2.5 2.2h-.3z"/><path class="st1" d="M172.7 302.2c-.5 0-1-.4-1-1 0-.5.4-1 1-1 .5 0 1 .4 1 1 0 .5-.4 1-1 1zm-20-.7c-.5-.1-1-.6-.9-1.1.1-.5.6-.9 1.1-.9.5.1.9.6.9 1.1-.1.5-.5.9-1 .9h-.1zm38.8-2.4c-.1-.5.2-1.1.8-1.2.5-.1 1.1.2 1.2.8.1.5-.2 1.1-.8 1.2h-.2c-.5 0-.9-.3-1-.8zm-58.5-1.4c-.5-.1-.9-.7-.7-1.2.1-.5.7-.8 1.2-.7.5.1.9.7.7 1.2-.1.5-.5.7-1 .7h-.2zm77.7-3.7c-.2-.5.1-1.1.6-1.3.5-.2 1.1.1 1.3.6.2.5-.1 1.1-.6 1.3-.1 0-.2.1-.3.1-.5 0-.8-.3-1-.7zm-96.6-3.1c-.5-.2-.7-.8-.5-1.3.2-.5.8-.7 1.3-.5.5.2.7.8.5 1.3-.2.4-.5.6-.9.6-.1 0-.2 0-.4-.1zm114.8-4.9c-.3-.5-.1-1.1.4-1.4.5-.3 1.1-.1 1.4.4.3.5.1 1.1-.4 1.4-.2.1-.3.1-.5.1-.4 0-.7-.2-.9-.5zm-132.4-4.7c-.5-.3-.6-.9-.3-1.4.3-.5.9-.6 1.4-.3.5.3.6.9.3 1.4-.2.3-.5.5-.8.5-.2 0-.4-.1-.6-.2zm149.2-6c-.3-.4-.2-1.1.2-1.4.4-.3 1.1-.2 1.4.2.3.4.2 1.1-.2 1.4-.2.1-.4.2-.6.2-.3 0-.6-.2-.8-.4zm-165.1-6.1c-.4-.4-.4-1-.1-1.4.4-.4 1-.5 1.4-.1.4.4.4 1 .1 1.4-.2.2-.5.3-.8.3-.2 0-.5-.1-.6-.2zm180-7c-.4-.4-.4-1 0-1.4.4-.4 1-.4 1.4 0 .4.4.4 1 0 1.4-.2.2-.5.3-.7.3-.2-.1-.5-.2-.7-.3zm-194-7.5c-.4-.4-.3-1.1.1-1.4.4-.3 1.1-.3 1.4.1.3.4.3 1.1-.1 1.4-.2.2-.4.2-.6.2-.3.1-.6 0-.8-.3zm206.8-7.8c-.5-.3-.6-.9-.2-1.4.3-.5.9-.6 1.4-.2.5.3.5 1 .2 1.4-.2.3-.5.4-.8.4-.2 0-.4-.1-.6-.2zm-218.3-8.5c-.3-.5-.1-1.1.3-1.4.5-.3 1.1-.1 1.4.4.3.5.1 1.1-.3 1.4-.2.1-.3.1-.5.1-.4-.1-.7-.2-.9-.5zm228.6-8.5c-.5-.2-.7-.9-.5-1.3.2-.5.8-.7 1.3-.5.5.2.7.8.5 1.3-.2.4-.5.6-.9.6-.1 0-.2 0-.4-.1zm-237.5-9.5c-.2-.5 0-1.1.5-1.3.5-.2 1.1 0 1.3.5.2.5 0 1.1-.5 1.3-.1 0-.2.1-.4.1-.4 0-.8-.2-.9-.6zm245.1-8.9c-.5-.2-.8-.7-.6-1.3.2-.5.7-.8 1.3-.7.5.2.8.7.6 1.3-.1.4-.5.7-1 .7h-.3zM40.1 201.3c-.1-.5.2-1.1.7-1.2.5-.1 1.1.2 1.2.7.1.5-.2 1.1-.8 1.2H41c-.4.1-.8-.2-.9-.7zm255.9-9.2c-.5-.1-.9-.6-.8-1.1.1-.5.6-.9 1.1-.8.5.1.9.6.8 1.1-.1.5-.5.8-1 .8h-.1zM37 181.5c0-.5.4-1 .9-1.1.5 0 1 .4 1.1.9 0 .5-.4 1-.9 1.1H38c-.5 0-.9-.4-1-.9zm259.6-10.2v-.1-.2c0-.5.4-1 1-1 .5 0 1 .5 1 1V171.3c0 .5-.5 1-1 1s-1-.4-1-1zm-258.7-8.8c-.6-.1-1-.5-.9-1.1 0-.6.5-1 1.1-.9.5 0 1 .5.9 1.1 0 .5-.5.9-1.1.9.1 0 .1 0 0 0zm257.2-11.2c-.1-.6.3-1.1.8-1.1.5-.1 1 .3 1.1.8.1.5-.3 1.1-.8 1.1h-.1c-.5.1-.9-.3-1-.8zm-254.3-8.5c-.5-.1-.9-.7-.8-1.2.1-.5.7-.9 1.2-.8.5.1.9.7.8 1.2-.1.5-.5.8-1 .8h-.2zm249.8-10.7c-.2-.5.1-1.1.7-1.2.5-.2 1.1.1 1.2.6.2.5-.1 1.1-.7 1.3-.1 0-.2.1-.3.1-.4-.1-.8-.4-.9-.8zm-244-8.3c-.5-.2-.8-.8-.6-1.3.2-.5.8-.8 1.3-.6.5.2.8.8.6 1.3-.2.4-.5.6-.9.6-.1.1-.3 0-.4 0zm236.6-10c-.2-.5 0-1.1.5-1.3.5-.2 1.1-.1 1.3.4.2.5 0 1.1-.5 1.3-.1.1-.3.1-.4.1-.4.1-.8-.1-.9-.5zm-227.9-7.9c-.5-.3-.6-.9-.3-1.4.3-.5.9-.6 1.4-.4.5.3.6.9.4 1.4-.2.3-.5.5-.9.5-.3 0-.5 0-.6-.1zm217.7-9c-.3-.5-.2-1.1.2-1.4.5-.3 1.1-.2 1.4.2.3.4.2 1.1-.2 1.4-.2.1-.4.2-.6.2-.3 0-.6-.1-.8-.4zM66.6 89.5c-.4-.4-.5-1-.1-1.4.4-.4 1-.5 1.4-.1.4.4.5 1 .1 1.4-.2.2-.5.4-.8.4l-.6-.3zm193.8-7.8c-.4-.4-.4-1 0-1.4.4-.4 1-.4 1.4 0 .4.4.4 1 0 1.4-.2.2-.4.3-.7.3-.2 0-.5-.1-.7-.3zM80.3 75c-.4-.4-.3-1.1.1-1.4.4-.4 1-.3 1.4.1.4.4.3 1.1-.1 1.4-.2.2-.4.2-.7.2-.3.1-.5 0-.7-.3zm165.4-6.4c-.4-.3-.5-1-.2-1.4.3-.4 1-.5 1.4-.2.4.3.5 1 .2 1.4-.2.3-.5.4-.8.4-.2 0-.5-.1-.6-.2zM96 62.8c-.3-.5-.2-1.1.3-1.4.5-.3 1.1-.2 1.4.3.3.5.2 1.1-.3 1.4-.2.1-.4.2-.5.2-.4 0-.7-.2-.9-.5zm133.1-5c-.5-.3-.7-.9-.4-1.4.3-.5.9-.7 1.4-.4.5.3.7.9.4 1.4-.2.3-.5.5-.9.5-.2.1-.4 0-.5-.1zm-115.7-4.7c-.2-.5 0-1.1.5-1.3.5-.2 1.1 0 1.3.5.2.5 0 1.1-.5 1.3-.1.1-.3.1-.4.1-.4 0-.8-.2-.9-.6zm97.6-3.3c-.5-.2-.8-.8-.6-1.3.2-.5.8-.8 1.3-.6.5.2.8.8.6 1.3-.1.4-.5.7-.9.7-.1-.1-.3-.1-.4-.1zm-79-3.6c-.1-.5.2-1.1.7-1.2.5-.1 1.1.2 1.2.7.1.5-.2 1.1-.7 1.2h-.3c-.4.1-.8-.2-.9-.7zm60-1.6c-.5-.1-.9-.6-.8-1.2.1-.5.6-.9 1.2-.8.5.1.9.6.8 1.2-.1.5-.5.8-1 .8h-.2zm-40.5-2.3c-.1-.5.3-1 .9-1.1.6-.1 1 .3 1.1.9.1.5-.3 1-.9 1.1h-.1c-.5 0-.9-.4-1-.9zm20.9.1c-.6 0-1-.5-1-1s.5-1 1-1 1 .5 1 1c0 .6-.5 1-1 1z"/></svg>