<svg id="Layer_1" xmlns="http://www.w3.org/2000/svg" viewBox="0 0 100 100"><style>.st0{fill-rule:evenodd;clip-rule:evenodd;}</style><path class="st0" fill="#8db45a" d="M5 0s4.3 2.5 2.3 14.4C1.5 50 18.5 60.5 28.8 65.7c8 4 14.8 4.9 14.8 4.9s-1.3-16.1-5.1-27.5c-4.1-12.1-8.6-18.9-8.6-18.9s5.5 5.2 10.2 15.3c4.6 9.9 5.5 22.5 5.5 22.5s6.9-22-5.5-39.2C28.5 6.6 5 0 5 0zM46.4 66.5l2.4 13.7s-1-5.5 4-12.3l1.2 3s-8.6 11.5 1.5 26.6c0 0-1.7 3-5.9 2.4-4.2-.5-5-26.3-5-26.3s2.3-.8 1.8-7.1zM95 62.1s-2.4-1.2-7.1 3.2c-5.1 4.7-11.1 8.4-18 8.9C59.7 75 51.8 65 51.8 65s7-4.8 14.6-5.9c6.4-.9 10.3-.6 10.3-.6s-3.6-1.3-10.3-1.1c-7.3.3-11.9 3.3-11.9 3.3s6.3-9.2 19.7-8.5C85 53 95 62.1 95 62.1z"/></svg>