<?xml version="1.0" encoding="utf-8"?>
<!-- Generator: Adobe Illustrator 22.0.1, SVG Export Plug-In . SVG Version: 6.00 Build 0)  -->
<svg version="1.1" id="Layer_1" xmlns="http://www.w3.org/2000/svg" xmlns:xlink="http://www.w3.org/1999/xlink" x="0px" y="0px"
	 viewBox="0 0 45.1 31.7" style="enable-background:new 0 0 45.1 31.7;" xml:space="preserve">
<path d="M20.2,14.4L1.9,14.5c-0.8,0-1.5,0.7-1.5,1.5c0,0.8,0.7,1.5,1.5,1.5l18.3-0.1l3,0l16.4-0.1L28.2,28.8c-0.6,0.6-0.6,1.5,0,2.1
	c0,0,0,0,0,0c0.6,0.6,1.5,0.6,2.1,0l13.9-14c0.6-0.6,0.6-1.5,0-2.1l-14-13.9c0,0,0,0,0,0c-0.6-0.6-1.5-0.6-2.1,0
	c-0.6,0.6-0.6,1.5,0,2.1l11.4,11.4l-16.4,0.1L20.2,14.4z"/>
<path d="M29.3,31.7c-0.5,0-1-0.2-1.3-0.5c-0.4-0.4-0.6-0.8-0.6-1.3c0-0.5,0.2-1,0.5-1.3l10.8-10.8L1.9,17.9c-0.5,0-1-0.2-1.3-0.5
	C0.2,17,0,16.5,0,16c0-0.5,0.2-1,0.5-1.3c0.4-0.4,0.8-0.6,1.3-0.6l36.8-0.2L27.9,3.2c-0.4-0.4-0.6-0.8-0.6-1.3c0-0.5,0.2-1,0.5-1.3
	c0.7-0.7,1.9-0.7,2.6,0l14,13.9c0.4,0.4,0.6,0.8,0.6,1.3c0,0.5-0.2,1-0.5,1.3l-13.9,14C30.3,31.5,29.8,31.7,29.3,31.7z"/>
</svg>
