<?xml version="1.0" encoding="utf-8"?>
<!-- Generator: Adobe Illustrator 22.0.1, SVG Export Plug-In . SVG Version: 6.00 Build 0)  -->
<svg version="1.1" id="Layer_1" xmlns="http://www.w3.org/2000/svg" xmlns:xlink="http://www.w3.org/1999/xlink" x="0px" y="0px"
	 viewBox="0 0 82.2 82.2" style="enable-background:new 0 0 82.2 82.2;" xml:space="preserve">
<style type="text/css">
	.st0{fill:#333333;}
	.st1{fill:#FFFFFF;}
</style>
<circle class="st0" cx="41.1" cy="41.1" r="41.1"/>
<g>
	<path class="st1" d="M37.5,50.5c0-2.3,0.3-4.2,0.8-5.5s1.5-2.8,3-4.5l3.8-3.9c1.6-1.9,2.5-3.8,2.5-6c0-2-0.5-3.6-1.6-4.8
		c-1.1-1.2-2.6-1.7-4.7-1.7c-2,0-3.6,0.5-4.8,1.6s-1.8,2.5-1.8,4.2h-5.4c0-3.2,1.2-5.7,3.4-7.7c2.2-1.9,5.1-2.9,8.7-2.9
		c3.7,0,6.6,1,8.6,3c2.1,2,3.1,4.7,3.1,8.1c0,3.4-1.6,6.8-4.7,10.1l-3.2,3.2c-1.4,1.6-2.1,3.9-2.1,6.8H37.5z M37.3,59.8
		c0-0.9,0.3-1.6,0.8-2.2s1.3-0.9,2.4-0.9s1.9,0.3,2.4,0.9s0.8,1.3,0.8,2.2s-0.3,1.6-0.8,2.2s-1.3,0.9-2.4,0.9s-1.9-0.3-2.4-0.9
		S37.3,60.7,37.3,59.8z"/>
</g>
</svg>
