<?xml version="1.0" encoding="utf-8"?>
<!-- Generator: Adobe Illustrator 22.0.1, SVG Export Plug-In . SVG Version: 6.00 Build 0)  -->
<svg version="1.1" id="Capa_1" xmlns="http://www.w3.org/2000/svg" xmlns:xlink="http://www.w3.org/1999/xlink" x="0px" y="0px"
	 viewBox="-505 335.5 187.5 187.5" style="enable-background:new -505 335.5 187.5 187.5;" xml:space="preserve">
<g>
	<circle cx="-411.3" cy="429.3" r="35.9"/>
	<path d="M-322.5,424.3h-5.6c-2.5-42-36.2-75.6-78.1-78.1v-5.6c0-2.8-2.2-5-5-5c-2.8,0-5,2.2-5,5v5.6c-42,2.5-75.6,36.2-78.1,78.1
		h-5.6c-2.8,0-5,2.2-5,5c0,2.8,2.2,5,5,5h5.6c2.5,42,36.2,75.6,78.1,78.1v5.6c0,2.8,2.2,5,5,5s5-2.2,5-5v-5.6
		c42-2.5,75.6-36.2,78.1-78.1h5.6c2.8,0,5-2.2,5-5C-317.5,426.5-319.8,424.3-322.5,424.3z M-406.3,497.4v-8.6c0-2.8-2.2-5-5-5
		c-2.8,0-5,2.2-5,5v8.6c-33.7-2.5-60.6-29.4-63.1-63.1h8.6c2.8,0,5-2.2,5-5c0-2.8-2.2-5-5-5h-8.6c2.5-33.7,29.4-60.6,63.1-63.1v8.6
		c0,2.8,2.2,5,5,5c2.8,0,5-2.2,5-5v-8.6c33.7,2.5,60.6,29.4,63.1,63.1h-8.6c-2.8,0-5,2.2-5,5c0,2.8,2.2,5,5,5h8.6
		C-345.6,467.9-372.6,494.9-406.3,497.4z"/>
</g>
</svg>
