<?xml version="1.0" encoding="UTF-8"?>
<svg width="20px" height="19px" viewBox="0 0 20 19" version="1.1" xmlns="http://www.w3.org/2000/svg" xmlns:xlink="http://www.w3.org/1999/xlink">
    <!-- Generator: Sketch 50.2 (55047) - http://www.bohemiancoding.com/sketch -->
    <title>Page 1</title>
    <desc>Created with Sketch.</desc>
    <defs>
        <polygon id="path-1" points="0.7326 0.4105 15.2586 0.4105 15.2586 10 0.7326 10"></polygon>
        <polygon id="path-3" points="0 0.1963 19.999555 0.1963 19.999555 10.8253 0 10.8253"></polygon>
    </defs>
    <g id="menu" stroke="none" stroke-width="1" fill="none" fill-rule="evenodd">
        <g id="Android-360/assuntos_abertos-Copy" transform="translate(-47.000000, -606.000000)">
            <g id="Group" transform="translate(0.000000, 590.000000)">
                <g id="Group-19">
                    <g id="Page-1" transform="translate(47.000000, 15.000000)">
                        <g id="Group-3" transform="translate(2.000000, 9.803800)">
                            <mask id="mask-2" fill="white">
                                <use xlink:href="#path-1"></use>
                            </mask>
                            <g id="Clip-2"></g>
                            <path d="M14.7036,0.4105 C14.3786,0.4105 14.1266,0.6605 14.1266,0.9875 L14.1266,8.8665 L10.0396,8.8665 L10.0396,5.6485 C10.0396,5.3475 9.7876,5.0835 9.4836,5.0835 L6.5286,5.0835 C6.2036,5.0835 5.9416,5.3475 5.9416,5.6485 L5.9416,8.8665 L1.8646,8.8665 L1.8646,1.2485 C1.8646,0.9445 1.6126,0.6915 1.2876,0.6915 C0.9836,0.6915 0.7326,0.9445 0.7326,1.2485 L0.7326,9.4435 C0.7326,9.7475 0.9836,10.0005 1.2876,10.0005 L6.5286,10.0005 C6.8316,10.0005 7.0836,9.7475 7.0836,9.4435 L7.0836,6.2255 L8.9076,6.2255 L8.9076,9.4435 C8.9076,9.7475 9.1586,10.0005 9.4836,10.0005 L14.7036,10.0005 C15.0076,10.0005 15.2586,9.7475 15.2586,9.4435 L15.2586,0.9875 C15.2586,0.6605 15.0076,0.4105 14.7036,0.4105" id="Fill-1" fill="#B2B2B2" mask="url(#mask-2)"></path>
                        </g>
                        <g id="Group-6" transform="translate(0.000000, 0.803800)">
                            <mask id="mask-4" fill="white">
                                <use xlink:href="#path-3"></use>
                            </mask>
                            <g id="Clip-5"></g>
                            <path d="M14.146,4.1493 L10.394,0.3753 C10.279,0.2583 10.142,0.1963 10.006,0.1963 C9.849,0.1963 9.712,0.2613 9.597,0.3753 L0.175,9.7973 C-0.051,10.0233 -0.066,10.3853 0.175,10.5933 C0.385,10.8343 0.746,10.8183 0.972,10.5933 L10.006,1.5803 L19.019,10.6783 C19.113,10.7723 19.25,10.8253 19.428,10.8253 C19.585,10.8253 19.721,10.7723 19.836,10.6783 C20.046,10.4673 20.062,10.0873 19.836,9.8593 L15.289,5.2923" id="Fill-4" fill="#B2B2B2" mask="url(#mask-4)"></path>
                        </g>
                    </g>
                </g>
            </g>
        </g>
    </g>
</svg>