<svg xmlns="http://www.w3.org/2000/svg" viewBox="0 0 113 31"><defs><style>.a{fill:#424142;}</style></defs><title>asas</title><path class="a" d="M16.63,22.33H6.21l-3.8,8.05H0L13.9,1.58H16l3.89,28.8H17.64ZM7.2,20.21h9.15L14.46,4.87Z"/><path class="a" d="M33.7,24.94q.3-2.14-2.61-3.82L30,20.5l-2-1.1q-3.24-1.92-3-5A5.77,5.77,0,0,1,27,10.23a7,7,0,0,1,4.78-1.65,5.77,5.77,0,0,1,4.35,1.81,5.79,5.79,0,0,1,1.35,4.46H35.34a4.06,4.06,0,0,0-.87-3,3.56,3.56,0,0,0-2.76-1.19,4.66,4.66,0,0,0-3.11,1,4,4,0,0,0-1.52,2.71c-.16,1.31.57,2.43,2.17,3.35l3.46,1.93q3.39,2,3.19,5.22a5.89,5.89,0,0,1-2.22,4.35,7.29,7.29,0,0,1-5,1.58A6.39,6.39,0,0,1,24.12,29a5.48,5.48,0,0,1-1.53-4.5l2.19,0a4,4,0,0,0,1,3.06,4.08,4.08,0,0,0,3.05,1.11,5.4,5.4,0,0,0,3.32-1A3.91,3.91,0,0,0,33.7,24.94Z"/><path class="a" d="M49.77,30.38a6.19,6.19,0,0,1,0-1.49l.17-1.48c-1.75,2.31-3.8,3.43-6.15,3.38A4.72,4.72,0,0,1,40,29.12a5.78,5.78,0,0,1-1.11-4.2,6.67,6.67,0,0,1,2.69-5.13,10,10,0,0,1,6.23-1.89l3.64,0,.43-3a4.22,4.22,0,0,0-.64-3.11,3.53,3.53,0,0,0-2.92-1.18A4.83,4.83,0,0,0,45,11.75a5.39,5.39,0,0,0-1.81,3.12l-2.15,0a7,7,0,0,1,2.5-4.55,7.4,7.4,0,0,1,5-1.74,5.49,5.49,0,0,1,4.31,1.74A6,6,0,0,1,54,15L52.2,25.89A13.22,13.22,0,0,0,52,28l0,2.12,0,.24Zm-5.58-1.69a6,6,0,0,0,3.41-1A7.94,7.94,0,0,0,50.2,25l.89-5.22-3.05,0a8.1,8.1,0,0,0-4.84,1.33,4.93,4.93,0,0,0-2.1,3.67,4,4,0,0,0,.63,2.88A3,3,0,0,0,44.19,28.69Z"/><path class="a" d="M67.21,24.94q.3-2.14-2.61-3.82l-1.12-.62-2-1.1q-3.24-1.92-3-5a5.77,5.77,0,0,1,2.1-4.21,7,7,0,0,1,4.78-1.65,5.81,5.81,0,0,1,4.36,1.81A5.83,5.83,0,0,1,71,14.85H68.85a4.06,4.06,0,0,0-.87-3,3.55,3.55,0,0,0-2.76-1.19,4.66,4.66,0,0,0-3.11,1,4,4,0,0,0-1.52,2.71c-.16,1.31.57,2.43,2.17,3.35l3.46,1.93q3.39,2,3.19,5.22a5.89,5.89,0,0,1-2.22,4.35,7.29,7.29,0,0,1-5,1.58A6.39,6.39,0,0,1,57.63,29a5.48,5.48,0,0,1-1.53-4.5l2.19,0a4,4,0,0,0,1,3.06,4.08,4.08,0,0,0,3.05,1.11,5.4,5.4,0,0,0,3.32-1A3.91,3.91,0,0,0,67.21,24.94Z"/><path class="a" d="M89.23,8.6a5.1,5.1,0,0,1,4.89,3.27L96.25,0h2.2L93.17,30.38h-2l.52-2.73a6.58,6.58,0,0,1-5.72,3.14,4.7,4.7,0,0,1-4.08-2.1,9.93,9.93,0,0,1-1.3-5.85A36.58,36.58,0,0,1,81,18.43q.74-5,2.8-7.47A6.49,6.49,0,0,1,89.23,8.6ZM82.91,20.72a23.23,23.23,0,0,0-.16,3.4q.19,4.51,3.73,4.57c2.14.06,3.94-1.05,5.4-3.3l1.86-11.15c-.66-2.29-2.06-3.49-4.21-3.58q-5.34-.18-6.37,8Z"/><path class="a" d="M108.74,30.38a7.42,7.42,0,0,1,0-1.49l.18-1.48c-1.76,2.31-3.81,3.43-6.15,3.38a4.73,4.73,0,0,1-3.84-1.67,5.78,5.78,0,0,1-1.11-4.2,6.7,6.7,0,0,1,2.69-5.13,10,10,0,0,1,6.23-1.89l3.64,0,.43-3a4.17,4.17,0,0,0-.64-3.11,3.52,3.52,0,0,0-2.92-1.18,4.83,4.83,0,0,0-3.33,1.13,5.39,5.39,0,0,0-1.81,3.12l-2.15,0a7.09,7.09,0,0,1,2.5-4.55,7.4,7.4,0,0,1,5-1.74,5.49,5.49,0,0,1,4.31,1.74A6,6,0,0,1,113,15l-1.8,10.92A13.22,13.22,0,0,0,111,28l0,2.12,0,.24Zm-5.58-1.69a6,6,0,0,0,3.41-1,7.94,7.94,0,0,0,2.6-2.76l.89-5.22-3,0a8.14,8.14,0,0,0-4.85,1.33,4.89,4.89,0,0,0-2.09,3.67,4,4,0,0,0,.62,2.88A3,3,0,0,0,103.16,28.69Z"/></svg>