<?xml version="1.0" encoding="utf-8"?>
<svg xmlns="http://www.w3.org/2000/svg">
<symbol id="360" viewBox="0 0 29 10"><path d="M2.8 4.1h1c.4 0 .7-.1 1-.3.2-.3.3-.6.4-1 0-.3 0-.5-.2-.7-.1-.3-.4-.4-.7-.4-.3 0-.5.1-.8.3s-.3.4-.4.6H.9c0-.5.2-1 .5-1.4S2.1.5 2.6.3C3.2.1 3.7 0 4.3 0c1 0 1.7.3 2.3.8s.8 1.1.8 2c-.1.8-.6 1.6-1.8 2.1.4.2.8.5 1 .9s.3.8.3 1.3c0 .6-.2 1.1-.6 1.6-.3.4-.8.7-1.4.9S3.7 10 3 10c-.6 0-1.1-.1-1.6-.4s-.8-.6-1-1S0 7.7 0 7.1h2.2c0 .3.1.6.3.8.2.2.4.3.8.3s.7-.1 1-.3c.2-.2.4-.5.4-.9.1-.4 0-.7-.2-.9s-.4-.4-.8-.4H2.5l.3-1.6zM14.4 0l-.2 1.8H14c-.8 0-1.4.2-2 .6-.6.4-1 1-1.4 1.7.5-.5 1.2-.8 1.9-.8.5 0 1 .2 1.3.4s.6.7.8 1.2c.2.5.2 1.1.2 1.6 0 .6-.2 1.2-.5 1.7s-.7.9-1.2 1.2c-.6.4-1.2.5-1.9.5s-1.2-.2-1.7-.5-.9-.8-1.1-1.4c-.2-.6-.3-1.2-.2-2l.1-.8c.1-1 .5-1.9 1-2.7.5-.8 1.2-1.4 2-1.9C12.1.2 13 0 14 0h.4zm-2.7 5c-.5 0-.9.2-1.3.7-.1.6-.1 1-.1 1.3 0 .4.1.7.2.9.2.2.4.3.7.3.4 0 .8-.2 1.1-.7s.4-1 .3-1.5c0-.3-.1-.6-.3-.8-.1-.1-.3-.2-.6-.2zm6.9 5c-.5 0-1-.1-1.4-.4-.4-.2-.7-.6-.9-1.1-.2-.5-.3-1-.4-1.6v-1l.3-1.7c.2-1.4.6-2.4 1.3-3.1C18.2.3 19 0 20.1 0c.8 0 1.5.3 2 .9.5.6.7 1.3.8 2.2v1l-.3 1.7c-.2 1.4-.7 2.4-1.3 3.1-.8.8-1.6 1.1-2.7 1.1zm2-6.2c0-.3.1-.6.1-.8 0-.8-.3-1.2-.8-1.3-.8 0-1.3.6-1.5 2L18 6.1V7c0 .8.2 1.2.8 1.3.8 0 1.3-.7 1.5-2.1l.3-2.4zm3.9-1.4c.1-.7.3-1.3.8-1.7.4-.5 1-.7 1.7-.7s1.2.3 1.5.7.5 1 .5 1.7v.4c-.1.8-.3 1.4-.8 1.8-.5.4-1 .7-1.7.6-.6 0-1.1-.2-1.5-.7-.4-.4-.5-1-.5-1.7v-.4zm1.1.5v.5c0 .3.1.5.3.6.1.2.3.2.6.2s.6-.1.9-.4c.2-.3.4-.6.5-1l.1-.7v-.3c-.2-.5-.5-.8-1-.8-.3 0-.6.1-.9.3-.2.2-.4.6-.5 1v.6z" fill="#fff"/>
</symbol>
<symbol id="arrow-anchor-2"><path data-name="Rectangle 13 copy 3" d="M8.591.006h1.226v35.623H8.591V.006zm8.8 29.771l.613 1.054L8.983 36l-.613-1.054zm-8.488 6.16l.6-1.032-8.9-5.061-.6 1.031z" fill="#cc1616" fill-rule="evenodd"/>
</symbol>
<symbol id="arrow-anchor"><path data-name="Rectangle 13 copy 3" d="M8.591.006h1.226v35.623H8.591V.006zm8.8 29.771l.613 1.054L8.983 36l-.613-1.054zm-8.488 6.16l.6-1.032-8.9-5.061-.6 1.031z" fill="#cc1616" fill-rule="evenodd"/>
</symbol>
<symbol id="arrow-bottom" viewBox="0 0 100 51.5"><path d="M97.8 2.1c-2.9-2.7-7.7-2.7-10.6 0L50.1 36.3 12.8 2C9.9-.7 5.1-.7 2.2 2c-2.9 2.7-2.9 7.1 0 9.8l41 37.7c1.9 1.8 4.6 2.4 7 1.8 2.4.4 4.9-.2 6.7-1.9l40.9-37.6c2.9-2.7 2.9-7 0-9.7z" fill-rule="evenodd" clip-rule="evenodd"/>
</symbol>
<symbol id="arrow-menu" viewBox="0 0 100 100"><path d="M78.6 44s-2.3-3-3.5-4.2L36.4 4.2C31.8 0 24.6 0 20 4.2c-4.4 4.3-4.4 11.3 0 15.6l32.7 29.8-33 30.2c-4.5 4.4-4.5 11.5 0 16 4.7 4.3 12 4.3 16.6 0L77 58.4c4-4 3.2-11.5 1.6-14.6z" fill-rule="evenodd" clip-rule="evenodd"/>
</symbol>
<symbol id="arrow" viewBox="-314 341 100 50"><path d="M-263.9 391c-.8 0-2.1-.4-2.9-1.2l-45.9-41.5c-1.7-1.7-1.7-4.1-.4-5.8 1.7-1.7 4.2-1.7 5.8-.4l43.4 39 43-39c1.7-1.7 4.2-1.2 5.8.4s1.3 4.1-.4 5.8l-45.9 41.4c-.4.9-1.6 1.3-2.5 1.3z"/>
</symbol>
<symbol id="capacete" viewBox="0 0 44.3 38.1"><style>.st0{fill:#3d3d3e}</style><path class="st0" d="M16.4 38.1h-2c-1.3 0-2.3-1-2.3-2.3v-2.5c.1-.5.6-.9 1.1-.8.5.1.9.6.8 1.1v2.2c0 .2.1.3.3.3h2c.2 0 .3-.1.3-.3v-2.1c-.1-.5.3-1.1.8-1.2.5-.1 1.1.2 1.2.8v2.5c.1 1.2-1 2.3-2.2 2.3z"/><path class="st0" d="M9.2 33.9c-3.4 0-5.9-2.3-7-4.5C1.2 27.5 0 25 0 21.5 0 15.8 2.4 10.1 6.6 6c4.1-4 9.6-6.2 15.2-6C29.2.2 36 4.3 39.6 10.7c.3.5.1 1.1-.4 1.4-.5.3-1.1.1-1.4-.4-3.2-5.8-9.3-9.5-16-9.7C16.6 1.9 11.7 3.8 8 7.5c-3.8 3.7-6 8.9-6 14.1 0 3 1.1 5.1 2 6.9.3.7 2 3.5 5.2 3.5l29.8-.3s1.8-.1 1.8-2.2l-.2-2.7c0-.6.4-1 .9-1.1.6 0 1 .4 1.1.9l.2 2.8c-.1 3.2-2.6 4.2-3.8 4.2l-29.8.3z"/><path class="st0" d="M37.2 28.7c-.8 0-1.6 0-2.7-.1h-.9c-2.1-.1-6-.1-10-.1-3.3 0-6.7 0-9.1-.1-2.4-.1-4.5-2.1-5-5-.2-.9-.3-1.7-.5-2.5-.4-1.8-.1-3.6.9-4.9.7-1.1 1.8-1.8 3-1.9l24.5-3.7c2.3-.4 4.3 1.3 5.1 4.4l1.8 6.4c.4 1.7.1 3.5-.9 5-.9 1.4-2.3 2.2-3.7 2.4-1 .1-1.8.1-2.5.1zm-25.8-5.6c.3 1.9 1.7 3.3 3.1 3.3 2.4.1 5.8.1 9.1.1 4.1 0 8 0 10.1.1h.9c2 .1 3.1.1 4.8 0 .8-.1 1.7-.7 2.3-1.5.7-1 .9-2.2.6-3.3l-1.8-6.4c-.3-1-1-3.3-2.9-3l-24.5 3.7c-.8.1-1.4.7-1.7 1.1-.6.9-.8 2.1-.6 3.4.2.8.4 1.6.6 2.5z"/><path class="st0" d="M14.7 24c-.6 0-1.2-.2-1.7-.5-.7-.4-1.1-1.1-1.3-1.9-.1-.8 0-1.6.5-2.2.5-.6 1.1-1.1 1.9-1.2 1.6-.3 3.2.7 3.5 2.3.1.8 0 1.6-.5 2.2-.5.6-1.1 1.1-1.9 1.2-.1.1-.3.1-.5.1zm.1-3.8h-.2c-.3.1-.5.2-.7.4-.1.2-.2.4-.2.7 0 .2.2.4.4.6.2.1.5.2.8.1.3-.1.5-.2.7-.4.1-.2.2-.4.2-.7-.1-.4-.5-.7-1-.7zm11.7 8.1c-.2 0-.4-.1-.5-.2l-3.8-2.5c-1.9-1.2-3.2-3.2-3.6-5.4l-1-5.3c-.1-.5.3-1.1.8-1.2.5-.1 1.1.3 1.2.8l1 5.3c.3 1.7 1.3 3.1 2.8 4.1l3.8 2.5c.5.3.6.9.3 1.4-.3.3-.7.5-1 .5z"/>
</symbol>
<symbol id="chave" viewBox="0 0 47.6 20.7"><path d="M44.4 20.7h-9.6c-1.8 0-3.2-1.4-3.2-3.2v-.3c0-.7-.5-1.2-1.2-1.2H4.7c-.9 0-1.7-.3-2.3-1L.9 13.5C-.2 12.4-.3 10.6.6 9.3l2.5-3.4c.6-.8 1.6-1.3 2.6-1.3l.5.1.9.5 1.7-.6h.5l2.5.5 2.2-.4h.5l2.6.7 2.3-.7h.6l1.9.6 1.9-.5h.6l1.5.4.9-.4.4-.1h3.4c.7 0 1.2-.5 1.2-1.2v-.3C31.8 1.4 33.2 0 35 0h9.6c1.8 0 3.2 1.4 3.2 3.2v14.3c-.2 1.7-1.6 3.2-3.4 3.2zM2.3 12.1l1.5 1.5c.3.3.6.4.9.4h25.7c1.8 0 3.2 1.4 3.2 3.2v.3c0 .7.5 1.2 1.2 1.2h9.6c.7 0 1.2-.5 1.2-1.2V3.2c0-.7-.5-1.2-1.2-1.2h-9.6c-.7 0-1.2.5-1.2 1.2v.3c0 1.8-1.4 3.2-3.2 3.2h-3.2l-1.1.5h-.7L24 6.7l-1.9.5h-.6l-1.9-.5-2.3.7h-.6l-2.6-.7-2.1.4h-.4l-2.4-.4-1.8.6h-.9l-1-.6c-.3 0-.5.2-.7.4l-2.5 3.4c-.4.5-.4 1.2 0 1.6zM42.1 16h-3c-.9 0-1.6-.7-1.6-1.6V6.2c0-.9.7-1.6 1.6-1.6h3c.9 0 1.6.7 1.6 1.6v8.3c0 .8-.7 1.5-1.6 1.5zm-2.5-2h2.1V6.6h-2.1V14zm-9.5-1.4H4.5c-.6 0-1-.4-1-1s.4-1 1-1h25.7c.6 0 1 .4 1 1s-.5 1-1.1 1z" fill="#3d3d3e"/>
</symbol>
<symbol id="check" viewBox="0 0 100 100"><path d="M97.4 18.5c-3.5-3.5-9.1-3.5-12.5 0L41.1 62.6l-26-26.1C11.6 33 6 33 2.6 36.5c-3.5 3.5-3.5 9.1 0 12.6l32.2 32.4c3.5 3.5 9.1 3.5 12.5 0l50.1-50.4c3.5-3.5 3.5-9.1 0-12.6z" fill-rule="evenodd" clip-rule="evenodd"/>
</symbol>
<symbol id="close" viewBox="0 0 100 100"><path d="M99.9 3.2L96.7 0 50 46.8 3.3 0 .1 3.2 46.8 50 .1 96.8l3.2 3.2L50 53.2 96.7 100l3.2-3.2L53.2 50z" fill-rule="evenodd" clip-rule="evenodd"/>
</symbol>
<symbol id="contato" viewBox="0 0 200 153.9"><path d="M190.6 0H68.4C63.2 0 59 4.2 59 9.4v76.2c0 5.2 4.2 9.4 9.4 9.4h122.2c5.2 0 9.4-4.2 9.4-9.4V9.4c0-5.2-4.2-9.4-9.4-9.4zM68.2 2h122.4c2 0 3.8.8 5.1 2-.2 0-.3.1-.5.2l-65.8 52.7L63.6 4.2c-.2-.1-.3-.2-.5-.2 1.3-1.2 3.1-2 5.1-2zM198 85.2c0 4.1-3.3 7.8-7.4 7.8H68.2c-4.1 0-7.2-3.7-7.2-7.8V9.4c0-1.5.3-3 1.1-4.2.1.2.1.4.2.5L128.8 59h1.2l66.4-53.2c.2-.1.2-.3.3-.5.8 1.2 1.3 2.6 1.3 4.1v75.8zM65.6 153.9c-18.7 0-39.9-23.5-53-50.4C5.1 88.4.7 73.1.1 60.6c-.7-14.4 3.6-24.4 12.5-29l5.1-2.5c3.8-1.9 8.4-.3 10.3 3.4l12.2 23.8c.9 1.9 1.1 4 .5 5.9-.7 2-2 3.6-3.9 4.5L32 69.1c-3.8 2-3.8 11.8 3.8 26.6 5.6 11 14.4 21.3 19.6 18.8.2-.1 2.1-1 4.9-2.4 3.7-1.8 8.3-.3 10.3 3.4l12.3 23.7c1 1.9 1.1 4 .5 6-.7 2-2.1 3.6-3.9 4.5-3.1 1.5-4.7 2.3-4.9 2.4-3.1 1.2-6.1 1.8-9 1.8zM21.1 30.3c-.8 0-1.7.2-2.5.6l-5.1 2.5c-18.1 9.4-12.2 42.5.8 69.3 19.6 40.1 44.6 54.3 59.2 47.6.2-.1 1.9-.9 4.9-2.4 1.4-.7 2.4-1.9 2.9-3.4s.4-3.1-.4-4.4l-12.3-23.7c-1.4-2.7-4.8-3.9-7.6-2.5-1.4.7-4.7 2.3-5 2.4-6.7 3.2-16-7.6-22.2-19.7-6.1-12-9.4-25.8-2.9-29.3l4.8-2.4c1.4-.7 2.4-1.9 2.9-3.3.5-1.5.4-3-.3-4.4L26.2 33.4c-1-2-3-3.1-5.1-3.1z" fill="#3d3d3e"/>
</symbol>
<symbol id="facebook" viewBox="0 0 100 100"><path d="M57.4 30v-8c0-3.9 2.6-4.8 4.4-4.8H73V.1L57.6 0c-17.1 0-21 12.8-21 21v9h-9.9v20h10v50h20V50h14.8l.7-7.9L73.3 30H57.4z"/>
</symbol>
<symbol id="half-color" viewBox="0 0 100 100"><path d="M50 0v100c27.6 0 50-22.4 50-50S77.6 0 50 0z"/>
</symbol>
<symbol id="honda" viewBox="0 0 1000 1000"><path d="M286.8 456.8l489.5-133c65.6-13.3 76.5-47.4 89.7-71.5l28.3-49.9-803.7 266c-31.6 10.8-18.3 33.2-10 40.7l12.5 10.8 180.3-46.5c-4.2-.8-5-10.8.8-13.3 6.7-1.7 12.6-3.3 12.6-3.3zm-183.7 73.1l712.2-182-41.5 60.7c-10 13.3-23.3 29.9-74.8 39.9 0 0-331.6 62.3-337.4 64.8-6.6 2.5-5 12.5-.8 13.3l-214.4 43.2-43.3-39.9zm101.4 93.9l-49.9-46.5 570.1-104.7s-25.8 29.1-45.7 49c-18.3 18.3-32.4 25.8-62.3 31.6 0 0-146.3 21.6-152.9 24.1-6.6 2.5-7.5 10.8-.8 13.3l-258.5 33.2zm408.8 59.8L482.9 603l-268.4 30.8 54.8 49.8"/><path d="M162.9 683.6s-2.5-19.1-34.1-49C117.2 623.8 35 541.5 35 541.5c-30.7-25.8-54.8-98.9 29.9-133C299.2 313 687.3 157.6 738.8 136 879.3 76.2 964 33 964 33c-29.9 84.8-46.5 124.6-105.5 146.3C556 287.2 80.7 453.4 80.7 453.4c-25.8 10.8-41.5 37.4-10 69l175.3 162-83.1-.8zM148 731.8c0-5.8-4.2-9.1-10-9.1l-12.5-1.7v-14.1h88.9V721l-12.5 1.7c-5.8 0-10 3.3-10 10v58.2c0 5.8 2.5 10 10 10l12.5 1.7v15h-88.9v-15l13.3-1.7c5.8 0 10-4.2 10-9.1v-18.3h-69v18.3c0 5.8 2.5 8.3 9.1 9.1l13.3 1.7v15H12.5v-15l13.3-1.7c5.8 0 9.1-4.2 9.1-9.1v-59c0-5.8-3.3-10-9.1-10L12.5 721v-14.1h88.9V721l-13.3 1.7c-5.8 0-9.1 4.2-9.1 9.1v19.1h69v-19.1zm345.7-18.3l56.5 75.6V731c0-5.8-4.2-8.3-10-8.3l-12.5-1.7v-14.1h69.8V721l-10.8 1.7c-5.8 0-10 3.3-10 9.1v85.6H521c-5 0-8.3-2.5-10.8-6.6L453 735.2v57.3c0 5.8 4.2 9.1 10 9.1l11.6.8v15H404v-15l13.3-1.7c6.6-.8 9.1-4.2 9.1-10v-59c0-5.8-3.3-8.3-9.1-9.1l-12.5-1.7v-14.1h78.1c6.6 0 8.3 2.5 10.8 5.8v.9zm-92.3 49.1c0-39.1-34.9-61.5-91.4-60.7-56.5-.8-90.6 19.9-90.6 59s34.9 60.7 91.4 59.8c55.7.9 89.8-19.1 90.6-58.1zm-53.1 4.1c0 21.6-13.3 29.9-31.6 29.9h-14.1c-18.3 0-29.1-10-29.1-29.9v-10c0-19.1 10.8-34.9 30.7-34.9h11.6c19.9 0 32.4 14.1 32.4 34.9l.1 10zm258.4 50.7v-15l13.3-.8c5.8-.8 9.1-3.3 9.1-9.1v-60.7c0-5.8-3.3-8.3-8.3-8.3-4.2-.8-12.5-1.7-12.5-1.7v-14.1h116.3c36.6 0 66.5 19.1 66.5 55.7 0 37.4-31.6 55.7-66.5 55.7l-117.9-1.7zm66.5-21.6h39.9c11.6 0 25.8-3.3 25.8-34.1s-14.1-34.9-25.8-34.9h-39.9v69z"/><path d="M897.5 763.4l-22.4-34.9-20.8 34.9h43.2zm16.7 25.8l-4.2-6.6h-68.1l-5.8 9.1c-.8.8-.8 2.5-.8 3.3 0 3.3 3.3 5.8 7.5 5.8l10 .8v15h-72.3v-15s7.5-.8 13.3-.8c6.6-.8 9.1-2.5 11.6-6.6l37.4-59.8c.8-1.7 1.7-3.3 1.7-5.8 0-4.2-3.3-5-7.5-5.8-5.8-.8-17.5-2.5-17.5-2.5v-15h83.9c5.8 0 8.3 1.7 11.6 5.8l3.3 5 49 75.6c2.5 4.2 7.5 7.5 13.3 7.5l7.5.8v15H895v-15l15-.8s5.8-.8 6.6-3.3c.9-3.4-2.4-6.7-2.4-6.7zM45.7 929H25.6l-5.2 11.4h-7.6L36 890.5l22.4 49.9h-7.7l-5-11.4zm-2.9-6.6l-7-16-7.3 16h14.3zm70.5-21.9l-5.7 3.4c-1.1-1.9-2.1-3.1-3.1-3.6-1-.7-2.3-1-3.9-1-2 0-3.6.6-4.9 1.7-1.3 1.1-1.9 2.5-1.9 4.1 0 2.3 1.7 4.1 5.1 5.5l4.7 1.9c3.8 1.5 6.6 3.4 8.3 5.6 1.8 2.2 2.6 4.9 2.6 8.2 0 4.3-1.4 7.9-4.3 10.7-2.9 2.8-6.5 4.3-10.8 4.3-4.1 0-7.4-1.2-10.1-3.6-2.6-2.4-4.2-5.8-4.9-10.2l7.2-1.6c.3 2.8.9 4.7 1.7 5.7 1.5 2 3.6 3 6.4 3 2.2 0 4-.7 5.5-2.2 1.5-1.5 2.2-3.4 2.2-5.6 0-.9-.1-1.8-.4-2.5-.3-.8-.7-1.5-1.2-2.1-.5-.6-1.2-1.2-2.1-1.8-.8-.6-1.9-1.1-3-1.6l-4.5-1.9c-6.4-2.7-9.6-6.7-9.6-11.9 0-3.5 1.3-6.5 4-8.8 2.7-2.4 6-3.6 10.1-3.6 5.4 0 9.6 2.6 12.6 7.9zm59.5 28.5h-20.1l-5.2 11.4h-7.6l23.2-49.9 22.4 49.9h-7.7l-5-11.4zm-2.9-6.6l-7-16-7.3 16h14.3zm70.5-21.9l-5.7 3.4c-1.1-1.9-2.1-3.1-3.1-3.6-1-.7-2.3-1-3.9-1-2 0-3.6.6-4.9 1.7-1.3 1.1-1.9 2.5-1.9 4.1 0 2.3 1.7 4.1 5.1 5.5l4.7 1.9c3.8 1.5 6.6 3.4 8.3 5.6 1.8 2.2 2.6 4.9 2.6 8.2 0 4.3-1.4 7.9-4.3 10.7-2.9 2.8-6.5 4.3-10.8 4.3-4.1 0-7.4-1.2-10.1-3.6-2.6-2.4-4.2-5.8-4.9-10.2l7.2-1.6c.3 2.8.9 4.7 1.7 5.7 1.5 2 3.6 3 6.4 3 2.2 0 4-.7 5.5-2.2 1.5-1.5 2.2-3.4 2.2-5.6 0-.9-.1-1.8-.4-2.5-.3-.8-.7-1.5-1.2-2.1-.5-.6-1.2-1.2-2.1-1.8-.8-.6-1.9-1.1-3-1.6l-4.5-1.9c-6.4-2.7-9.6-6.7-9.6-11.9 0-3.5 1.3-6.5 4-8.8 2.7-2.4 6-3.6 10.1-3.6 5.4 0 9.6 2.6 12.6 7.9zm74.2 39.9v-46.9h9.8c4.7 0 8.4.5 11.2 1.4 2.9.9 5.6 2.5 8 4.7 4.8 4.4 7.3 10.2 7.3 17.4 0 7.2-2.5 13-7.6 17.5-2.5 2.2-5.2 3.8-8 4.7-2.6.9-6.3 1.3-11 1.3h-9.7zm7.1-6.6h3.2c3.2 0 5.8-.3 7.9-1 2.1-.7 4-1.8 5.7-3.4 3.5-3.2 5.2-7.3 5.2-12.4 0-5.1-1.7-9.3-5.2-12.5-3.1-2.8-7.7-4.3-13.7-4.3h-3.2v33.6zm85.9-4.8h-20.1l-5.2 11.4h-7.6l23.2-49.9 22.4 49.9h-7.7l-5-11.4zm-2.9-6.6l-7-16-7.3 16h14.3zm93-28.9v40.3h13.8v6.7h-20.9v-46.9h7.1zm50.2 0v46.9h-7.1v-46.9h7.1zm33.9 46.9v-46.9h7c3.1 0 5.6.2 7.5.7 1.9.5 3.5 1.3 4.8 2.5 1.3 1.2 2.4 2.7 3.1 4.5.8 1.8 1.2 3.6 1.2 5.5 0 3.4-1.3 6.2-3.9 8.5 2.5.9 4.4 2.3 5.9 4.5 1.5 2.1 2.2 4.6 2.2 7.4 0 3.7-1.3 6.8-3.9 9.3-1.6 1.6-3.3 2.6-5.2 3.3-2.1.6-4.8.9-8 .9h-10.7zm7-26.8h2.2c2.6 0 4.6-.6 5.8-1.8 1.2-1.2 1.8-2.9 1.8-5.1 0-2.2-.6-3.9-1.9-5-1.2-1.1-3.1-1.7-5.5-1.7h-2.5v13.6zm0 20.2h4.4c3.2 0 5.6-.6 7-1.9 1.6-1.4 2.4-3.1 2.4-5.2 0-2-.8-3.7-2.3-5.1-1.5-1.4-4.1-2-7.9-2h-3.6v14.2zm78.2-33.7h-18.8v11.3h18.3v6.7h-18.3v15.7H667v6.7h-25.9v-46.9H667v6.5zm47.8 20.3l14.5 20h-8.7l-13.4-19.2H706v19.2h-7.1v-46.9h8.3c6.2 0 10.7 1.2 13.4 3.5 3 2.6 4.6 6 4.6 10.3 0 3.3-1 6.2-2.9 8.6-1.9 2.3-4.4 3.8-7.5 4.5zM706 915h2.2c6.7 0 10.1-2.6 10.1-7.7 0-4.8-3.3-7.2-9.8-7.2H706V915zm53 25.4v-46.9h9.8c4.7 0 8.4.5 11.2 1.4 2.9.9 5.6 2.5 8 4.7 4.8 4.4 7.3 10.2 7.3 17.4 0 7.2-2.5 13-7.6 17.5-2.5 2.2-5.2 3.8-8 4.7-2.6.9-6.3 1.3-11 1.3H759zm7.1-6.6h3.2c3.2 0 5.8-.3 7.9-1 2.1-.7 4-1.8 5.7-3.4 3.5-3.2 5.2-7.3 5.2-12.4 0-5.1-1.7-9.3-5.2-12.5-3.1-2.8-7.7-4.3-13.7-4.3H766v33.6zM852 929h-20.1l-5.2 11.4h-7.6l23.2-49.9 22.4 49.9H857l-5-11.4zm-2.9-6.6l-7-16-7.3 16h14.3zm44.1 18v-46.9h9.8c4.7 0 8.4.5 11.2 1.4 2.9.9 5.6 2.5 8 4.7 4.8 4.4 7.3 10.2 7.3 17.4 0 7.2-2.5 13-7.6 17.5-2.5 2.2-5.2 3.8-8 4.7-2.6.9-6.3 1.3-11 1.3h-9.7zm7-6.6h3.2c3.2 0 5.8-.3 7.9-1 2.1-.7 4-1.8 5.7-3.4 3.5-3.2 5.2-7.3 5.2-12.4 0-5.1-1.7-9.3-5.2-12.5-3.1-2.8-7.7-4.3-13.7-4.3h-3.2v33.6zm86.6-33.7H968v11.3h18.3v6.7H968v15.7h18.8v6.7h-25.9v-46.9h25.9v6.5z"/>
</symbol>
<symbol id="instagram" viewBox="0 0 100 100"><path d="M50 9.1c13.3 0 14.9.1 20.2.3 4.9.2 7.6 1 9.3 1.7 2.3.9 4 2 5.8 3.8 1.8 1.8 2.8 3.4 3.8 5.8.7 1.8 1.5 4.4 1.7 9.3.2 5.3.3 6.9.3 20.2s-.2 14.8-.4 20.1c-.2 4.9-1 7.6-1.7 9.3-.9 2.3-2 4-3.8 5.8-1.7 1.8-3.4 2.8-5.8 3.8-1.8.7-4.4 1.5-9.3 1.7-5.3.2-6.9.3-20.2.3s-14.9-.3-20.2-.5c-4.9-.2-7.6-1-9.3-1.7-2.3-.9-4-2-5.8-3.8-1.8-1.7-2.8-3.4-3.8-5.8-.7-1.8-1.5-4.4-1.7-9.3 0-5.4-.1-7-.1-20.2s.1-14.9.3-20.2c.2-4.9 1-7.6 1.7-9.3.9-2.3 2-4 3.8-5.8 1.7-1.8 3.4-2.8 5.8-3.8 1.8-.7 4.4-1.5 9.3-1.7H50M50 0C36.5 0 34.8.1 29.4.3c-5.3.2-9 1.1-12.2 2.3-3.3 1.3-6.1 3-8.9 5.8S3.8 14 2.5 17.3C1.3 20.5.4 24.1.2 29.5 0 34.8 0 36.5 0 50s.1 15.2.3 20.6c.2 5.3 1.1 9 2.3 12.2 1.3 3.3 3 6.1 5.8 8.9 2.8 2.8 5.6 4.5 8.9 5.8 3.2 1.2 6.8 2.1 12.2 2.3s7.1.2 20.5.2 15.2-.1 20.6-.3c5.3-.2 9-1.1 12.2-2.3 3.3-1.3 6.1-3 8.9-5.8 2.8-2.8 4.5-5.6 5.8-8.9 1.2-3.2 2.1-6.8 2.3-12.2.2-5.4.3-7.1.3-20.6s-.1-15.2-.3-20.6c-.2-5.3-1.1-9-2.3-12.2-1.3-3.3-3-6.1-5.8-8.9-2.8-2.8-5.6-4.5-8.9-5.8C79.6 1.3 76 .4 70.6.2 65.1.1 63.4 0 50 0z"/><path d="M50 24c-14 0-25.5 11.5-25.5 25.6S36 75.1 50 75.1s25.6-11.5 25.6-25.6C75.5 35.5 64 24 50 24zm0 42c-9.2 0-16.6-7.5-16.6-16.6S41 32.9 50 32.9s16.6 7.5 16.6 16.6C66.5 58.5 59.1 66 50 66z"/><circle cx="76.5" cy="23" r="6"/>
</symbol>
<symbol id="ipva" viewBox="0 0 47.8 48.9"><style>.st0{fill:#3d3d3e}</style><path class="st0" d="M23.9 48.9C10.7 48.9 0 37.9 0 24.4S10.7 0 23.9 0s23.9 11 23.9 24.4-10.7 24.5-23.9 24.5zm0-46.9C11.8 2 2 12.1 2 24.4s9.8 22.4 21.9 22.4 21.9-10.1 21.9-22.4S36 2 23.9 2z"/><text transform="translate(7.226 29.395)" class="st0" font-size="15.881" font-family="SourceSansPro-Black">IPVA</text>
</symbol>
<symbol id="location" viewBox="0 0 100 100"><path class="st0" d="M50 0C31.8 0 16.9 14.8 16.9 33.1c0 7.3 4.7 19.3 14.3 36.6C38 81.9 44.7 92.1 45 92.6l5 7.4 4.9-7.5c.3-.4 7-10.6 13.8-22.9C78.3 52.3 83 40.3 83 33c.1-18.2-14.8-33-33-33zm0 50c-9.5 0-17.1-7.7-17.1-17.1 0-9.5 7.7-17.1 17.1-17.1 9.5 0 17.1 7.7 17.1 17.1C67.1 42.3 59.5 50 50 50zm0 0"/>
</symbol>
<symbol id="menu-dealership" viewBox="0 0 100 100"><path d="M96.334 37.261H69.245V28.67h12.39a1.81 1.81 0 0 0 1.802-1.818V6.664c0-1.006-.808-1.82-1.802-1.82H17.766c-.996 0-1.804.814-1.804 1.82v20.188a1.81 1.81 0 0 0 1.804 1.818h12.391v8.591H3.066c-.997 0-1.805.813-1.805 1.819v57.743c0 1.009.808 1.822 1.805 1.822h93.268c.996 0 1.804-.813 1.804-1.822V39.081c0-1.007-.808-1.82-1.804-1.82zM19.569 25.029V8.485h60.262v16.544H19.569zm46.068 3.641v8.591H33.763V28.67h31.874zm22.555 66.337H51.504V88.17h36.688v6.837zm-5.949-13.481v3.004h-24.79v-3.004h24.79zm-18.317-3.639V53.933h11.851v23.954H63.926zm30.606 17.12h-2.73V86.35a1.813 1.813 0 0 0-1.804-1.819h-4.146v-4.823c0-1.006-.808-1.82-1.805-1.82h-4.665V52.112a1.81 1.81 0 0 0-1.802-1.821H62.119c-.996 0-1.805.816-1.805 1.821v25.774h-4.663c-.996 0-1.804.814-1.804 1.82v4.823H49.7a1.81 1.81 0 0 0-1.803 1.819v8.657H4.87V40.902h89.662v54.105zM14.724 71.786h28.605c.998 0 1.805-.815 1.805-1.82V51.091c0-1.006-.808-1.82-1.805-1.82H14.724c-.995 0-1.803.814-1.803 1.82v18.875c0 1.005.808 1.82 1.803 1.82zm1.804-18.876h24.999v15.235H16.528V52.91z"/>
</symbol>
<symbol id="menu-home"><path d="M33.378 24.371S21.75 12.791 21.174 12.164c-.473-.512-.926-.557-1.077-.557l-.055.001-.052-.001c-.15 0-.604.045-1.078.557-.58.628-12.204 12.207-12.204 12.207v10.416s-.195 2.848 3.521 2.947c1.239.029 2.343.041 3.265.041 1.844 0 2.959-.041 2.959-.041v-9.457l3.588-.049 3.59.049v9.457s1.116.041 2.958.041c.921 0 2.025-.012 3.263-.041 3.718-.1 3.524-2.947 3.524-2.947l.002-10.416zM29.81 35.994a120.375 120.375 0 0 1-4.443.035v-7.754c0-.953-.764-1.725-1.712-1.738l-3.589-.049h-.049l-3.588.049a1.735 1.735 0 0 0-1.713 1.738v7.754a120.636 120.636 0 0 1-4.443-.035c-1.49-.037-1.821-.619-1.832-1.107.007-.049.001-.031.001-.1V25.09c2.31-2.299 10.318-10.284 11.597-11.595 1.278 1.313 9.29 9.296 11.597 11.595v9.697c0 .068-.003.051.003.1-.006.492-.338 1.07-1.829 1.107z"/><path d="M38.625 18.633c-.03-.037-.061-.07-.085-.104-.158-.205-2.604-2.717-5.493-5.669V7.153a2.873 2.873 0 0 0-2.869-2.872 2.872 2.872 0 0 0-2.862 2.731 2878.319 2878.319 0 0 0-3.121-3.177l-.037-.035c-.061-.054-1.509-1.345-3.747-1.548a2.085 2.085 0 0 0-.339-.028h-.16c-.112 0-.223.009-.34.028-2.237.203-3.687 1.494-3.747 1.548l-.035.036C12.508 7.169 1.786 18.087 1.442 18.527l-.08.1c-.4.49-1.462 1.791-.185 3.59.733 1.029 1.587 1.25 2.175 1.25 1.133 0 1.986-.797 2.093-.9.132-.133 13.267-13.365 13.882-13.96a.965.965 0 0 1 .363-.23l.304-.038.28.032a.921.921 0 0 1 .379.236c.601.583 13.14 13.211 13.854 13.932.191.229.923 1.014 2.016 1.014.827 0 1.589-.441 2.258-1.305 1.366-1.76.22-3.154-.156-3.615zm-1.214 2.551c-.186.236-.545.633-.889.633-.303 0-.605-.293-.682-.389l-.072-.082c-.219-.223-2.406-2.424-4.984-5.019-1.126-1.136-2.33-2.347-3.479-3.501-2.754-2.771-5.175-5.207-5.441-5.465a2.651 2.651 0 0 0-1.379-.722l-.022-.04h-.535c-.04 0-.084 0-.128.002l-.298.005-.017.033a2.641 2.641 0 0 0-1.372.722c-.627.608-13.363 13.44-13.892 13.971-.082.08-.491.396-.871.396-.097 0-.393 0-.759-.516-.487-.688-.286-1 .114-1.49.038-.045.073-.09.092-.113.408-.477 8.705-8.942 14.201-14.532.127-.109 1.194-.964 2.752-1.099l.078-.01.073-.007.086.003.082-.002c.024 0 .047.002.078.006l.078.01c1.558.135 2.627.993 2.753 1.099a3791.98 3791.98 0 0 1 4.328 4.408l1.737 1.77V7.153a1.134 1.134 0 0 1 2.269 0v6.367c0 .015-.005.028-.005.044l1.354 1.387c2.478 2.533 4.323 4.432 4.507 4.645l.114.141c.411.499.62.814.129 1.447z"/>
</symbol>
<symbol id="menu-institutional" viewBox="0 0 100 100"><path d="M49.865 2.245C23.112 2.245 1.35 24.009 1.35 50.762c0 .415.051.814.062 1.227-.018.104-.062.2-.062.308 0 .184.053.35.103.515 1.086 25.802 22.353 46.469 48.413 46.469 26.754 0 48.517-21.766 48.517-48.518-.001-26.754-21.764-48.518-48.518-48.518zm33.647 18.883H65.968c-.551 0-1.068.251-1.408.681-.17.21-4.079 5.153-4.903 9.7-.491.99-5.725 1.576-11.859.99.318-8.282.942-17.034 1.568-19.49 2.648-.739 8.367-3.177 13.157-5.3 8.229 2.423 15.457 7.147 20.989 13.419zm-62.587-4.641c1.667 6.504 3.115 13.478 2.896 14.632-.441.74-1.141 2.675-2.442 6.322-1.328 3.721-3.999 11.218-5.25 13.046H4.977c.083-13.622 6.265-25.812 15.948-34zM6.206 61.07c4.214.586 8.644 1.722 9.635 2.877 1.14 1.374 3.691 11.694 5.7 21.614A44.944 44.944 0 0 1 6.206 61.07zm19.541 27.5c0-.115.024-.231.003-.353-1.057-5.518-4.695-23.744-7.16-26.621-2.369-2.764-10.039-3.907-13.088-4.262a43.931 43.931 0 0 1-.369-3.23h11.614c2.128 0 3.406-2.454 8.04-15.449.865-2.424 1.845-5.173 2.137-5.676.372-.615 1.469-2.504-2.888-18.884 7.315-5.168 16.214-8.233 25.83-8.233 2.243 0 4.433.219 6.589.539-3.993 1.699-7.526 3.106-8.253 3.215-1.894 0-3.263 0-4.076 24.432a1.806 1.806 0 0 0 1.577 1.855c1.772.225 4.395.488 7.081.488 4.81 0 9.81-.84 10.427-4.227.508-2.797 2.667-6.036 3.663-7.417h19.521c5.25 7.349 8.376 16.316 8.376 26.015 0 1.218-.089 2.417-.184 3.612-3.735-5.213-9.307-12.547-11.624-13.419-2.413-.905-24.709-1.092-28.226 1.981-2.128 1.865-9.974 10.689-10.478 13.214-.185.921-.673 14.049 4.551 15.614 1.902.572 4.536.169 7.077-.213 1.274-.191 3.102-.459 3.991-.406.021 2.911-1.805 13.937-3.791 24.034-2.036.284-4.104.483-6.222.483-8.879.001-17.143-2.626-24.118-7.092zm34.164 5.919c2.952-15.155 4.049-23.662 3.245-25.265-1.132-2.253-4.228-1.784-7.804-1.249-1.961.294-4.393.661-5.498.328-1.508-.633-2.484-9.218-2.07-11.362.515-1.473 6.797-9.064 9.32-11.27 2.416-1.761 22.106-2.194 24.552-1.345 1.503.753 7.504 8.524 12.202 15.287.006.009.015.015.023.023C90.407 76.889 77 90.564 59.911 94.489z"/>
</symbol>
<symbol id="menu-phone" viewBox="-379 421 100 100"><path d="M-307.2 521h-.4c-6.6-.2-13.1-2.4-20.4-7-8-5-17.2-12.9-28.1-24.4-.3-.3-.5-.6-.8-.8-1.6-1.7-3.2-3.3-8.8-10.3-12.2-14.9-13.2-22.7-13.2-31.3 0-5.3 3-11.1 9-17.3 4.3-4.5 8.6-7.5 8.8-7.6 1.1-.8 2.4-1.2 3.8-1.2 2.2 0 4.2 1.1 5.5 2.9l12.5 18.1c2 2.9 1.6 7.2-1 9.7l-.1.1s-1 .9-7 6.9c-2 2-2.4 4.3-1.3 7.1 1 2.3 2.7 4.1 2.7 4.1l.1.1 9.2 10.1c.3.3.6.7 1 1.2l6.6 6.4s3.4 3.5 7 3.5c1.5 0 2.8-.6 4.1-1.8 6.2-5.8 7.1-6.8 7.1-6.8l.1-.1c1.3-1.3 3.3-2.1 5.3-2.1 1.6 0 3.2.5 4.4 1.4l17.7 13.1c1.4 1.1 2.4 2.6 2.6 4.4.3 1.8-.2 3.5-1.3 5-.5.3-12.9 16.6-25.1 16.6zm-50.2-96.1c-.5 0-1.1.2-1.5.5 0 0-4.2 3-8.2 7.2-5.1 5.4-7.9 10.4-7.9 14.5 0 8.1.9 14.9 12.3 28.8 5.5 6.9 6.9 8.4 8.5 10 .3.3.5.6.8.9 24.9 26 37.1 29.8 45.7 30.1h.3c8.5 0 18.7-11.1 21.9-15.4.4-.6.6-1.3.5-2s-.5-1.3-1-1.7l-17.7-13.1c-.5-.4-1.3-.6-2-.6-1 0-1.9.3-2.5.9-.2.3-1.5 1.5-7.3 7-2 1.9-4.3 2.9-6.8 2.9-5.2 0-9.4-4.2-9.9-4.7l-6.7-6.5-.1-.1c-.3-.4-.5-.7-.8-1l-9.2-10c-.3-.3-2.3-2.4-3.5-5.2-1.8-4.3-1.1-8.4 2.1-11.5 5.6-5.6 6.9-6.8 7.2-7.1 1.1-1.1 1.3-3.2.4-4.5l-12.5-18.1c-.4-.9-1.2-1.3-2.1-1.3z"/>
</symbol>
<symbol id="menu-seta"><path d="M15.68 28.146l-.005-.005L3.003 17.432c-1.323-1.14-1.47-1.952-.226-3.099l14.11-12.099c.966-.845.502-2.288-1.243-.698L1.243 14c-1.261 1.002-.975 3.064.387 3.962l13.723 11.557c1.4 1.448 2.619.86 1.795-.132"/>
</symbol>
<symbol id="menu-tools" viewBox="0 0 33.4 35.3"><path class="st0" d="M28.2 34.8c-1.2 0-2.3-.5-3.2-1.3l-6.7-6.7c-.1-.1-.2-.3-.2-.4s0-.3.1-.4l1.4-1.4L18 23c-.2-.2-.2-.6 0-.8l1.9-1.9c.2-.2.6-.2.8 0l1.6 1.6 1.4-1.4c.2-.2.5-.2.8 0l.1.1 6.7 6.7c.8.8 1.3 2 1.3 3.2 0 1.2-.5 2.3-1.3 3.2-.7.6-1.9 1.1-3.1 1.1zm-8.8-8.5l6.4 6.4c.6.6 1.5 1 2.4 1 .9 0 1.8-.4 2.4-1 .6-.6 1-1.5 1-2.4s-.4-1.8-1-2.4l-6.4-6.4-1.4 1.5c-.2.2-.6.2-.8 0l-1.6-1.6-1.1 1.1 1.6 1.6c.2.2.2.6 0 .8l-1.5 1.4zm-8.6-11c-.1 0-.3-.1-.4-.2l-4.6-4.6c-.2.1-.4.1-.7.1-.1 0-.3-.1-.4-.2-.1-.2-.4-.6-.7-1.2C.7 4.5.8 4.5 1.2 4l.8-.7c.4-.4.5-.5 5.2 2.7.5.4 1 .7 1.1.8.1.1.2.2.2.4.1.3 0 .6-.1.7l4.6 4.6c.2.2.2.6 0 .8l-1.9 1.9c0 .1-.1.1-.3.1zM5.7 9.1c.1 0 .3.1.4.2l4.7 4.7 1.1-1.1-4.7-4.7C7 8 7 7.7 7.1 7.5l.1-.1c-.2-.1-.4-.3-.7-.5-1-.7-3.2-2.2-4-2.7l-.3.4c.4.8 2 3 2.7 4 .1.3.3.5.4.7l.1-.1c.1-.1.2-.1.3-.1z"/><path class="st0" d="M4.1 33.2c-1 0-2-.4-2.8-1.2-.7-.7-1.2-1.7-1.2-2.8 0-1.1.4-2 1.2-2.8L17.9 9.9c-.6-2.6.2-5.3 2.1-7.2C21.9.8 24.8 0 27.5.7c.2.1.3.2.4.4.1.2 0 .4-.1.5L24 5.4l.9 3.4 3.4.9L32 5.9c.1-.1.3-.2.5-.1s.3.2.4.4c.7 2.7-.1 5.5-2 7.5-2 2-4.8 2.7-7.5 2L6.9 32.1c-.7.7-1.7 1.1-2.8 1.1zM25.5 1.6c-1.7 0-3.4.7-4.7 1.9-1.7 1.7-2.3 4.2-1.7 6.5.1.2 0 .4-.2.6l-.1.1L2.1 27.3c-.5.5-.8 1.3-.8 2 0 .8.3 1.5.8 2 1.1 1.1 2.9 1.1 4 0l16.7-16.7c.1-.1.4-.2.6-.2 2.4.8 5 .2 6.7-1.6 1.4-1.4 2.1-3.4 1.9-5.4l-3.3 3.3c-.1.1-.3.2-.5.1l-4-1.1c-.2-.1-.3-.2-.4-.4l-1.1-4c-.1-.2 0-.4.1-.5l3.3-3.3c-.1.1-.4.1-.6.1zM1.7 26.9zm2.7 4c-1 0-1.8-.8-1.8-1.8s.8-1.8 1.8-1.8 1.8.8 1.8 1.8-.8 1.8-1.8 1.8zm0-2.6c-.4 0-.7.3-.7.7 0 .4.3.7.7.7.4 0 .7-.3.7-.7s-.3-.7-.7-.7z"/>
</symbol>
<symbol id="menu" viewBox="0 0 100 100"><path d="M6.2 31h87.6c3.4 0 6.2-3.6 6.2-7s-2.8-7-6.2-7H6.2C2.8 17 0 20.6 0 24s2.8 7 6.2 7zm87.7 11H6.1C2.7 42 0 46.1 0 49.5S2.7 57 6.1 57h87.8c3.4 0 6.1-4.1 6.1-7.5S97.3 42 93.9 42zm-.1 26H6.2C2.8 68 0 71.6 0 75s2.8 7 6.2 7h87.6c3.4 0 6.2-3.6 6.2-7s-2.8-7-6.2-7z"/>
</symbol>
<symbol id="message" viewBox="0 0 100 100"><path d="M100 93L88 70.1c3.2-6 5.1-12.8 5.1-20.1 0-24.5-20.8-44.4-46.5-44.4C20.8 5.6 0 25.5 0 50s20.8 44.4 46.5 44.4c9.9 0 19.1-3 26.7-8.1L100 93zM27.5 56.4c-3.1 0-5.6-2.4-5.6-5.6 0-3.2 2.5-5.6 5.6-5.6 3.1 0 5.5 2.4 5.5 5.6 0 3.2-2.4 5.6-5.5 5.6zm20.5 0c-3.1 0-5.6-2.4-5.6-5.6 0-3.2 2.5-5.6 5.6-5.6s5.5 2.4 5.5 5.6c0 3.2-2.4 5.6-5.5 5.6zm14.8-5.6c0-3.2 2.5-5.6 5.6-5.6 3.1 0 5.5 2.4 5.5 5.6 0 3.2-2.4 5.6-5.5 5.6s-5.6-2.4-5.6-5.6z" fill-rule="evenodd" clip-rule="evenodd"/>
</symbol>
<symbol id="minus" viewBox="0 0 17 17"><path d="M0 7h17v3H0z"/>
</symbol>
<symbol id="music" viewBox="-338 356.4 19.1 19.1"><path d="M-319.3 356.7c-.2-.2-.5-.3-.8-.3h-.2l-10.1 1.8c-.6.1-1 .6-1 1.2v10.3c-.6-.4-1.4-.7-2.3-.7-.5 0-1 .1-1.5.2-1.1.4-2 1.1-2.5 2.1-.3.7-.4 1.5-.1 2.2.5 1.2 1.7 2 3.3 2 .5 0 1-.1 1.5-.2 1.1-.4 2-1.1 2.5-2.1.2-.4.3-.8.3-1.3v-9.6h.2l9.9-1.8v7.3c-.6-.4-1.4-.7-2.3-.7-.5 0-1 .1-1.5.2-1.1.4-2 1.1-2.5 2.1-.3.7-.4 1.5-.1 2.2.5 1.2 1.7 2 3.3 2 .5 0 1-.1 1.5-.2 1.1-.4 2-1.1 2.5-2.1.2-.4.3-.8.3-1.3v-12.4c.1-.4-.1-.7-.4-.9zm-14.1 17.5c-1.4.5-2.9 0-3.3-1-.4-1.1.4-2.3 1.9-2.8 1.4-.5 2.9 0 3.3 1 .4 1.1-.4 2.3-1.9 2.8zm11.4-1.8c-1.4.5-2.9 0-3.3-1-.4-1.1.4-2.3 1.9-2.8 1.4-.5 2.9 0 3.3 1 .3 1.1-.5 2.3-1.9 2.8zm1.9-13l-10.2 1.8v-1.8l10.2-1.8v1.8z" fill="#fff"/>
</symbol>
<symbol id="myhonda" viewBox="0 0 40 40"><path d="M38.1 19.9c0-4.4-1.5-8.5-4.1-11.6h2C32.4 3.3 26.5 0 19.9 0S7.3 3.3 3.7 8.2H6c-2.6 3.2-4.1 7.2-4.1 11.6 0 4.5 1.6 8.6 4.2 11.8H3.6c3.6 5 9.5 8.3 16.2 8.3s12.6-3.3 16.2-8.3h-2.2c2.7-3.1 4.3-7.2 4.3-11.7zm-6 11.4c-3 3.3-7.3 5.4-12.1 5.4s-9.1-2.1-12.1-5.4c-2.7-3-4.4-6.9-4.4-11.3s1.7-8.4 4.4-11.4c3-3.3 7.3-5.3 12-5.3s9 2.1 12 5.3c2.7 3 4.4 7 4.4 11.4.1 4.4-1.5 8.4-4.2 11.3z"/><path d="M17.8 19.2c.8.5 1.5.7 2.3.7.9 0 1.8-.3 2.6-1 .7-.6 1.8-1.8 2-4 .2-2.1.4-3 .4-3.1 0-.1.2-1.5-.6-2.6-.4-.5-1-.9-1.7-1-.3-.5-.8-1.1-1.8-1.1-2.8-.2-4.6.6-5.5 2.2-1 1.8-.4 3.8-.3 4.3 0 .7.3 4.2 2.6 5.6zm-1-9.2c.5-1 1.7-1.5 3.5-1.5h.6c.1 0 .5 0 .5.4v.7l.7.1c.5.1.9.2 1.2.5.4.5.3 1.3.3 1.3 0 .1-.3 1-.5 3.2-.2 1.7-1.1 2.7-1.5 3-.7.6-1.7 1-3.1.2-1.8-1.2-1.9-4.5-1.9-4.6V13c0 .1-.6-1.6.2-3zm11.3 11.8c-1.9-1.9-3.6-1.6-3.8-1.5h-.2l-.1.1s-2 1.5-4 1.5-4.1-1.5-4.1-1.5l-.2-.1h-.3c-1.7.1-3 .7-3.8 1.7-1.2 1.4-1.1 3.1-1.1 3.2v3h.7c.9.9 4.1 3.8 8.5 3.8h.3c4.5-.2 7.7-2.9 8.5-3.7h.8v-3.1c.2-.3.2-1.8-1.2-3.4zm-.2 4.9l-.1.2s-3.1 3.3-7.7 3.5c-4.6.2-7.9-3.5-7.9-3.6l-.1-.1V25s-.1-1.2.7-2.1c.6-.6 1.4-1 2.6-1.1.7.4 2.7 1.6 4.8 1.6 2.1 0 4.1-1.2 4.7-1.6.3 0 1.2.1 2.2 1.1 1 1.1.9 2.1.9 2.2l-.1 1.6z"/>
</symbol>
<symbol id="parcelas" viewBox="0 0 47.8 48.9"><style>.st0{fill:#3d3d3e}</style><path class="st0" d="M23.9 48.9C10.7 48.9 0 37.9 0 24.4S10.7 0 23.9 0s23.9 11 23.9 24.4-10.7 24.5-23.9 24.5zm0-46.9C11.8 2 2 12.1 2 24.4s9.8 22.4 21.9 22.4 21.9-10.1 21.9-22.4S36 2 23.9 2z"/><path class="st0" d="M25.6 37.8h-2.7l-1-1v-2c-1.5-.3-3.3-1.1-4.7-2.3l-.2-1.3 1.8-2.9 1.5-.3c1.4 1 2.4 1.5 3.4 1.5 1.3 0 1.3-.5 1.3-1 0-.7-1.2-1.3-2.4-1.9-2.1-1.1-5-2.6-5-6.2 0-3 1.6-5.2 4.3-6.1v-2.2l1-1h2.7l1 1v2.1c1.5.4 2.7 1.2 3.9 2.5V18l-2.1 2.4-1.4.1c-.9-.9-1.6-1.2-2.4-1.2-1.1 0-1.1.4-1.1.8 0 .5 1.1 1.1 2.2 1.6 2.2 1.1 5.2 2.6 5.2 6.4 0 3.1-1.6 5.4-4.4 6.3v2.2l-.9 1.2zm-1.8-2h.7v-2l.8-1c2.3-.5 3.6-2.1 3.6-4.6 0-2.6-2.1-3.6-4.1-4.6-1.6-.8-3.3-1.6-3.3-3.4 0-1.8 1.1-2.8 3.1-2.8 1.2 0 2.2.4 3 1l.8-1c-.9-.8-1.9-1.3-3-1.4l-.9-1v-1.9h-.7v2l-.8.9c-2.2.5-3.5 2-3.5 4.4 0 2.2 1.6 3.2 4 4.4 1.7.9 3.5 1.8 3.5 3.7 0 1.9-1.2 3-3.3 3-1.2 0-2.4-.4-3.8-1.3l-.8 1.2c1.2.8 2.7 1.3 3.8 1.4l.9 1v2z"/>
</symbol>
<symbol id="play" viewBox="0 0 19.4 24.7"><path d="M0 21.6V3.1C0 .6 2.8-.9 4.9.6l13.2 9.3c1.8 1.2 1.8 3.8 0 5.1L4.9 24.2C2.8 25.6 0 24.1 0 21.6z"/>
</symbol>
<symbol id="plus-icon" viewBox="0 0 20 20"><path d="M20 9h-9V0H9v9H0v2h9v9h2v-9h9"/>
</symbol>
<symbol id="plus" viewBox="0 0 17 17"><path d="M17 7h-7V0H7v7H0v3h7v7h3v-7h7"/>
</symbol>
<symbol id="scroll" viewBox="-264 267.6 196 193.4"><path d="M-165.9 461c-2.9 0-5.1-2.4-5.1-5.1V272.7c0-2.9 2.4-5.1 5.1-5.1 2.9 0 5.1 2.4 5.1 5.1v183.2c0 2.9-2.4 5.1-5.1 5.1z"/><path d="M-165.9 461c-1.2 0-2.4-.5-3.6-1.5-2.2-1.9-2.2-5.3-.2-7.3l92.8-99.6c1.9-2.2 5.3-2.2 7.3-.2 2.2 1.9 2.2 5.3.2 7.3l-92.8 99.6c-1 1.2-2.5 1.7-3.7 1.7z"/><path d="M-165.9 461c-1.5 0-2.7-.5-3.9-1.7l-92.8-99.6c-1.9-2.2-1.9-5.3.2-7.3 2.2-1.9 5.3-1.9 7.3.2l92.8 99.6c1.9 2.2 1.9 5.3-.2 7.3-.9 1.3-2.2 1.5-3.4 1.5z"/>
</symbol>
<symbol id="taxa" viewBox="0 0 33.8 33.8"><style>.st0{fill:#3d3d3e}</style><path class="st0" d="M17.5 33.8c-1.3 0-2.5-.5-3.4-1.4L1.8 20C.5 18.7-.1 16.8 0 15l1.1-9.5C1.3 3.3 3.4 1.3 5.6 1L15 0c1.8-.2 3.7.5 5 1.8l12.4 12.4c1.8 1.9 1.8 4.9 0 6.7L20.9 32.4c-.9.9-2.1 1.4-3.4 1.4zM15.6 2h-.4L5.8 3.1c-1.3.1-2.6 1.4-2.7 2.7L2 15.2c-.1 1.2.4 2.5 1.2 3.4L15.6 31c.5.5 1.2.8 1.9.8s1.4-.3 1.9-.8L31 19.5c1.1-1.1 1.1-2.8 0-3.9L18.6 3.2c-.7-.7-1.9-1.2-3-1.2z"/><path class="st0" d="M23.3 20c-.1 0-.1 0 0 0-1 0-1.8-.4-2.6-1.2-.8-.8-1.2-1.7-1.2-2.7 0-1 .4-1.9 1.1-2.7.8-.8 1.6-1.1 2.5-1.1.9 0 1.7.4 2.5 1.2.8.8 1.2 1.7 1.2 2.6 0 1-.4 1.9-1.1 2.7-.7.9-1.5 1.2-2.4 1.2zm-1.9-3.8c0 .4.2.9.7 1.3.4.4.8.6 1.2.6.2 0 .6 0 1.1-.5.4-.4.5-.7.5-1.2 0-.4-.2-.9-.7-1.3-.4-.4-.8-.6-1.2-.6-.1 0-.5 0-1 .5-.4.3-.6.7-.6 1.2zm-10.9 4.3c-.1 0-.1 0 0 0-1 0-1.8-.4-2.6-1.2-.8-.8-1.2-1.7-1.2-2.7 0-1 .4-1.9 1.1-2.7.7-.7 1.6-1.1 2.5-1.1.9 0 1.8.4 2.5 1.2.8.8 1.2 1.7 1.2 2.6 0 1-.4 1.9-1.1 2.6-.7.9-1.5 1.3-2.4 1.3zm-.3-5.6c-.2 0-.6.1-1 .5s-.6.8-.5 1.2c0 .4.2.9.7 1.3.4.4.8.6 1.2.6.4 0 .7-.2 1-.5.5-.5.5-.9.5-1.2 0-.4-.2-.9-.7-1.3-.4-.3-.8-.6-1.2-.6zm8.4 12c-.5 0-.9-.3-1-.8L13.8 7.7c-.1-.5.2-1.1.8-1.2.5-.1 1.1.2 1.2.8l3.8 18.4c.1.5-.2 1.1-.8 1.2h-.2z"/>
</symbol>
<symbol id="tel" viewBox="0 0 100 100"><path d="M89.7 95.2c2.4-2.6 5-5 7.5-7.5 3.7-3.7 3.7-8.2.1-11.9L84.1 62.6c-3.6-3.6-8.1-3.6-11.7 0-2.7 2.7-5.5 5.4-8.2 8.2-.2.2-.4.3-.5.5l-1.9 1.9c-.5.3-1 .3-1.7 0-1.8-1-3.7-1.7-5.4-2.8-7.9-5-14.6-11.4-20.5-18.7-2.9-3.6-5.5-7.4-7.3-11.8-.3-.7-.3-1.2.1-1.8l1.9-1.9c.1-.1.2-.2.3-.4.8-.8 1.6-1.6 2.5-2.4l5.7-5.7c3.8-3.8 3.7-8.2 0-12-2.1-2.2-4.3-4.3-6.4-6.4l-6.6-6.6c-3.6-3.5-8.1-3.6-11.7 0-2.8 2.7-5.4 5.5-8.2 8.2-2.6 2.5-3.9 5.5-4.2 9-.6 5.7.8 11.1 2.7 16.3 4.1 10.9 10.2 20.6 17.7 29.5 10.1 12 22.2 21.5 36.3 28.4 6.4 3.1 12.9 5.5 20.1 5.9 4.9.2 9.2-1 12.6-4.8z"/>
</symbol>
<symbol id="test-ride" viewBox="0 0 40 40"><path fill="none" d="M12.903 26.684l-.811-.506h-.202l-.607-.303-5.773-3.344-.203-.101h-.709l-.405.709-.101.305.405.811.608.303.81.406 3.14 1.619.203.102h.405l.811.102h.101l1.621.305.709.1.81.102a3.168 3.168 0 0 0-.709-.506l-.103-.104zm-5.976.304l.81-.203c-.202-.203-.405-.404-.709-.404a.907.907 0 0 0-.912.91c0 .508.405.912.912.912.405 0 .811-.303.912-.811l-.912.305h-.101c-.203 0-.304-.102-.405-.305 0-.101.203-.302.405-.404z"/><path fill="none" d="M5.003 25.469c-.506.506-.811 1.215-.811 1.924s.304 1.418.811 1.924c.506.508 1.215.811 1.924.811s1.417-.303 1.924-.811c.506-.506.709-1.113.81-1.822l-.709-.102h-.1l-.304.102c0 .912-.708 1.723-1.62 1.723a1.6 1.6 0 0 1-1.621-1.621c0-.709.405-1.316 1.013-1.52l-1.114-.607c-.102-.103-.102-.103-.203-.001z"/><circle fill="none" cx="21.105" cy="25.468" r=".304"/><path fill="none" d="M15.941 24.354l-.912.203h-.202l-1.114-.404c-.102 0-.102-.102-.102-.102h-.101l-2.938-1.621c0 .102 0 .102.102.203.203.709.81 1.621 2.026 2.836.203.203.506.506.81.709l2.734 1.621c.406.101.811.101 1.216.101-.202-1.014-.101-2.33 0-2.938l-1.519-.608zm-1.114-2.227c.405-.508 1.012-1.014 1.721-1.621L15.536 20l-.811-.405-4.861-1.721c-.405 0-1.114-.406-2.228-1.014-.101 0-.203-.102-.203-.102-.405-.202-.709-.304-1.114-.506-.304-.102-.608-.203-.811-.405-.202-.102-.303-.102-.404-.202-.102 0-.304-.102-.405-.203-.304.102-.709.102-1.013.102.203.202.608.404 1.013.607.101.102.203.102.304.203.203.101.304.202.506.303.304.203.709.508 1.114.71.203.202.507.405.811.607 1.012.709 2.127 1.418 2.836 2.026 1.519 1.113 3.645 1.822 4.557 2.127zm-4.76-4.962c.911.101 3.848 1.215 4.962 1.619l2.532-.607s0-.101-.102-.202c-.101-.101-.304-.405-.506-.607-.506.304-1.722.81-3.342.304-.81-.304-1.417-.709-2.025-1.014-.811-.506-1.418-.911-2.532-.911-.912 0-1.823-.101-2.633-.202.405.202.912.404 1.418.709.911.302 1.924.809 2.228.911zm-.101 5.974c-.811-.607-1.824-.91-2.938-.91h-.405l4.254 2.531c-.405-.608-.709-1.217-.911-1.621zm-.405 6.584c-.608.709-1.519 1.012-2.431 1.115h-.102c-.912 0-1.722-.305-2.431-1.014-.709-.607-1.013-1.52-1.114-2.432 0-.912.304-1.822 1.013-2.531l-.405-.203c-.101 0-.101-.102-.203-.201l-.405-.811c-1.012.91-1.62 2.328-1.519 3.746 0 1.418.608 2.635 1.621 3.646a5.493 5.493 0 0 0 3.646 1.418c1.418 0 2.633-.607 3.646-1.619a5.012 5.012 0 0 0 1.418-3.039l-1.621-.305c-.202.913-.506 1.62-1.113 2.23zM1.56 20.506c1.013-1.013 2.025-1.722 3.14-2.228.405-.202.81-.404 1.114-.506-.405-.305-.81-.507-1.114-.709-1.419.607-2.431 1.924-3.14 3.443zM26.372 7.441s-.101 0-.101.101c-.102.203-.203.405-.203.608 0 .202.102.405.102.607l.102.101s.101 0 .101-.101c.102-.102.102-.405.102-.607a.951.951 0 0 0-.103-.709zm5.976 10.026c-1.619-1.113-1.619-3.646-1.619-3.747 0-.101.1-.202.202-.304-.202-.304-.507-.506-.71-.709l-1.013.607c-.101.203-.101.203-.203.203h-.708l1.823 2.836c.203.203 1.113.812 2.228 1.114zm.304-.709c0-.811-.507-1.721-1.114-2.531.101.709.304 1.822 1.114 2.531zm-1.013 5.471l-.506-1.115c-1.823 1.014-2.533 2.938-2.734 4.457.911-1.622 2.126-2.735 3.24-3.342zm2.837 4.96h-.203c-.102 0-.305-.1-.305-.201l-1.012-2.025c-.102.102-.304.201-.405.305-.405.404-.608 1.012-.608 1.619 0 1.215 1.014 2.227 2.33 2.227s2.228-1.113 2.228-2.328c0-.607-.304-1.215-.709-1.621-.405-.404-1.013-.607-1.62-.607-.203 0-.405 0-.506.102l1.013 2.025c-.001.202-.001.405-.203.504z"/><path fill="none" d="M35.285 21.822a9.368 9.368 0 0 0-2.633.709l.709 1.418c.304-.102.606-.102.81-.102.81 0 1.62.305 2.127.811.607.609.911 1.316.911 2.127a3.116 3.116 0 0 1-2.937 3.139h-.102c-1.62 0-3.038-1.314-3.038-2.936 0-.811.304-1.621.81-2.127.203-.203.405-.305.608-.508l-.709-1.416c-1.014.605-1.924 1.416-2.634 2.633-.101.404-.203.91-.203 1.418 0 1.418.608 2.633 1.621 3.545a5.505 5.505 0 0 0 3.646 1.418c1.418 0 2.633-.609 3.545-1.621a5.501 5.501 0 0 0 1.418-3.646c.102-2.33-1.62-4.354-3.949-4.862zm-1.519-.506c.912-.203 1.723-.305 2.33-.305a6.145 6.145 0 0 0-2.431-.506c-.608 0-1.216.102-1.823.303l.506 1.014c.506-.203 1.013-.404 1.418-.506zm-8-6.076a.217.217 0 0 1-.203-.202s-.404-1.216-2.229-1.317c-1.519-.101-4.254 1.013-5.469 2.228-.304.305-.506.608-.506.912.304.305.608.607.709.912.203.304.304.607.203.911-.101.405-.506.507-.608.507-.304.101-1.013.202-1.722.404l1.317.709c.607-.404 1.114-.709 1.519-1.013l.608-.304c.506-.405 1.417-.811 2.329-.911.506-.102.911 0 1.418.101a4.262 4.262 0 0 1 1.418.912c1.013 1.013 1.519 2.632 1.722 3.443.101.102.101.305.202.406l.203.102c.304-.609 1.114-1.723 2.531-3.04l-2.228-4.152-1.214-.608z"/><path d="M29.815 20.202c.103-.101.203-.303.103-.404l-2.432-4.558c0-.102-.101-.102-.202-.202l-1.114-.507c-.203-.405-.912-1.519-2.735-1.722-1.721-.102-4.658 1.013-6.076 2.431-.506.506-.709.911-.709 1.316-.405.202-1.418.709-2.836.202-.708-.202-1.316-.607-1.823-.911-.811-.507-1.621-1.013-2.938-1.114-2.025 0-4.253-.404-4.253-.404h-.101l-.203.202c-.102.101-.203.202-.203.304-.608 0-1.317.102-1.519.405-.101.202-.101.405.202.708.101.102.506.305 1.013.709C2.066 17.772.952 20 .041 22.33c-.102.201 0 .404.203.506.101 0 .101.102.202.102s.202-.102.304-.203c2.431-3.242 4.962-4.153 5.874-4.355 1.216.811 2.431 1.62 3.14 2.228 1.519 1.215 3.646 1.924 4.659 2.229-.304.404-.608.506-.811.506l-3.95-2.229v.912c-.81-.406-1.722-.607-2.734-.607-.405 0-.811.1-1.216.201-.101 0-.101-.102-.203-.102H4.497c-.102 0-.304.102-.304.203l-.405.709c-1.519 1.113-2.633 2.938-2.532 4.963 0 1.52.709 3.039 1.823 4.152 1.114 1.014 2.532 1.621 4.052 1.621h.101c1.519 0 3.039-.709 4.152-1.824.912-.91 1.52-2.125 1.621-3.441l2.127.404h.304c1.722.305 3.24.404 4.558.404.809 0 1.62-.1 2.329-.201 1.316-.203 1.823-.607 1.823-.709.608-.609 2.532-2.635 2.734-3.141.102-.201 0-.607-.102-1.012h.102c.102 0 .202-.104.202-.203-.102.1.709-1.418 2.733-3.241zM9.054 15.645c1.114 0 1.823.404 2.532.911.506.304 1.215.709 2.025 1.013 1.621.507 2.836 0 3.342-.304.304.304.405.507.506.608a.311.311 0 0 1 .102.202l-2.633.708c-1.114-.404-4.051-1.619-4.962-1.619-.304-.102-1.216-.608-2.229-1.014a9.287 9.287 0 0 0-1.418-.709c.811.102 1.823.204 2.735.204zm-4.456 2.633c-1.114.506-2.126 1.316-3.14 2.228.811-1.519 1.722-2.734 3.14-3.443.304.202.709.506 1.114.709-.304.102-.608.202-1.114.506zm5.672 1.621c-.709-.608-1.722-1.317-2.836-2.025-.304-.102-.608-.305-.811-.406-.405-.202-.709-.506-1.114-.709-.202-.102-.303-.202-.506-.304-.101-.101-.203-.101-.304-.202-.405-.305-.709-.507-1.013-.607.304 0 .709 0 1.013.101.101.102.304.102.405.202.101.102.304.102.404.203.203.102.507.203.811.405s.709.304 1.114.507c.102 0 .203.102.203.102 1.114.607 1.823 1.012 2.228 1.012l4.861 1.621.811.404 1.012.507c-.709.506-1.417 1.113-1.721 1.621h-.102c-.81-.509-2.936-1.218-4.455-2.432zm-3.343 2.33h.101c1.013 0 2.025.303 2.938.91.202.508.506 1.014 1.012 1.621l-4.253-2.531h.202zm3.848 8.609c-.911 1.012-2.228 1.518-3.646 1.619a5.493 5.493 0 0 1-3.646-1.418c-1.012-.912-1.519-2.229-1.62-3.646 0-1.518.608-2.836 1.519-3.746l.405.91c0 .102.101.102.203.203l.405.203c-.607.709-1.013 1.518-1.013 2.531 0 .912.405 1.822 1.114 2.43a3.532 3.532 0 0 0 2.431 1.014h.101c.912 0 1.823-.404 2.431-1.113.608-.607.912-1.418 1.013-2.229l1.62.305c-.101 1.011-.506 2.126-1.317 2.937zm-4.152-3.344c0 .203.203.305.405.305h.102l.81-.203c-.101.404-.405.81-.912.81-.506 0-.912-.406-.912-.912s.405-.912.912-.912c.304 0 .507.102.709.406l-.81.201a.225.225 0 0 0-.304.305zm-1.316-.101c0 .912.81 1.621 1.621 1.621.912 0 1.62-.811 1.62-1.723l.304-.102h.101l.709.102c0 .709-.304 1.318-.81 1.822-.507.508-1.215.811-1.924.811s-1.418-.303-1.924-.811a2.76 2.76 0 0 1-.811-1.924c0-.709.304-1.418.811-1.922.102-.104.102-.104.203-.203l1.114.607c-.61.405-1.014 1.013-1.014 1.722zm7.596-.204l-.709-.1-1.621-.305h-.101l-.811-.102-.405-.102-.202-.1-3.14-1.619-.81-.404-.608-.305-.405-.811.101-.303.405-.709h.709l.202.1 5.773 3.342.607.305.203.102.811.506.101.102c.202.203.405.404.709.506l-.809-.103zm4.456.711c-.405 0-.811-.102-1.215-.102l-2.735-1.621c-.303-.303-.607-.506-.81-.709-1.215-1.115-1.722-2.127-2.026-2.836 0-.102 0-.102-.101-.203l2.937 1.621h.102l.101.102 1.114.404h.203l.911-.203 1.418.609c0 .608-.102 1.925.101 2.938zm8.709-3.343c-.202.305-1.418 1.723-2.634 2.836-.101.102-1.417.912-5.367.607-.304-1.215 0-3.139 0-3.139 0-.203-.101-.305-.203-.404l-1.722-.811h-.203l-1.013.201-.405-.201c.203-.203.506-.508.709-.912.506-.404 1.418-1.115 1.621-1.316.912-.709 1.114-.912 1.215-1.115a6.927 6.927 0 0 0 1.012-.811c.102-.101.203-.202.405-.202.71-.405 1.52-.81 2.229-.911.811-.102 1.52.202 2.126.811.608 1.113 1.216 2.228 1.621 3.24.102.305.102.406.102.508s.101.201.203.201c.203.709.304 1.215.304 1.418zm.507-1.619l-.203-.102c-.101-.102-.101-.305-.202-.406-.203-.811-.709-2.329-1.722-3.443-.405-.405-.811-.709-1.418-.911-.405-.102-.911-.202-1.418-.102-1.012.102-1.822.507-2.33.911l-.608.305c-.404.202-.911.607-1.519 1.012l-1.215-.81a11.07 11.07 0 0 0 1.722-.405c.102 0 .507-.102.608-.506.101-.203 0-.507-.203-.912-.101-.304-.405-.607-.709-.912 0-.202.203-.506.506-.911 1.215-1.215 3.95-2.329 5.469-2.228 1.824.202 2.127 1.316 2.229 1.316 0 .102.101.203.203.203l1.215.506 2.228 4.152c-1.519 1.418-2.329 2.635-2.633 3.243z"/><path d="M37.209 21.822c.305 0 .507.102.507.102.202 0 .304-.102.405-.203.102-.203 0-.303-.102-.404s-3.139-2.33-6.583-1.013l-1.316-3.038c.506.304 1.418.811 2.431 1.114h.102c.101 0 .202-.102.304-.102.101-.202.202-.304.304-.506l.102-.102v-.203c.606-2.228-2.633-5.165-2.836-5.367-.102-.102-.305-.102-.405 0l-1.115.709h-1.113c-.101-.203-.304-.304-.506-.506.101-.608.304-2.228-.102-3.241.102-.203.202-.506.202-.811 0-.81-.405-1.417-1.013-1.417a.76.76 0 0 0-.708.506c-.103.304-.203.608-.203.911 0 .304.101.709.203.912 0 .304.303.507.606.507h.203c.102.709.102 1.62 0 2.126-.608-.405-1.417-.81-2.532-1.114-.203 0-.405.102-.405.304s.102.405.305.405c1.924.506 2.937 1.316 3.443 1.924l.304.507v.101l3.139 6.482c-1.519.81-2.531 2.126-2.937 4.052-.405 1.619-.304 2.936-.304 3.037 0 .203.102.305.304.305.203 0 .304-.102.304-.203s.102-.203.102-.305c.102 1.418.708 2.836 1.823 3.85 1.113 1.012 2.532 1.621 4.051 1.621h.102c1.519 0 3.038-.711 4.152-1.824 1.113-1.113 1.621-2.633 1.621-4.152.098-2.128-1.117-3.95-2.839-4.964zM26.474 8.758l-.102.101s-.101 0-.101-.101c-.102-.102-.203-.304-.203-.607 0-.203 0-.405.102-.608.102 0 .202-.101.202-.101s.305.203.305.709c-.102.202-.102.404-.203.607zm6.178 8c-.811-.709-1.014-1.924-1.114-2.531.608.811 1.114 1.721 1.114 2.531zm-3.647-3.24c.103 0 .103 0 .203-.102l1.013-.607.71.709c-.103.102-.202.202-.202.304 0 .101 0 2.532 1.619 3.747-1.114-.304-2.024-1.013-2.228-1.114l-1.823-2.937h.708zm4.66 6.988c.91 0 1.823.203 2.431.506-.71 0-1.521.102-2.33.305-.506.102-1.013.303-1.519.506l-.507-1.014c.709-.202 1.317-.303 1.925-.303zm-5.267 5.064c.201-1.52.911-3.443 2.734-4.457l.506 1.115c-1.113.608-2.328 1.721-3.24 3.342zm9.622 4.862c-.911 1.012-2.229 1.52-3.544 1.619a5.503 5.503 0 0 1-3.647-1.416c-1.013-.912-1.519-2.229-1.62-3.545 0-.508 0-.912.202-1.418.811-1.215 1.723-2.129 2.634-2.633l.709 1.418c-.202.1-.405.303-.607.506-.607.607-.912 1.316-.811 2.127 0 1.619 1.418 2.938 3.038 2.938h.103c1.721 0 3.038-1.418 2.937-3.141 0-.811-.304-1.52-.912-2.127-.606-.607-1.316-.912-2.127-.811-.303 0-.607.102-.81.102l-.709-1.418a9.366 9.366 0 0 1 2.634-.709c2.329.506 4.05 2.533 4.05 4.963-.102 1.215-.609 2.531-1.52 3.545zm-3.445-3.748l-1.012-2.025c.202 0 .404-.102.507-.102.607 0 1.113.203 1.62.607.405.406.709 1.014.709 1.621 0 1.316-1.014 2.328-2.229 2.328s-2.229-1.012-2.329-2.227c0-.607.202-1.215.607-1.619a1.38 1.38 0 0 1 .405-.305l1.013 2.025c.101.102.203.201.304.201h.202c.306-.098.306-.301.203-.504zm-12.861-6.887c-.203-.102-.405.102-.507.202-.102.202.102.405.203.506 1.52.404 2.329 1.316 2.329 1.316.101.102.203.102.304.102.102 0 .202 0 .202-.102.103-.102.103-.404 0-.506 0-.1-.911-1.012-2.531-1.518zm-.709 1.012c-.203-.1-.404.102-.507.203-.101.203.103.406.203.506 1.519.406 2.431 1.318 2.431 1.318.102.102.202.102.303.102.103 0 .203 0 .203-.102.102-.102.102-.406 0-.506.101 0-.911-1.014-2.633-1.521zm-.507 1.115c-.203-.102-.405.102-.505.203-.102.203.1.404.203.506 1.417.406 2.228 1.215 2.228 1.316.102.102.202.102.304.102s.203 0 .203-.102c.101-.102.202-.406 0-.506.099-.101-.812-1.113-2.433-1.519zm1.317 2.533h-.305c-.202-.711-.81-1.115-1.518-1.115-.811 0-1.521.709-1.521 1.52s.71 1.52 1.521 1.52c.203 0 .505-.102.708-.203.202.404.607.709 1.114.709.709 0 1.215-.607 1.215-1.215s-.505-1.216-1.214-1.216zm-1.822 1.113a.693.693 0 0 1-.71-.709c0-.404.305-.709.71-.709.405 0 .708.305.708.709a.691.691 0 0 1-.708.709zm1.822.506c-.203 0-.405-.201-.405-.404s.202-.404.405-.404c.202 0 .404.201.404.404.001.303-.201.404-.404.404z"/>
</symbol>
<symbol id="youtube" viewBox="0 0 100 100"><path d="M99 29.2s-1-7.2-4-10.4c-3.8-4.1-8.1-4.2-10-4.4-14-1-35-1-35-1s-21 0-35 1.1c-2 .2-6.2.3-10 4.4C2 22 1 29.2 1 29.2S0 37.6 0 46v7.9c0 8.4 1 16.9 1 16.9S2 78 5 81.2c3.8 4.2 8.8 4 11 4.5 8 .8 34 1.1 34 1.1s21 0 35-1.1c1.9-.2 6.2-.3 10-4.4 3-3.2 4-10.3 4-10.3s1-8.4 1-16.9V46c0-8.4-1-16.8-1-16.8zM66.7 48.9l-27 14.6V34.2l12.2 6.6 14.8 8.1z"/>
</symbol>
<symbol id="zoom" viewBox="-706 711.4 21.3 21.3"><style>.st0{fill:#fff}</style><g id="vetor"><path class="st0" d="M-697.7 724.7c-2.8 0-5.2-2.2-5.2-4.9s2.3-4.9 5.2-4.9 5.2 2.2 5.2 4.9-2.4 4.9-5.2 4.9zm0-8.5c-2.1 0-3.8 1.6-3.8 3.6s1.7 3.6 3.8 3.6 3.8-1.6 3.8-3.6c-.1-2-1.8-3.6-3.8-3.6z"/><path class="st0" d="M-688.5 729.3c-.2 0-.4-.1-.5-.2l-5.8-5.5c-.3-.3-.3-.7 0-.9.3-.3.7-.3 1 0l5.8 5.5c.3.3.3.7 0 .9-.1.1-.3.2-.5.2z"/></g>
</symbol></svg>