<?xml version="1.0" encoding="UTF-8"?>
<svg width="21px" height="21px" viewBox="0 0 21 21" version="1.1" xmlns="http://www.w3.org/2000/svg" xmlns:xlink="http://www.w3.org/1999/xlink">
    <!-- Generator: Sketch 50.2 (55047) - http://www.bohemiancoding.com/sketch -->
    <title>Group 7</title>
    <desc>Created with Sketch.</desc>
    <defs></defs>
    <g id="Busca" stroke="none" stroke-width="1" fill="none" fill-rule="evenodd">
        <g id="Android-360/busca" transform="translate(-325.000000, -96.000000)" fill="#FFFFFF">
            <g id="Group-4" transform="translate(0.000000, 81.000000)">
                <g id="busca/mobile/preenchida">
                    <g id="Group-7" transform="translate(325.000000, 15.000000)">
                        <path d="M7.05882353,12.8405855 C3.86566472,12.8405855 1.27713368,10.2519823 1.27713368,7.05882353 C1.27713368,3.86566472 3.86566472,1.27713368 7.05882353,1.27713368 C10.2520545,1.27713368 12.8405134,3.86566472 12.8405134,7.05882353 C12.8405134,10.2519823 10.2520545,12.8405855 7.05882353,12.8405855 M7.05882353,0 C3.1603378,0 0,3.1603378 0,7.05882353 C0,10.9573814 3.1603378,14.1176471 7.05882353,14.1176471 C10.9573093,14.1176471 14.1176471,10.9573814 14.1176471,7.05882353 C14.1176471,3.1603378 10.9573093,0 7.05882353,0" id="Fill-1-Copy"></path>
                        <path d="M20.0254964,20.0254964 C19.7457661,20.3052267 19.2922259,20.3052267 19.0124956,20.0254964 L12.2097977,13.2227985 C11.9300674,12.9430682 11.9300674,12.489528 12.2097977,12.2097977 C12.489528,11.9300674 12.9430682,11.9300674 13.2227985,12.2097977 L20.0254964,19.0124956 C20.3052267,19.2922259 20.3052267,19.7457661 20.0254964,20.0254964" id="Fill-3-Copy"></path>
                    </g>
                </g>
            </g>
        </g>
    </g>
</svg>