<svg xmlns="http://www.w3.org/2000/svg" viewBox="0 0 189 38"><defs><style>.a{fill:#c00;}</style></defs><title>asas</title><path class="a" d="M7.81,31.41H19.7l-1,5.79H0L6,2.65h6.81Z"/><path class="a" d="M29.31,37.2H22.73l4.46-25.68h6.58ZM28.05,5a3.63,3.63,0,0,1,1-2.68,3.44,3.44,0,0,1,2.53-1,3.27,3.27,0,0,1,2.5,1,3.36,3.36,0,0,1,1,2.52,3.69,3.69,0,0,1-1,2.71,3.44,3.44,0,0,1-2.53,1,3.28,3.28,0,0,1-2.52-1A3.45,3.45,0,0,1,28.05,5Z"/><path class="a" d="M46.37,37.7a5.67,5.67,0,0,1-4.94-3.09L40.6,37.2H34.5L40.84.75h6.55L44.9,13.64A6.34,6.34,0,0,1,50,11a5.76,5.76,0,0,1,5,2.52c1.1,1.65,1.59,4,1.48,7.17a37.14,37.14,0,0,1-1.39,9.45A11.76,11.76,0,0,1,51.66,36,7.55,7.55,0,0,1,46.37,37.7ZM50,20.78a5.78,5.78,0,0,0-.52-3.13,2.17,2.17,0,0,0-1.88-1,4,4,0,0,0-3.3,1.9l-2,11.79a2.82,2.82,0,0,0,2.68,1.81q3.69.19,4.39-5.21l.22-1.76Z"/><path class="a" d="M68.63,37.67a9.18,9.18,0,0,1-5.28-1.51A8.35,8.35,0,0,1,60.21,32a13.73,13.73,0,0,1-.58-6.14l.22-1.75q.78-6.39,3.88-9.77a9.87,9.87,0,0,1,7.89-3.26,7.52,7.52,0,0,1,5.51,2.19,9.4,9.4,0,0,1,2.34,5.88,20.9,20.9,0,0,1-.09,4.41l-.46,3.09H66.11a12,12,0,0,0-.07,2c.11,2.27,1.22,3.44,3.34,3.48a8.34,8.34,0,0,0,5.75-2.25l2.2,4.08a8.66,8.66,0,0,1-3.64,2.8A11.87,11.87,0,0,1,68.63,37.67ZM71,16.58q-2.82-.12-3.93,3.61l-.48,1.73,6.53,0a18.7,18.7,0,0,0,.26-2.23C73.41,17.7,72.62,16.66,71,16.58Z"/><path class="a" d="M96.65,18l-2.09-.24a4.77,4.77,0,0,0-4.25,2.49l-3,17H80.77l4.47-25.68,6.14,0-.52,2.82a8.34,8.34,0,0,1,2.28-2.59A4.2,4.2,0,0,1,95.53,11a8.11,8.11,0,0,1,2,.35Z"/><path class="a" d="M108,11a5.64,5.64,0,0,1,4.58,2.64L115,.75h6.59L115.3,37.2h-5.88l.35-2.61c-1.64,2.09-3.46,3.13-5.43,3.13a5.69,5.69,0,0,1-5-2.54c-1.12-1.66-1.65-4.05-1.61-7.16l.08-1.52q.54-7.83,3.09-11.71A7.79,7.79,0,0,1,108,11Zm-3.73,16.9a5.64,5.64,0,0,0,.49,3.12,2,2,0,0,0,1.86,1.06,4.16,4.16,0,0,0,3.23-1.78l2.06-11.8a2.9,2.9,0,0,0-2.54-1.87c-2.34-.13-3.81,1.57-4.41,5.08l-.26,1.8Z"/><path class="a" d="M132.41,37.2a8.66,8.66,0,0,1-.19-2,6.51,6.51,0,0,1-5,2.49,6,6,0,0,1-4.76-2.18,7.41,7.41,0,0,1-1.65-5.32A8.25,8.25,0,0,1,124,23.8a12.63,12.63,0,0,1,8-2.31h1.92l.31-2.09.07-1.07c0-1.37-.55-2.06-1.66-2.06-1.53-.05-2.47.93-2.8,2.94l-6.52.05a8,8,0,0,1,3-6A10.36,10.36,0,0,1,133.22,11a7.69,7.69,0,0,1,5.85,2.41,7.69,7.69,0,0,1,1.64,6.11L138.63,32.6l-.1,1.25a7.86,7.86,0,0,0,.33,2.92l0,.43ZM129,32.45a4.25,4.25,0,0,0,3.23-1.51l1.16-5.44H132a4.43,4.43,0,0,0-3.07,1.28,5.14,5.14,0,0,0-1.4,3l0,.9a2,2,0,0,0,.39,1.26A1.4,1.4,0,0,0,129,32.45Z"/><path class="a" d="M154,11a5.64,5.64,0,0,1,4.58,2.64L161,.75h6.59L161.24,37.2h-5.88l.35-2.61c-1.64,2.09-3.46,3.13-5.43,3.13a5.69,5.69,0,0,1-5-2.54c-1.12-1.66-1.65-4.05-1.61-7.16l.08-1.52q.54-7.83,3.09-11.71A7.79,7.79,0,0,1,154,11Zm-3.73,16.9a5.64,5.64,0,0,0,.49,3.12,2,2,0,0,0,1.86,1.06,4.16,4.16,0,0,0,3.23-1.78l2.06-11.8a2.9,2.9,0,0,0-2.54-1.87c-2.34-.13-3.81,1.57-4.41,5.08l-.26,1.8Z"/><path class="a" d="M176.71,37.67a9.23,9.23,0,0,1-5.28-1.51A8.34,8.34,0,0,1,168.3,32a13.59,13.59,0,0,1-.58-6.14l.21-1.75q.78-6.39,3.88-9.77a9.89,9.89,0,0,1,7.89-3.26,7.56,7.56,0,0,1,5.52,2.19,9.46,9.46,0,0,1,2.34,5.88,20.89,20.89,0,0,1-.1,4.41L187,26.62H174.2a12,12,0,0,0-.08,2c.12,2.27,1.23,3.44,3.35,3.48a8.32,8.32,0,0,0,5.74-2.25l2.21,4.08a8.66,8.66,0,0,1-3.64,2.8A11.89,11.89,0,0,1,176.71,37.67Zm2.35-21.09q-2.82-.12-3.94,3.61l-.47,1.73,6.52,0a15.28,15.28,0,0,0,.26-2.23C181.5,17.7,180.71,16.66,179.06,16.58Z"/></svg>