<?xml version="1.0" encoding="UTF-8"?>
<svg width="50px" height="50px" viewBox="0 0 50 50" version="1.1" xmlns="http://www.w3.org/2000/svg" xmlns:xlink="http://www.w3.org/1999/xlink">
    <!-- Generator: Sketch 51 (57462) - http://www.bohemiancoding.com/sketch -->
    <title>Honda-blog_icon_pratica_50x50_V2</title>
    <desc>Created with Sketch.</desc>
    <defs></defs>
    <g id="Honda-blog_icon_pratica_50x50_V2" stroke="none" stroke-width="1" fill="none" fill-rule="evenodd">
        <path d="M25.3252267,23.4160784 C27.1299933,23.4160784 28.67376,21.9209804 28.67376,20.02 C28.67376,18.1258824 27.1299933,16.6258824 25.3252267,16.6258824 L25.3223267,16.6258824 C23.52626,16.6278431 21.9786267,18.1209804 21.9786267,20.02 C21.9786267,21.9317647 23.5339933,23.4160784 25.3252267,23.4160784" id="Fill-1" fill="#B3B3B3"></path>
        <path d="M25.3270633,35.3780392 C23.9804967,35.3780392 22.88913,36.484902 22.88913,37.8496078 L22.88913,47.0201961 C22.88913,48.3858824 23.9804967,49.4917647 25.3270633,49.4917647 C26.6726633,49.4917647 27.76403,48.3858824 27.76403,47.0201961 L27.76403,37.8496078 C27.76403,36.484902 26.6726633,35.3780392 25.3270633,35.3780392" id="Fill-3" fill="#B3B3B3"></path>
        <path d="M25.4536,0.98 C22.8155667,0.98 20.6763333,3.14960784 20.6763333,5.82607843 C20.6763333,8.50254902 22.8155667,10.6721569 25.4536,10.6721569 C28.0926,10.6721569 30.2308667,8.50254902 30.2308667,5.82607843 C30.2308667,3.14960784 28.0926,0.98 25.4536,0.98" id="Fill-5" fill="#B3B3B3"></path>
        <path d="M38.0551633,19.010098 L38.0841633,18.9228431 C38.0986633,18.8630392 38.1150967,18.7777451 38.1218633,18.6885294 C38.1353967,18.4316667 38.14313,18.2257843 38.1469967,18.0238235 C38.2581633,11.7434314 35.1029633,10.0718627 33.0168967,8.96598039 C32.5973633,8.74245098 32.2348633,8.55127451 31.9332633,8.34245098 C31.8172633,8.26303922 31.5842967,8.14735294 31.11933,8.01990196 C30.3121633,10.4816667 28.0317967,12.169902 25.4536967,12.169902 C22.8059967,12.169902 20.5043633,10.4208824 19.7416633,7.87578431 C18.9924967,8.04245098 18.6048633,8.22186275 18.4076633,8.34931373 C18.1340967,8.52676471 17.7947967,8.70127451 17.4158633,8.89735294 C15.2949967,9.99147059 12.0914633,11.6444118 12.2035967,18.0238235 C12.2074633,18.2257843 12.2151967,18.4316667 12.2248633,18.6395098 C12.2383967,18.8120588 12.2654633,18.9385294 12.30993,19.0630392 L12.3398967,19.1326471 C12.53903,19.5963725 12.94503,19.919902 13.4302967,20.0002941 C13.52793,20.0130392 13.5907633,20.0189216 13.65553,20.0189216 C13.7956967,20.0140196 13.8633633,20.0042157 13.92813,19.9904902 C14.03253,19.9689216 14.0953633,19.9502941 14.1552967,19.9277451 C14.2335967,19.8953922 14.28483,19.8718627 14.3350967,19.8444118 C14.4278967,19.792451 14.4742967,19.7591176 14.5206967,19.7238235 C14.60383,19.6542157 14.63573,19.6248039 14.6666633,19.5934314 L14.7304633,19.5248039 C14.7642967,19.4865686 14.7884633,19.4551961 14.8116633,19.4238235 C14.8860967,19.3120588 14.9131633,19.2679412 14.9353967,19.2208824 C14.9846967,19.1110784 15.0020967,19.0640196 15.0175633,19.0159804 C15.0687967,18.8581373 15.0919967,18.7002941 15.0890967,18.5404902 C15.0784633,18.3179412 15.07363,18.1473529 15.07073,17.9797059 C14.9875967,13.2757843 17.1712967,12.2238235 18.7662967,11.4551961 C19.12203,11.2846078 19.4574633,11.1228431 19.7406967,10.937549 L20.29943,10.5718627 L20.29943,17.569902 C21.2080967,15.6453922 23.1404633,14.3581373 25.3260967,14.3581373 C27.7398633,14.3581373 29.8471967,15.9297059 30.6040967,18.1953922 L30.6040967,10.9159804 L31.17443,11.319902 C31.46443,11.5257843 31.7756967,11.7022549 32.09083,11.8816667 C33.6210633,12.7493137 35.3552633,13.7346078 35.2798633,17.9797059 C35.2769633,18.1473529 35.2711633,18.3179412 35.2624633,18.4914706 C35.25763,18.6973529 35.2817967,18.8551961 35.3310967,19.0110784 C35.3465633,19.0620588 35.3658967,19.110098 35.3861967,19.1571569 C35.4354967,19.2640196 35.46353,19.3130392 35.49543,19.360098 C35.56503,19.460098 35.59113,19.492451 35.6191633,19.5248039 L35.6829633,19.5934314 C35.7138967,19.6257843 35.74773,19.6561765 35.7815633,19.6855882 C35.8743633,19.7591176 35.9226967,19.792451 35.97393,19.8218627 C36.0618967,19.8708824 36.1140967,19.8944118 36.16823,19.9169608 C36.2532967,19.9502941 36.3141967,19.9679412 36.3760633,19.9816667 C36.4852967,20.0032353 36.5529633,20.0140196 36.6225633,20.0179412 C36.76563,20.015 36.8390967,20.0120588 36.9096633,20.0022549 C37.4461633,19.9091176 37.8898633,19.5208824 38.0551633,19.010098" id="Fill-8" fill="#B3B3B3"></path>
        <path d="M38.8132233,18.969902 C38.80259,19.0277451 38.7919567,19.0816667 38.7784233,19.1316667 L38.7436233,19.2404902 C38.4971233,20.0061765 37.8291567,20.587549 37.0461567,20.7248039 C36.91469,20.7453922 36.8054567,20.7542157 36.6952567,20.7542157 L36.5802233,20.7512745 C36.4816233,20.7463725 36.3830233,20.7326471 36.2873233,20.7140196 C36.1278233,20.6797059 36.0321233,20.6512745 35.9393233,20.6169608 C35.82139,20.5689216 35.7450233,20.5316667 35.6686567,20.4904902 C35.5352567,20.415 35.4608233,20.3640196 35.3902567,20.3091176 L35.31389,20.2473529 C35.2607233,20.2022549 35.2114233,20.1561765 35.1640567,20.1061765 C35.1350567,20.0797059 35.1012233,20.0434314 35.0693233,20.0042157 C35.03259,19.9620588 34.9910233,19.910098 34.9523567,19.8551961 L34.8866233,19.760098 C34.84119,19.687549 34.7996233,19.6179412 34.7638567,19.5453922 L34.7242233,19.4551961 C34.6913567,19.3836275 34.6633233,19.3110784 34.6401233,19.2346078 C34.6043567,19.1208824 34.5782567,19.0071569 34.5618233,18.892451 C33.10699,18.8934314 31.3824567,18.8934314 30.41869,18.8934314 C30.5018233,19.2561765 30.5472567,19.6326471 30.5472567,20.019902 C30.5472567,22.7434314 28.3181233,25.3169608 25.3253233,25.3169608 C22.32769,25.3169608 20.1043567,22.7365686 20.1043567,20.019902 C20.1043567,19.6326471 20.14979,19.2561765 20.2329233,18.8934314 C19.5069567,18.8934314 17.37449,18.8934314 15.78819,18.892451 C15.7698233,19.0159804 15.74469,19.1297059 15.7079567,19.2414706 C15.6857233,19.3110784 15.6586567,19.3806863 15.6296567,19.4493137 L15.5813233,19.5551961 C15.55329,19.6159804 15.5117233,19.6865686 15.46629,19.7571569 L15.3947567,19.860098 C15.35609,19.9130392 15.3174233,19.9620588 15.2758567,20.0091176 C15.2507233,20.0395098 15.2159233,20.0767647 15.1801567,20.1140196 C15.1347233,20.1591176 15.0873567,20.2042157 15.03709,20.2463725 L14.9549233,20.3120588 C14.8882233,20.3640196 14.8147567,20.415 14.7374233,20.460098 C14.60789,20.5306863 14.5305567,20.5679412 14.45129,20.6002941 C14.3198233,20.6512745 14.22509,20.6787255 14.1303567,20.7012745 C13.9689233,20.7316667 13.8693567,20.7463725 13.76689,20.7512745 L13.6557233,20.7542157 C13.5571233,20.7542157 13.45949,20.7463725 13.36379,20.7326471 C12.5846567,20.6051961 11.97179,20.1189216 11.67599,19.4257843 L11.6363567,19.3326471 C11.60639,19.2502941 11.60349,19.1777451 11.58319,19.1002941 C11.24099,19.3179412 11.00029,19.687549 11.00029,20.1287255 C11.00029,20.8110784 11.54549,21.365 12.21829,21.365 L14.40489,21.365 C14.8273233,22.1002941 15.6045233,22.6012745 16.50449,22.6012745 L17.6944567,22.6012745 C16.7848233,24.4297059 16.2512233,26.6002941 16.2512233,28.9355882 C16.2512233,33.4228431 18.2000233,38.6610784 21.06039,41.4620588 L21.06039,37.8502941 C21.06039,35.460098 22.97149,33.5238235 25.3272567,33.5238235 C27.6820567,33.5238235 29.5931567,35.460098 29.5931567,37.8502941 L29.5931567,41.4620588 C32.4535233,38.6610784 34.4023233,33.4228431 34.4023233,28.9355882 C34.4023233,26.6002941 33.8687233,24.4297059 32.95909,22.6012745 L34.1490567,22.6012745 C35.0480567,22.6012745 35.8252567,22.1002941 36.24769,21.365 L38.4333233,21.365 C39.1080567,21.365 39.65229,20.8110784 39.65229,20.1287255 C39.65229,19.5826471 39.2975233,19.1336275 38.8132233,18.969902" id="Fill-10" fill="#B3B3B3"></path>
    </g>
</svg>