<?xml version="1.0" encoding="utf-8"?>
<!-- Generator: Adobe Illustrator 22.1.0, SVG Export Plug-In . SVG Version: 6.00 Build 0)  -->
<svg version="1.1" id="Layer_1" xmlns="http://www.w3.org/2000/svg" xmlns:xlink="http://www.w3.org/1999/xlink" x="0px" y="0px"
	 viewBox="0 0 50 50" style="enable-background:new 0 0 50 50;" xml:space="preserve">
<style type="text/css">
	.st0{fill:#BEBEBE;}
</style>
<title>Honda-blog_icon_primeira-moto_50x50_V3</title>
<desc>Created with Sketch.</desc>
<g id="Honda-blog_icon_primeira-moto_50x50_V3">
	<g id="Group-22" transform="translate(2.000000, 4.000000)">
		<path id="Fill-1" class="st0" d="M32.4,16.7c0,0.6,0,1.1,0,1.7c0,0.4-0.2,0.6-0.6,0.5c-0.8-0.1-1.5-0.4-2.1-1
			c-0.6-0.7-0.7-1.6-0.1-2.3c0.6-0.7,1.4-1,2.3-1.1c0.4,0,0.5,0.2,0.5,0.5C32.4,15.6,32.4,16.1,32.4,16.7"/>
		<path id="Fill-3" class="st0" d="M38.9,28.1c-3.9,0-7.1,3.2-7.1,7.1c0,3.9,3.2,7.1,7.1,7.1c3.9,0,7.1-3.2,7.1-7.1
			C46,31.3,42.8,28.1,38.9,28.1 M38.9,30.2c2.8,0,5,2.3,5,5s-2.3,5-5,5s-5-2.3-5-5S36.1,30.2,38.9,30.2"/>
		<path id="Fill-6" class="st0" d="M10.9,28.1c-3.9,0-7.1,3.2-7.1,7.1c0,3.9,3.2,7.1,7.1,7.1c3.9,0,7.1-3.2,7.1-7.1
			C18,31.3,14.8,28.1,10.9,28.1 M10.9,30.2c2.8,0,5,2.3,5,5s-2.3,5-5,5s-5-2.3-5-5S8.1,30.2,10.9,30.2"/>
		<path id="Fill-8" class="st0" d="M40.3,35.2c0,0.8-0.6,1.4-1.4,1.4c-0.8,0-1.4-0.6-1.4-1.4c0-0.8,0.6-1.4,1.4-1.4
			C39.7,33.7,40.3,34.4,40.3,35.2"/>
		<path id="Fill-10" class="st0" d="M12.3,35.2c0,0.8-0.6,1.4-1.4,1.4c-0.8,0-1.4-0.6-1.4-1.4c0-0.8,0.6-1.4,1.4-1.4
			C11.7,33.7,12.3,34.4,12.3,35.2"/>
		<path id="Fill-12" class="st0" d="M23.9,3.4c0,2-1.6,3.7-3.7,3.7c-2,0-3.7-1.6-3.7-3.7s1.6-3.7,3.7-3.7
			C22.3-0.3,23.9,1.4,23.9,3.4"/>
		<path id="Fill-15" class="st0" d="M17.1,7.4c-0.1,0-0.1,0-0.2,0c-1.5,0-2.6,0.8-3.4,2.1c-1.6,2.7-2.4,5.7-2.5,8.9
			c0,1.9,0.9,3,2.7,3.4c2.2,0.5,4.4,1,6.6,1.6c0.3,0.1,0.6,0.3,0.7,0.5c1.2,2,1.6,3.7,2,5.9c0.1,0.7,0.9,1.1,1.7,1.1
			c0.4,0,0.8-0.1,1.2-0.3c1-0.6,0.9-1.7,0.7-2.9c-0.6-2.4-1.2-4.7-2.6-7c-0.3-0.5-0.8-0.8-1.3-1c-0.8-0.2-1.7-0.4-2.5-0.6
			c-1.1-0.3-2.1-0.5-3.2-0.8c0.1-0.5,0.2-0.9,0.3-1.4c0.1-0.3,0.3-1.1,0.7-2c-1.6-1.2-2.5-2.6-3-3.4l0,0c-0.1-0.1-0.1-0.2-0.1-0.2
			c-0.5-0.8-0.3-2,0.5-2.5c0.3-0.2,0.6-0.3,1-0.3c0.6,0,1.2,0.3,1.5,0.8c0.1,0.1,0.1,0.2,0.2,0.3c0.3,0.4,0.6,1,1.1,1.6
			c0.1-0.6,0.2-1.2,0.2-1.8C19.2,8.2,18.4,7.4,17.1,7.4"/>
		<path id="Fill-17" class="st0" d="M24.5,13.8L24.5,13.8c-0.2,0-0.3,0-0.4,0c-4.4,0-6-2.6-6.7-3.8c-0.1-0.1-0.1-0.2-0.2-0.3
			c-0.2-0.3-0.6-0.5-0.9-0.5c-0.2,0-0.4,0.1-0.6,0.2c-0.3,0.2-0.4,0.4-0.5,0.7c-0.1,0.3,0,0.6,0.2,0.8c0,0.1,0.1,0.1,0.1,0.2l0,0
			c0.8,1.4,3.1,5,9.1,4.9l0,0c0.6,0,1.1-0.5,1-1.2C25.6,14.3,25.1,13.8,24.5,13.8"/>
		<path id="Fill-19" class="st0" d="M33.1,24.8L26.4,15c-0.1-0.1-0.2-0.2-0.3-0.3c0,0,0,0.1,0,0.1c0,0.8-0.5,1.4-1.2,1.6l1.8,2.6
			c-0.5,0.3-0.3,0.9-0.3,0.9c-0.6,0.3-1.1,1-1.4,1.8c1,2.1,1.5,4,2,5.9c0.3,1.2,0.4,2.6-0.9,3.4c-0.4,0.2-0.9,0.4-1.4,0.4
			c-1.1,0-2-0.6-2.1-1.5c-0.2-1.1-0.3-2-0.6-2.8c-0.7,0.4-1.5,0.6-2,0.6c-0.5,0-2-1.3-1.9-1.8c0.7-0.1,0.5-0.8,0.5-1.2h0.9
			c0.3,0,0.5-0.2,0.5-0.5v-0.4c-2-0.5-4.1-1-6.1-1.5l-0.3-0.1c-0.6-0.1-1.1-0.3-1.5-0.6c-0.4,0-0.7,0.2-0.9,0.5
			c-0.2-0.3-0.5-0.5-0.9-0.5H5.1c-0.9,0-1.7,0.7-1.7,1.7v0.4c0,0.3,0.2,0.5,0.5,0.5h2.7c-1,0.2-2,0.5-2.7,1.3
			c-0.1,0.2-0.3,0.3-0.4,0.5c0-0.1-0.1-0.1-0.2-0.2C3,25.4,2.5,25.2,2,25.1c-0.3,0-0.4,0.1-0.4,0.4c0,0.4,0,0.7,0,1.1
			c0,0.4,0,0.8,0,1.2c0,0.2,0.1,0.4,0.3,0.4c0.3,0,0.6-0.1,0.8-0.2c-0.6,1.4-1.3,2.8-2.3,4c-0.2,0.3-0.5,0.7-0.3,1
			c0.2,0.3,0.7,0.3,1.1,0.1c0.8-0.3,1.6-0.8,2.3-1.3C5.4,30.1,6.6,27.3,9,27c3.8-0.5,8.8-0.1,10.4,8.4c0.2,0,0.5,0,0.5,0
			s0,0.5,0,0.6c0.4,0,1.3,0,1.3,0V37c1.8,0.1,4.6,0,5.8,0c0.2-0.5,0.4-1,0.6-1.5c0.5,0,0.9,0,1.4-0.1c0.5-0.1,1-0.4,1.3-0.8
			c0.6-0.8,0.3-2,0.4-3c0.2-1.6,1.6-3.1,3-3.9c2.1-1.2,5.4-1.2,8.8,0.2C42.2,27,39.4,22.9,33.1,24.8"/>
	</g>
</g>
</svg>
