<?xml version="1.0" encoding="utf-8"?>
<!-- Generator: Adobe Illustrator 22.1.0, SVG Export Plug-In . SVG Version: 6.00 Build 0)  -->
<svg version="1.1" id="Layer_1" xmlns="http://www.w3.org/2000/svg" xmlns:xlink="http://www.w3.org/1999/xlink" x="0px" y="0px"
	 viewBox="0 0 50 50" style="enable-background:new 0 0 50 50;" xml:space="preserve">
<style type="text/css">
	.st0{fill-rule:evenodd;clip-rule:evenodd;fill:#BEBEBE;}
</style>
<g id="Layer_2_1_">
</g>
<g>
	<path class="st0" d="M1,27.3c0.2-0.8,0.5-1.5,1.1-2c0.6-0.5,1.3-0.9,2.1-1.2c10.5-4.3,21-8.5,31.4-12.8c4-1.7,7.9-3.6,11.8-5.4
		c0.1,0,0.1-0.1,0.2-0.1c0,0,0.1,0,0.1,0c0,0.1,0,0.2,0,0.3c-0.5,1.3-1,2.6-1.6,3.9c-0.6,1.3-1.7,2.2-3.1,2.7
		c-4.1,1.5-8.1,3-12.2,4.4c-8.6,3-17.1,6-25.7,9.1c-0.4,0.1-0.8,0.3-1.1,0.5c-0.8,0.6-1,1.4-0.5,2.3c0.2,0.3,0.5,0.6,0.7,0.8
		c2.7,2.5,5.4,5,8.1,7.6c0.1,0.1,0.2,0.1,0.3,0.2c-0.2,0-0.2,0-0.3,0c-1.2,0-2.3,0-3.5,0c-0.2,0-0.3-0.1-0.4-0.3
		c-0.2-0.6-0.6-1.1-1-1.5c-1.5-1.5-3-3-4.5-4.4c-1-0.9-1.9-1.9-2.1-3.3C1,27.8,1,27.5,1,27.3z"/>
	<path class="st0" d="M15.6,44.3c-0.6-0.1-1.3-0.1-1.9-0.3c-0.4-0.1-0.8-0.3-1.1-0.5c-1.6-1-1.6-3.3,0-4.3c0.6-0.4,1.3-0.6,2-0.6
		c1.3-0.1,2.5-0.1,3.7,0.3c1.5,0.5,2.2,1.9,1.8,3.3c-0.3,1.1-1.2,1.6-2.2,1.8c-0.6,0.2-1.3,0.2-1.9,0.3
		C15.8,44.3,15.7,44.3,15.6,44.3z M15.7,39.5c-0.2,0-0.4,0-0.6,0c-0.7,0.1-1.2,0.5-1.3,1.2c-0.1,0.8-0.2,1.6,0.6,2.2
		c0.1,0.1,0.3,0.2,0.5,0.2c0.4,0,0.9,0.1,1.3,0.1c0.9-0.1,1.4-0.5,1.5-1.4c0-0.3,0-0.6,0-0.9c-0.1-0.8-0.6-1.2-1.4-1.3
		C16.1,39.5,15.9,39.5,15.7,39.5z"/>
	<path class="st0" d="M49,44.1c-1.5,0-3.1,0-4.7,0c0-0.2,0-0.5,0-0.7c0.2,0,0.3,0,0.5-0.1c0.2,0,0.5-0.1,0.4-0.3
		c-0.1-0.2-0.3-0.5-0.4-0.6c-1-0.1-2.1-0.1-3.1,0c-0.2,0-0.4,0.3-0.4,0.6c-0.1,0.2,0.2,0.3,0.4,0.3c0.2,0,0.3,0,0.5,0.1
		c0,0.2,0,0.5,0,0.7c-1.1,0-2.3,0-3.4,0c0-0.2,0-0.5,0-0.7c0,0,0,0,0,0c0.7,0.1,1.1-0.4,1.4-0.9c0.4-0.8,0.9-1.5,1.4-2.3
		c0.3-0.4,0.2-0.6-0.4-0.7c-0.2,0-0.4-0.1-0.7-0.1c0-0.2,0-0.5,0-0.7c0.3,0,0.6,0,0.9,0c1,0,2,0,3,0c0.4,0,0.6,0.1,0.8,0.4
		c0.7,1.2,1.5,2.3,2.2,3.5c0.4,0.6,0.8,0.8,1.5,0.8C49,43.6,49,43.8,49,44.1z M42.2,41.4c0.7,0,1.4,0,2.1,0
		c-0.4-0.6-0.7-1.1-1.1-1.7C42.9,40.3,42.6,40.9,42.2,41.4z"/>
	<path class="st0" d="M14.1,27.4c-1.6,0.4-3.2,0.8-4.7,1.2c-1.3,0.3-2.5,0.7-3.8,1c-0.2,0.1-0.4,0-0.5-0.1c-0.2-0.2-0.4-0.3-0.6-0.5
		C4,28.4,4,27.7,4.7,27.3C5,27.1,5.3,27,5.5,26.9c11.3-3.7,22.6-7.4,34-11.2c1.5-0.5,3-1.1,4.5-1.6c0.1,0,0.2-0.1,0.3-0.1
		c0,0.1,0,0.1,0,0.1c-0.6,1.4-1.4,2.8-2.3,4c-0.7,0.9-1.6,1.5-2.7,1.8c-6.2,1.7-12.4,3.3-18.6,5c-2.1,0.6-4.2,1.1-6.4,1.7
		C13.9,26.7,13.8,26.9,14.1,27.4z"/>
	<path class="st0" d="M40.5,21.3c0,0.1-0.1,0.2-0.1,0.3c-0.7,1-1.3,1.9-2,2.9c-0.7,1-1.8,1.4-3,1.6c-5.5,1.1-11.1,2.1-16.6,3.2
		c0,0-0.1,0-0.1,0c-0.5,0.1-0.5,0.3-0.2,0.8c-0.6,0.1-1.1,0.2-1.7,0.3c-2.8,0.5-5.7,1.1-8.5,1.6c-0.3,0.1-0.5,0-0.7-0.2
		c-0.6-0.6-1.2-1.1-1.8-1.7C17.4,27.2,28.9,24.2,40.5,21.3C40.4,21.2,40.5,21.3,40.5,21.3z"/>
	<path class="st0" d="M23.3,33.1c-1,0.1-1.9,0.2-2.9,0.4c-2.2,0.3-4.5,0.6-6.7,0.9c-0.9,0.1-1.9,0.2-2.8,0.3c-0.1,0-0.3,0-0.3-0.1
		c-0.7-0.7-1.4-1.3-2.2-2c0,0,0-0.1-0.1-0.1c9.2-1.7,18.5-3.5,27.8-5.2c-0.1,0.2-0.1,0.2-0.2,0.3c-0.7,0.8-1.4,1.6-2.2,2.4
		c-0.9,0.9-2,1.2-3.3,1.4c-2.3,0.3-4.5,0.7-6.8,1C23.2,32.5,23.1,32.6,23.3,33.1z"/>
	<path class="st0" d="M30.7,37.6c-0.2,0-0.3,0-0.4,0c-5.3,0-10.7,0-16,0c-0.3,0-0.4-0.1-0.6-0.2c-0.7-0.7-1.5-1.4-2.3-2.1
		c0.5-0.1,0.9-0.1,1.3-0.2c2.4-0.3,4.8-0.6,7.3-0.8c1.4-0.2,2.9-0.3,4.3-0.5c0.1,0,0.3,0,0.4,0.1c2,1.2,4,2.5,5.9,3.7
		C30.5,37.5,30.6,37.5,30.7,37.6z"/>
	<path class="st0" d="M1.3,39.4c0-0.2,0-0.5,0-0.7c1.4,0,2.8,0,4.3,0c0,0.2,0,0.4,0,0.7c-0.2,0-0.4,0.1-0.6,0.1
		c-0.3,0-0.4,0.2-0.4,0.5c0,0.3,0,0.6,0,0.9c1.1,0,2.2,0,3.4,0c0-0.3,0-0.6,0-0.9c0-0.3-0.2-0.4-0.4-0.4c-0.2,0-0.4,0-0.6-0.1
		c0-0.2,0-0.5,0-0.7c1.4,0,2.8,0,4.3,0c0,0.2,0,0.4,0,0.7c-0.2,0-0.4,0.1-0.6,0.1c-0.3,0-0.5,0.2-0.5,0.5c0,0.9,0,1.9,0,2.8
		c0,0.3,0.1,0.5,0.5,0.5c0.2,0,0.4,0,0.6,0.1c0,0.2,0,0.4,0,0.7c-1.4,0-2.8,0-4.3,0c0-0.2,0-0.4,0-0.7c0.2,0,0.4-0.1,0.6-0.1
		c0.3,0,0.4-0.2,0.4-0.5c0-0.3,0-0.6,0-0.9c-1.1,0-2.2,0-3.3,0c0,0.3,0,0.7,0,1c0,0.1,0.2,0.3,0.3,0.3c0.2,0.1,0.4,0.1,0.7,0.1
		c0,0.2,0,0.4,0,0.7c-1.4,0-2.8,0-4.2,0c0-0.2,0-0.4,0-0.7c0.2,0,0.4-0.1,0.6-0.1c0.3,0,0.4-0.2,0.4-0.4c0-1,0-2,0-2.9
		c0-0.3-0.2-0.4-0.5-0.4C1.7,39.4,1.5,39.4,1.3,39.4z"/>
	<path class="st0" d="M23.8,43.3c0,0.2,0,0.5,0,0.7c-1.1,0-2.2,0-3.4,0c0-0.2,0-0.5,0-0.7c0.2,0,0.4-0.1,0.6-0.1
		c0.3,0,0.4-0.2,0.4-0.4c0-1,0-1.9,0-2.9c0-0.3-0.2-0.4-0.4-0.5c-0.2,0-0.4,0-0.6-0.1c0-0.2,0-0.5,0-0.7c0.2,0,0.3,0,0.4,0
		c1.1,0,2.1,0,3.2,0c0.3,0,0.5,0.1,0.7,0.4c0.8,1.1,1.7,2.2,2.5,3.3c0.1,0.1,0.1,0.2,0.3,0.3c0-0.1,0-0.2,0-0.3c0-0.7,0-1.5,0-2.2
		c0-0.6-0.1-0.6-0.6-0.7c-0.1,0-0.3,0-0.4-0.1c0-0.2,0-0.4,0-0.7c1.1,0,2.2,0,3.4,0c0,0.2,0,0.4,0,0.7c-0.2,0-0.4,0.1-0.5,0.1
		c-0.4,0-0.5,0.1-0.5,0.6c0,1.2,0,2.4,0,3.6c0,0.1,0,0.3,0,0.4c-1,0-1.9,0-2.8,0c-0.2,0-0.3-0.2-0.5-0.3c-0.8-1.1-1.6-2.1-2.4-3.2
		c-0.1-0.1-0.2-0.2-0.3-0.4c0,0.1,0,0.2,0,0.3c0,0.7,0,1.4,0,2.1c0,0.6,0,0.7,0.7,0.8C23.5,43.3,23.6,43.3,23.8,43.3z"/>
	<path class="st0" d="M30.3,44c0-0.2,0-0.5,0-0.7c0.2,0,0.4-0.1,0.6-0.1c0.3,0,0.5-0.2,0.5-0.5c0-1,0-1.9,0-2.9
		c0-0.3-0.1-0.4-0.4-0.4c-0.2,0-0.4,0-0.6-0.1c0-0.2,0-0.5,0-0.7c0.1,0,0.2,0,0.3,0c1.7,0,3.4,0,5,0c0.6,0,1.3,0.1,1.9,0.3
		c1.1,0.4,1.6,1.2,1.6,2.3c0,1.1-0.5,2-1.6,2.3C37,43.9,36.5,44,35.9,44c-1.8,0-3.7,0-5.5,0C30.4,44,30.3,44,30.3,44z M33.4,43
		c0.8,0,1.5,0,2.2,0c0.5,0,0.9-0.4,0.9-0.8c0.1-0.5,0.1-1.1,0-1.6c0-0.4-0.3-0.8-0.8-0.8c-0.8-0.1-1.6-0.1-2.4-0.1
		C33.4,40.8,33.4,41.9,33.4,43z"/>
</g>
</svg>
