<?xml version="1.0" encoding="utf-8"?>
<!-- Generator: Adobe Illustrator 22.1.0, SVG Export Plug-In . SVG Version: 6.00 Build 0)  -->
<svg version="1.1" id="Layer_1" xmlns="http://www.w3.org/2000/svg" xmlns:xlink="http://www.w3.org/1999/xlink" x="0px" y="0px"
	 viewBox="0 0 50 50" style="enable-background:new 0 0 50 50;" xml:space="preserve">
<style type="text/css">
	.st0{fill:none;}
	.st1{fill:#BEBEBE;}
</style>
<title>Honda-blog_icon_extreme_50x50_</title>
<g>
	<path class="st0" d="M22,22.9c0-0.1,0-0.2,0-0.3c0,0.1-0.1,0.2-0.1,0.3H22z"/>
	<path class="st0" d="M25.5,20.1C25.6,20.1,25.6,20,25.5,20.1l0.3-0.6c0-0.1,0-0.1,0-0.1L25.5,20.1z"/>
	<path class="st0" d="M32.8,22.5l-0.7,0.1l-3.4,0.7l2.8-0.2c0.5,0,1,0.1,1.4,0.3l1-0.1h1.2L34.9,23C34.3,22.5,33.5,22.4,32.8,22.5z"
		/>
	<path class="st0" d="M22,22.6c0,0,0-0.1,0.1-0.2c0,0,0,0.1,0,0.1C22.1,22.6,22,22.6,22,22.6z"/>
	<path class="st0" d="M18.2,29.8H18L16.5,31c0,0,0,0,0.1,0.1l1.5-1.2c0,0,0,0.1-0.1,0.2h0.2l1.3,0.3l0.5-0.2L18.2,29.8z"/>
	<path class="st0" d="M23.2,19C23.2,19,23.2,19,23.2,19c-0.1,0.4-0.3,2.1-0.7,2.8c-0.1,0.1-0.2,0.2-0.2,0.3c0.1,0,0.1,0,0.1-0.1
		c0-0.1,0.1-0.1,0.1-0.2C23.1,21.3,23.2,19,23.2,19z"/>
	<path class="st0" d="M22.1,22.3C22.1,22.3,22.1,22.4,22.1,22.3c0,0,0.1-0.1,0.1-0.2C22.2,22.2,22.1,22.2,22.1,22.3
		C22.1,22.3,22.1,22.3,22.1,22.3z"/>
	<path class="st0" d="M22.9,18.4c0,0,0,0.1,0,0.1c0.4,0.3,1.6,1.4,2.3,1.6c-0.2,0.1-0.4,0.3-0.6,0.4c0.2-0.1,0.5-0.3,0.7-0.4
		C24.5,19.9,22.9,18.4,22.9,18.4z"/>
	<path class="st0" d="M6.1,35.1c0,1.9,1.2,3.8,3.3,4.3C7.5,38.8,6.1,37.1,6.1,35.1z"/>
	<polygon class="st0" points="22.2,32.4 22,34.6 22.1,34.6 22.4,32.2 20.4,32.9 	"/>
	<path class="st0" d="M43.4,30.8l-0.1,1.5c0,0,0,0,0,0l0.1-1.4c1.9,0.2,3.6,1.9,3.6,4c0,0,0-0.1,0-0.1C47,32.9,45.4,31,43.4,30.8z"
		/>
	<path class="st0" d="M8.7,32.6c0,0.1,0.1,0.3,0.2,0.4c-0.5,0.5-1,1-0.9,1.7h0.1C8.1,34,8.5,33.4,9,33c-0.1-0.1-0.2-0.3-0.2-0.4
		c-0.1-0.5-0.1-1,0.1-1.3l0.4-0.8c0,0-0.1,0-0.1,0.1l-0.4,0.8C8.6,31.6,8.6,32.2,8.7,32.6z"/>
	<polygon class="st0" points="22.1,36.1 20.9,35.4 22.1,35.3 20.8,35.4 	"/>
	<path class="st0" d="M13.2,35.8l1.6,0.8c0,0,0-0.1,0.1-0.1l-1.7-0.9c-0.2,1.2-1.2,2-2.4,2c0,0,0,0,0,0
		C11.9,37.6,12.8,36.9,13.2,35.8z"/>
	<path class="st0" d="M41,31.5l0.5,1.4c0,0,0,0,0,0L41,31.4c-1.3,0.7-2,2.2-1.9,3.7C39,33.7,39.7,32.3,41,31.5z"/>
	<path class="st0" d="M42.2,37.5c1.4,0.4,2.9-0.3,3.2-1.7c0.2-0.7,0.1-1.5-0.2-2.1c0.3,0.6,0.4,1.2,0.2,2c-0.4,1.4-1.7,2.1-3.2,1.7
		c-0.8-0.2-1.5-0.9-1.7-1.7c0-0.1,0-0.1,0-0.2c0,0.1,0,0.2,0,0.3C40.7,36.6,41.4,37.3,42.2,37.5z"/>
	<path class="st0" d="M21.8,34.5L21.8,34.5c-0.7,0-1.2,0-1.5-0.2c0,0,0.1,0.1,0.1,0.1C20.9,34.5,21.3,34.6,21.8,34.5z"/>
	<polygon class="st1" points="24,12.5 0.7,12.9 24,13.3 	"/>
	<polygon class="st1" points="16.4,16.5 0.7,16.9 16.4,17.3 	"/>
	<path class="st1" d="M28.1,15.1c0,0,1.4,1.5,2.5,2.3l0.2,0.1c0.4,0.3,1.5,0.9,2.2,1.3l0.7-1.3c-0.9-0.3-1.9-1.3-2.4-2.2
		c-0.5-1.3,0.3-2.1,0.3-2.1c1.3,1,2.9,1.5,2.9,1.5v0.8l0.1-0.3c0.5-1.7-0.9-3.2-1.2-3.4c-1.2-0.5-2.5-0.5-3.3-0.5
		c-0.7,0-1.2,0.1-1.4,0.1c-1,1.2-0.7,3.3-0.7,3.3L28.1,15.1z"/>
	<path class="st0" d="M20.4,32.9l1.5,1.5c-0.1,0-0.1,0-0.2,0l0.1,0.1c-0.6,0.1-0.9,0-1.5-0.1c0,0.1,0,0.1,0,0.2H22l0.2-2.3
		L20.4,32.9z"/>
	<polygon class="st0" points="22.1,36.1 22.1,35.3 20.9,35.4 	"/>
	<path class="st0" d="M14.8,36.6l-1.6-0.8c-0.4,1.1-1.3,1.8-2.5,1.8c0,0,0,0,0,0c0,0,0,0-0.1,0c-1.3,0-2.5-1-2.6-2.5H6.1
		c0,1.9,1.3,3.7,3.3,4.3C11.5,40,13.9,38.8,14.8,36.6z"/>
	<path class="st0" d="M22.9,18.5c0.1,0.2,0.3,0.4,0.3,0.4s0,0,0,0.1c0,0,0,0,0,0s-0.1,2.3-0.7,2.9c-0.1,0.1-0.1,0.1-0.1,0.2
		c0,0,0.1-0.1,0.1-0.1c0,0,1-0.7,2.2-1.4c0.2-0.1,0.4-0.3,0.6-0.4C24.5,19.9,23.3,18.9,22.9,18.5z"/>
	<path class="st0" d="M6.2,33.6C6.1,34,6,34.5,6,34.7h2c0-0.8,0.4-1.3,0.9-1.7c-0.1-0.1-0.2-0.3-0.2-0.4c-0.1-0.4-0.1-0.9,0.1-1.3
		l0.4-0.8C7.7,31,6.6,32.1,6.2,33.6z"/>
	<path class="st0" d="M17.9,30.1C18,30,18,29.9,18,29.9l-1.5,1.2c0.1,0.1,0.2,0.2,0.3,0.4l0.9-0.3V31l0.5-0.1l1.2-0.5l-1.3-0.3H17.9
		z"/>
	<path class="st0" d="M43.4,30.9l-0.1,1.4c0.2,0,0.3,0.1,0.4,0.1c0.7,0.2,1.2,0.7,1.5,1.2c0.3,0.6,0.4,1.3,0.2,2.1
		c-0.3,1.4-1.7,2.2-3.2,1.7c-0.8-0.2-1.5-0.9-1.7-1.7c0-0.1,0-0.2,0-0.3c-0.2-1,0.3-2.1,1-2.6L41,31.5c-1.3,0.7-2,2.2-1.9,3.6
		c0,0.5,0.2,1,0.4,1.5c0.4,1,1.4,1.7,2.5,2.1c0.5,0.1,0.9,0.1,1.3,0.1c2,0,3.8-1.7,3.7-3.9C46.9,32.9,45.3,31.1,43.4,30.9z"/>
	<path class="st0" d="M40.5,27.7l-0.2,0.2l0.1,0.1C40.4,27.9,40.5,27.8,40.5,27.7z"/>
	<path class="st0" d="M25.7,20c0.1-0.2,0.1-0.4,0.1-0.5L25.6,20C25.6,20,25.7,20,25.7,20z"/>
	<path class="st0" d="M36.2,23.3C36.3,23.3,36.3,23.2,36.2,23.3L36.2,23.3z"/>
	<path class="st1" d="M22.1,22.3c0,0.1,0,0.1,0,0.2C22.1,22.5,22.1,22.5,22.1,22.3C22.1,22.4,22.1,22.4,22.1,22.3
		C22.1,22.4,22.1,22.3,22.1,22.3C22.1,22.3,22.1,22.3,22.1,22.3z"/>
	<path class="st1" d="M47.2,29.2c0.2-0.3,0.1-0.4-0.1-0.5c-1.2-0.8-2.6-1.3-4-1.4c0.1-0.1,0.2-0.2,0.2-0.4c0.4-0.4,0.9-0.8,1.4-1
		c0.3-0.1,0.5-0.4,0.5-0.8c-1-4.4-5.7-8-6.8-8.7c-0.3-0.2-0.9-0.3-1.4-0.2l-0.3,0.2c-1.4,0.4-0.8,0.4-0.9,0.5l2.3,1.3l1.2,1.4
		l-1.7,1.5c-0.2,0.2-0.2,0.4,0,0.5l0.2,0.2l-1.4,0.7c-0.1,0-0.2,0.1-0.2,0.2c-0.3-0.2-0.9-0.7-1.5-0.5c0-0.3-0.1-0.8-0.4-1
		c-1.3-1-4.5-1.6-5.7-1.9l0.1-1.3c0,0,0.1-2.1-2.8-2.1c0,0,1.2-0.5,2.4,0l-0.7-0.5c0,0-3.1-1.3-7.3,1.7c0,0-3.6,2.6-4,5.2l-0.8-0.2
		c0-0.1,0.1-0.2,0.1-0.3l-0.1-1c0-0.7-0.5-1.2-1.3-1.2l-5.1-0.1c-0.1,0-0.2,0-0.3,0.1l-2.3-0.1c-0.2,0-0.4,0.1-0.5,0.4
		c0,0.1,0,0.1,0,0.2l-5.2,0.4l5.2,0.1l1.6,2.3c-0.7,0.1-1.9,0.2-2.8,0.3l4.3,0.4l4.8,2.4h0.2l-13,0.3l13.7,0.3l1.4,1.6l-0.1,1h-1
		c-1-0.8-2.4-1.3-3.7-1.3c-1.9-0.1-3.6,0.4-4.9,1.5L1,29.5l5,0.1c-1.3,1.2-2.2,2.8-2.3,4.6c0,0.2,0,0.3,0,0.5l-2.9,0.2L3.8,35
		c0.1,3.6,2.8,6.5,6.5,6.8c0.2,0,0.3,0,0.5,0c2.8,0,5.2-1.6,6.4-4.3l0.9,0.4c0.2,0.1,0.4,0.2,0.7,0.2c0.2,0,0.4-0.1,0.5-0.1
		c0.2,0,0.1,0.1,0.2,0.1l0.9,0.4c0.2,0.1,0.4,0.2,0.7,0.2l0.5-0.1l10.3,0.2c1.6,0,2.9-1.2,3-2.8l0.1-1.5c0.1-2.4,1.3-4.6,3.3-5.9
		l0.5-0.4l-0.5,1.3c-2.1,1.6-2.8,4.3-2.4,6.8c0.5,2.7,2.8,4.9,5.5,5.3c3.8,0.7,7.4-1.9,8-5.6c0.1-0.3,0.1-0.8,0.1-1.2
		C50.1,32.9,49,30.5,47.2,29.2z M6.1,33.6c0.5-1.5,1.5-2.8,3.1-3.2l0,0.1c0,0,0.1,0,0.1-0.1l-0.4,0.8c-0.2,0.3-0.2,0.8-0.1,1.3
		c0,0.1,0.1,0.3,0.2,0.4c-0.5,0.4-0.9,1-0.9,1.7H8c0,0,0,0.1,0,0.1H5.9C5.9,34.4,6,34,6.1,33.6z M9.4,39.4c-2.1-0.5-3.3-2.4-3.3-4.3
		h1.9h0.1c0.1,1.4,1.1,2.4,2.5,2.5c1.2,0,2.2-0.8,2.4-2l1.7,0.9c0,0,0,0.1-0.1,0.1l0.2,0.1C14.1,38.9,11.7,40.2,9.4,39.4z
		 M18.9,33.4c0.2,0.1,0.3,0.2,0.3,0.2L18.9,33.4z M19,33.4l0.3,0.2C19.2,33.6,19.1,33.5,19,33.4z M19.9,30.5L18.1,31l-0.4,0.1v0.1
		l-0.9,0.3c-0.1-0.2-0.2-0.3-0.3-0.4l0.1,0c0,0,0,0-0.1-0.1l1.5-1.2h0.2l1.7,0.4l-0.5,0.2L19.9,30.5z M20.3,34.2c0,0-0.1,0-0.2-0.1
		C20.2,34.1,20.2,34.2,20.3,34.2z M22.1,36.1l-1.3-0.6l1.3-0.1V36.1z M22.1,34.6L22.1,34.6L22,34.7h-1.7c0-0.1,0-0.2-0.1-0.3
		c0.1,0,0.1,0,0.2,0c0,0,0-0.1-0.1-0.1c0.4,0.2,0.8,0.2,1.5,0.1l-1.4-1.6l2.1-0.7L22.1,34.6z M22.4,22.1c-0.1,0-0.2,0-0.2,0.1
		c0.1-0.1,0.1-0.1,0.1-0.2c0,0-0.1,0.1-0.1,0.1c0,0.1-0.1,0.2-0.1,0.3c0,0,0,0,0,0.1c0,0.1-0.1,0.1-0.1,0.2c0,0.1,0,0.2,0,0.3h-0.1
		c0,0.1,0,0.1,0,0.2h-0.1c0,0,0-0.2,0.1-0.3c0.1-0.3,0.1-0.4,0.2-0.5c0-0.1,0.1-0.2,0.1-0.2c0-0.1,0.1-0.2,0.2-0.3
		c0.4-0.6,0.7-2.4,0.7-2.8c0,0-0.3-0.2-0.4-0.6c0,0,0.1,0,0.1,0.1c0,0,0-0.1,0-0.1c0,0,1.6,1.4,2.5,1.7c-0.2,0.1-0.5,0.3-0.7,0.4
		C23.5,21.4,22.4,22.1,22.4,22.1z M25.8,19.4c0,0,0,0.2-0.1,0.5c-0.1,0-0.1,0.1-0.2,0.2l0.1-0.1c0,0,0,0-0.1,0l0.3-0.7
		C25.8,19.3,25.8,19.4,25.8,19.4L25.8,19.4z M29.4,29.5c-0.3-0.6-0.9-1.2-1.7-1.3L26.8,28c1.9,0,3.8,1.3,4.4,3.1l2.3,6.4L29.4,29.5z
		 M33.9,23.3l-1,0.1c-0.4-0.2-0.9-0.3-1.4-0.3l-2.8,0.2l3.4-0.7l0.7-0.1c0.7-0.1,1.5,0,2.1,0.5l0.3,0.3H33.9z M36.2,23.3
		C36.3,23.2,36.3,23.3,36.2,23.3L36.2,23.3z M40.5,27.7c0,0.1-0.1,0.2-0.1,0.3l-0.1-0.1L40.5,27.7z M47,34.9c0.2,2.1-1.5,4-3.7,4
		c-0.4,0-0.8,0-1.3-0.1c-1-0.4-2.1-1.1-2.5-2.1c-0.3-0.5-0.4-1-0.4-1.6c-0.1-1.5,0.6-3,1.9-3.7l0.5,1.4c0,0,0,0,0,0l0,0.1
		c-0.7,0.5-1.2,1.5-1.1,2.5c0,0.1,0,0.1,0,0.2c0.2,0.8,0.9,1.5,1.7,1.7c1.4,0.3,2.8-0.3,3.2-1.7c0.2-0.7,0.1-1.4-0.2-2
		c-0.3-0.6-0.8-1-1.5-1.1c-0.1,0-0.2-0.1-0.4-0.1l0-0.1c0,0,0,0,0,0l0.1-1.5c2.1,0.2,3.6,2.1,3.6,4C47,34.9,46.9,34.9,47,34.9
		C47,34.9,47,34.9,47,34.9z"/>
	<path class="st1" d="M21.9,22.8c0,0,0,0.1,0,0.1c0-0.1,0.1-0.2,0.1-0.3c0,0,0-0.1,0-0.1C22,22.6,22,22.7,21.9,22.8z"/>
	<path class="st1" d="M19.2,33.6c0,0-0.1-0.1-0.3-0.2L19.2,33.6z"/>
	<path class="st1" d="M20.4,34.4c-0.1,0-0.1,0-0.2,0c0.1,0.1,0.1,0.2,0.1,0.3H22l0-0.1h-1.6C20.4,34.6,20.4,34.5,20.4,34.4z"/>
	<path class="st1" d="M20.4,32.9l1.4,1.6c0.1,0,0.1,0,0.2,0L20.4,32.9z"/>
	<path class="st1" d="M21.8,23.1h0.1c0-0.1,0-0.1,0-0.2c0,0,0-0.1,0-0.1C21.8,22.9,21.8,23.1,21.8,23.1z"/>
	<path class="st1" d="M10.7,37.6C10.7,37.6,10.7,37.6,10.7,37.6c-1.4,0-2.4-1-2.5-2.5H8.1C8.2,36.6,9.3,37.6,10.7,37.6z"/>
	<path class="st1" d="M9.4,39.4c2.3,0.7,4.7-0.5,5.5-2.8l-0.2-0.1C13.9,38.8,11.5,40,9.4,39.4z"/>
	<path class="st1" d="M22.9,18.5c-0.1-0.1-0.1-0.1-0.1-0.1c0.1,0.4,0.4,0.6,0.4,0.6c0-0.1,0-0.1,0-0.1S22.9,18.8,22.9,18.5z"/>
	<path class="st1" d="M22.3,22.1c0,0.1-0.1,0.1-0.1,0.2c0-0.1,0.1-0.1,0.2-0.1c0,0,1-0.7,2.2-1.5c-1.2,0.7-2.2,1.4-2.2,1.4
		C22.4,22,22.4,22,22.3,22.1z"/>
	<path class="st1" d="M8,34.7H6c0-0.2,0.1-0.7,0.2-1.1c0.4-1.5,1.5-2.6,2.9-3.1l0-0.1c-1.5,0.4-2.6,1.6-3.1,3.2
		C6,34,5.9,34.4,5.9,34.8H8C8,34.8,8,34.8,8,34.7z"/>
	<polygon class="st1" points="17.7,31 17.7,31.1 18.1,31 19.9,30.5 19.5,30.4 18.2,30.9 	"/>
	<path class="st1" d="M16.6,31.1L16.6,31.1c0,0.1,0.2,0.2,0.3,0.5l0.9-0.3v-0.1l-0.9,0.3C16.7,31.3,16.6,31.2,16.6,31.1z"/>
	<path class="st1" d="M43.3,38.8c-0.4,0-0.8,0-1.3-0.1c-1-0.3-2.1-1-2.5-2.1c-0.2-0.5-0.4-1-0.4-1.5c0,0.5,0.1,1.1,0.4,1.6
		c0.4,0.9,1.4,1.6,2.5,2.1c0.5,0.1,0.9,0.1,1.3,0.1c2.2,0,3.9-1.9,3.7-4c0,0,0,0,0,0C47.1,37.1,45.3,38.8,43.3,38.8z"/>
	<path class="st1" d="M43.7,32.5c-0.1,0-0.2-0.1-0.4-0.1l0,0.1c0.2,0,0.3,0.1,0.4,0.1c0.7,0.1,1.2,0.6,1.5,1.1
		C44.9,33.1,44.4,32.7,43.7,32.5z"/>
	<path class="st1" d="M40.5,35.5c-0.1-1,0.3-2,1.1-2.5l0-0.1C40.7,33.4,40.3,34.5,40.5,35.5z"/>
	<path class="st1" d="M25.5,20.2c0.1-0.1,0.1-0.2,0.2-0.2c-0.1,0-0.1,0-0.1,0.1L25.5,20.2z"/>
	<path class="st1" d="M25.8,19.4L25.8,19.4c0,0.1,0,0.3-0.1,0.5C25.8,19.7,25.8,19.4,25.8,19.4z"/>
	<path class="st1" d="M22.1,22.3c-0.1,0.1-0.1,0.2-0.2,0.5c0.1-0.1,0.1-0.2,0.1-0.3C22.1,22.5,22.1,22.4,22.1,22.3z"/>
	<path class="st1" d="M22.1,22.4C22.1,22.4,22.1,22.4,22.1,22.4C22.1,22.4,22.1,22.4,22.1,22.4z"/>
	<path class="st1" d="M19.3,33.6L19,33.4C19.1,33.5,19.2,33.6,19.3,33.6z"/>
	<path class="st1" d="M20.1,34.1c0.1,0.1,0.2,0.1,0.2,0.1C20.2,34.2,20.2,34.1,20.1,34.1z"/>
</g>
</svg>
