<?xml version="1.0" encoding="UTF-8"?>
<svg width="50px" height="50px" viewBox="0 0 50 50" version="1.1" xmlns="http://www.w3.org/2000/svg" xmlns:xlink="http://www.w3.org/1999/xlink">
    <!-- Generator: Sketch 51 (57462) - http://www.bohemiancoding.com/sketch -->
    <title>Honda-blog_icon_tech_50x50</title>
    <desc>Created with Sketch.</desc>
    <defs></defs>
    <g id="Honda-blog_icon_tech_50x50" stroke="none" stroke-width="1" fill="none" fill-rule="evenodd" opacity="0.699999988">
        <g id="Group-9-Copy" transform="translate(4.000000, 6.000000)" fill="#FFFFFF">
            <path d="M39.5267929,22.795361 C38.8977812,22.795361 38.3853812,22.2840883 38.3853812,21.655361 C38.3853812,21.0271273 38.8977812,20.5158545 39.5267929,20.5158545 C40.1553106,20.5158545 40.6682047,21.0271273 40.6682047,21.655361 C40.6682047,22.2840883 40.1553106,22.795361 39.5267929,22.795361 M39.5267929,19.4794909 C38.3250988,19.4794909 37.3482282,20.4561403 37.3482282,21.655361 C37.3482282,22.8555688 38.3250988,23.8317247 39.5267929,23.8317247 C40.7279929,23.8317247 41.7053576,22.8555688 41.7053576,21.655361 C41.7053576,20.4561403 40.7279929,19.4794909 39.5267929,19.4794909" id="Fill-1"></path>
            <path d="M25.2113647,16.356187 L16.7407059,16.356187 C16.1502353,16.356187 15.6694588,16.8363688 15.6694588,17.4261091 L15.6694588,25.8857974 C15.6694588,26.4755377 16.1502353,26.9557195 16.7407059,26.9557195 L25.2113647,26.9557195 C25.8018353,26.9557195 26.2826118,26.4755377 26.2826118,25.8857974 L26.2826118,17.4261091 C26.2826118,16.8363688 25.8018353,16.356187 25.2113647,16.356187" id="Fill-4"></path>
            <path d="M34.7545059,36.2655714 C34.1254941,36.2655714 33.6130941,35.7542987 33.6130941,35.1255714 C33.6130941,34.4973377 34.1254941,33.9860649 34.7545059,33.9860649 C35.3835176,33.9860649 35.8959176,34.4973377 35.8959176,35.1255714 C35.8959176,35.7542987 35.3835176,36.2655714 34.7545059,36.2655714 Z M27.2706,25.8856494 C27.2706,27.0197273 26.3466,27.9425844 25.2116118,27.9425844 L16.7409529,27.9425844 C15.6054706,27.9425844 14.6814706,27.0197273 14.6814706,25.8856494 L14.6814706,17.425961 C14.6814706,16.2918831 15.6054706,15.369026 16.7409529,15.369026 L25.2116118,15.369026 C26.3466,15.369026 27.2706,16.2918831 27.2706,17.425961 L27.2706,25.8856494 Z M13.4866941,2.17611688 C13.4866941,1.54738961 13.9986,1.03611688 14.6281059,1.03611688 C15.2571176,1.03611688 15.7690235,1.54738961 15.7690235,2.17611688 C15.7690235,2.80435065 15.2571176,3.31562338 14.6281059,3.31562338 C13.9986,3.31562338 13.4866941,2.80435065 13.4866941,2.17611688 Z M7.78062353,36.4728442 C7.15161176,36.4728442 6.63970588,35.9615714 6.63970588,35.3328442 C6.63970588,34.7046104 7.15161176,34.1933377 7.78062353,34.1933377 C8.41012941,34.1933377 8.92203529,34.7046104 8.92203529,35.3328442 C8.92203529,35.9615714 8.41012941,36.4728442 7.78062353,36.4728442 Z M2.17831765,29.6338312 C1.5498,29.6338312 1.0374,29.1225584 1.0374,28.4943247 C1.0374,27.8655974 1.5498,27.3543247 2.17831765,27.3543247 C2.80782353,27.3543247 3.31972941,27.8655974 3.31972941,28.4943247 C3.31972941,29.1225584 2.80782353,29.6338312 2.17831765,29.6338312 Z M3.31972941,18.9617532 C3.31972941,19.589987 2.80782353,20.1012597 2.17831765,20.1012597 C1.5498,20.1012597 1.0374,19.589987 1.0374,18.9617532 C1.0374,18.3335195 1.5498,17.8217532 2.17831765,17.8217532 C2.80782353,17.8217532 3.31972941,18.3335195 3.31972941,18.9617532 Z M34.7545059,6.83876623 C35.3835176,6.83876623 35.8959176,7.35003896 35.8959176,7.97876623 C35.8959176,8.60650649 35.3835176,9.11827273 34.7545059,9.11827273 C34.1254941,9.11827273 33.6130941,8.60650649 33.6130941,7.97876623 C33.6130941,7.35003896 34.1254941,6.83876623 34.7545059,6.83876623 Z M35.4808588,33.0765325 L35.4808588,29.6994675 C36.0377294,29.4349481 36.4004118,28.8279351 36.2907176,28.1498571 C36.1953529,27.5581429 35.7145765,27.0685844 35.1246,26.9634675 C34.4713765,26.8474935 33.8794235,27.1687662 33.5913529,27.6825065 L31.1232353,27.6825065 L31.1232353,22.2771299 L33.6017294,22.2771299 C33.8942471,22.7824805 34.4812588,23.0953636 35.1295412,22.9779091 C35.7101294,22.8727922 36.1844824,22.3965584 36.2872588,21.8166883 C36.4493294,20.8987662 35.7471882,20.1012597 34.8582706,20.1012597 C34.3206706,20.1012597 33.8527412,20.3939091 33.6012353,20.8267143 L31.1232353,20.8267143 L31.1232353,15.6631558 L33.6116118,15.6631558 C33.9090706,16.1591299 34.4926235,16.4646104 35.1354706,16.3456753 C35.7126,16.2385844 36.1839882,15.7643247 36.2867647,15.1869221 C36.4503176,14.2685065 35.7476824,13.470013 34.8582706,13.470013 C34.3132588,13.470013 33.8394,13.7695714 33.5913529,14.2122468 L31.1232353,14.2122468 L31.1232353,13.0446104 C31.1232353,12.3640649 30.5708118,11.8123247 29.8889294,11.8123247 L28.7544353,11.8123247 L28.7544353,9.32653247 C29.0000118,9.17946753 29.1981529,8.96331169 29.3216824,8.70372727 L32.7029294,8.70372727 C33.0389294,9.64879221 34.0088824,10.2967662 35.1008824,10.1274935 C35.9744824,9.99227273 36.7008353,9.31222078 36.8836588,8.44858442 C37.1796353,7.04455844 36.1093765,5.8024026 34.7545059,5.8024026 C33.8077765,5.8024026 33.0028588,6.40941558 32.7029294,7.25331169 L29.2021059,7.25331169 C28.8853765,6.80027273 28.3176353,6.53525974 27.6994941,6.66406494 C27.1391647,6.78003896 26.6875412,7.24393506 26.5842706,7.80603896 C26.4632118,8.4624026 26.7848824,9.05806494 27.3022235,9.34725974 L27.3022235,11.8123247 L22.2014471,11.8123247 L22.2014471,9.27175325 C22.6545529,8.95541558 22.9198941,8.38837662 22.7914235,7.771 C22.6748118,7.21087013 22.2088588,6.75931169 21.6450706,6.65616883 C20.7225529,6.48788312 19.9191176,7.19112987 19.9191176,8.0824026 C19.9191176,8.6602987 20.2585765,9.15824675 20.7487412,9.39118182 L20.7487412,11.8123247 L15.4231412,11.8123247 L15.4231412,9.35811688 C15.8762471,9.11235065 16.1840824,8.63315584 16.1840824,8.0824026 C16.1840824,7.53066234 15.8762471,7.05196104 15.4231412,6.80619481 L15.4231412,4.19949351 C16.3372588,3.84022078 16.9524353,2.88281818 16.7765294,1.81141558 C16.6352118,0.946792208 15.9567882,0.229727273 15.099,0.0495974026 C13.6927412,-0.246012987 12.4490471,0.822428571 12.4490471,2.17611688 C12.4490471,3.14733766 13.0894235,3.97149351 13.9704353,4.25032468 L13.9704353,6.84814286 C13.5568588,7.10328571 13.2791647,7.55977922 13.2791647,8.0824026 C13.2791647,8.60403896 13.5568588,9.06053247 13.9704353,9.31616883 L13.9704353,11.8123247 L12.2499176,11.8123247 C11.5581529,11.8123247 10.9968353,12.3724545 10.9968353,13.0633636 L10.9968353,14.2122468 L8.73674118,14.2122468 C8.4882,13.7695714 8.01434118,13.470013 7.46932941,13.470013 C6.92530588,13.470013 6.45144706,13.7695714 6.20241176,14.2122468 L1.45245882,14.2122468 L1.45245882,16.9127143 C0.505729412,17.2482987 -0.142552941,18.2170519 0.0269294118,19.3081948 C0.162317647,20.1797273 0.843211765,20.9061688 1.70791765,21.0877792 C3.11368235,21.3838831 4.35688235,20.3154416 4.35688235,18.9617532 C4.35688235,18.0161948 3.74961176,17.2127662 2.90467059,16.9127143 L2.90467059,15.6631558 L6.22365882,15.6631558 C6.47714118,16.0865844 6.93963529,16.3708442 7.46932941,16.3708442 C8.00001176,16.3708442 8.46201176,16.0865844 8.71549412,15.6631558 L10.9968353,15.6631558 L10.9968353,20.8267143 L8.55638824,20.8267143 C8.24015294,20.3741688 7.67241176,20.1091558 7.05427059,20.236974 C6.49344706,20.3539351 6.04132941,20.8193117 5.93855294,21.3824026 C5.77005882,22.3037792 6.47417647,23.1062208 7.36556471,23.1062208 C7.94467059,23.1062208 8.44323529,22.7666883 8.67695294,22.2771299 L10.9968353,22.2771299 L10.9968353,27.6825065 L8.73674118,27.6825065 C8.4882,27.2398312 8.01434118,26.9402727 7.46932941,26.9402727 C6.92530588,26.9402727 6.45144706,27.2398312 6.20241176,27.6825065 L4.19827059,27.6825065 C3.83262353,26.7779091 2.87650588,26.1723766 1.80822353,26.3490519 C0.944505882,26.4916753 0.230011765,27.1687662 0.0496588235,28.0245065 C-0.246317647,29.4285325 0.823447059,30.6701948 2.17831765,30.6701948 C3.15765882,30.6701948 3.98678824,30.0222208 4.26102353,29.1334156 L6.22365882,29.1334156 C6.47714118,29.5568442 6.93963529,29.8411039 7.46932941,29.8411039 C8.00001176,29.8411039 8.46201176,29.5568442 8.71549412,29.1334156 L10.9968353,29.1334156 L10.9968353,30.4481169 C10.9968353,31.142974 11.5611176,31.7065584 12.2568353,31.7065584 L13.9704353,31.7065584 L13.9704353,34.2022208 C13.8014471,34.3068442 13.6546941,34.445026 13.5405529,34.6078831 L9.8322,34.6078831 C9.4962,33.6628182 8.52674118,33.0148442 7.43424706,33.1841169 C6.56064706,33.3193377 5.83429412,33.9988961 5.65196471,34.8625325 C5.35549412,36.2670519 6.42575294,37.5092078 7.78062353,37.5092078 C8.72735294,37.5092078 9.53227059,36.9021948 9.8322,36.0582987 L13.4209765,36.0582987 C13.6858235,36.6144805 14.2930941,36.9767143 14.9720118,36.8681429 C15.5664353,36.7724026 16.0580824,36.2892597 16.1613529,35.6970519 C16.2759882,35.0397013 15.9469059,34.4445325 15.4231412,34.1607662 L15.4231412,31.7065584 L20.6622706,31.7065584 L20.6622706,34.1711299 C20.1478941,34.4593377 19.8267176,35.0495714 19.9423412,35.7014935 C20.0456118,36.2843247 20.5244118,36.7615455 21.1074706,36.8641948 C22.0255412,37.0255714 22.8235412,36.3238052 22.8235412,35.4364805 C22.8235412,34.9069481 22.5389294,34.4455195 22.1149765,34.1923506 L22.1149765,31.7065584 L27.3022235,31.7065584 L27.3022235,34.1711299 C26.7878471,34.4593377 26.4666706,35.0495714 26.5822941,35.7014935 C26.6855647,36.2843247 27.1638706,36.7615455 27.7469294,36.8641948 C28.6654941,37.0255714 29.4634941,36.3238052 29.4634941,35.4364805 C29.4634941,34.9069481 29.1783882,34.4455195 28.7544353,34.1923506 L28.7544353,31.7065584 L28.7949529,31.7065584 C30.0811412,31.7065584 31.1232353,30.6652597 31.1232353,29.3816494 L31.1232353,29.1334156 L33.6116118,29.1334156 C33.7178471,29.3100909 33.8591647,29.4625844 34.0281529,29.580039 L34.0281529,33.0765325 C33.0819176,33.4126104 32.4331412,34.3813636 32.6031176,35.472013 C32.7380118,36.344039 33.4189059,37.0704805 34.2836118,37.2520909 C35.6898706,37.5481948 36.9330706,36.4792597 36.9330706,35.1255714 C36.9330706,34.1805065 36.3253059,33.3765844 35.4808588,33.0765325 Z" id="Fill-6"></path>
        </g>
    </g>
</svg>