<?xml version="1.0" encoding="UTF-8"?>
<svg width="50px" height="50px" viewBox="0 0 50 50" version="1.1" xmlns="http://www.w3.org/2000/svg" xmlns:xlink="http://www.w3.org/1999/xlink">
    <!-- Generator: Sketch 51 (57462) - http://www.bohemiancoding.com/sketch -->
    <title>Honda-blog_icon_personagens_50x50</title>
    <desc>Created with Sketch.</desc>
    <defs></defs>
    <g id="Honda-blog_icon_personagens_50x50" stroke="none" stroke-width="1" fill="none" fill-rule="evenodd" opacity="0.699999988">
        <path d="M11.71875,11.71875 C15.5312691,7.90623094 20.1249731,6 25.5,6 C30.8750269,6 35.4687309,7.90623094 39.28125,11.71875 C43.0937691,15.5312691 45,20.1249731 45,25.5 C45,30.8750269 43.0937691,35.4687309 39.28125,39.28125 C35.4687309,43.0937691 30.8750269,45 25.5,45 C20.1249731,45 15.5312691,43.0937691 11.71875,39.28125 C7.90623094,35.4687309 6,30.8750269 6,25.5 C6,20.1249731 7.90623094,15.5312691 11.71875,11.71875 Z M38.15625,12.84375 C34.6562325,9.3437325 30.4375247,7.59375 25.5,7.59375 C20.5624753,7.59375 16.3437675,9.3437325 12.84375,12.84375 C9.3437325,16.3437675 7.59375,20.5624753 7.59375,25.5 C7.59375,29.8125216 8.99998594,33.6249834 11.8125,36.9375 C14.3125125,35.8124944 17.1249844,34.8125044 20.25,33.9375 C20.4375009,33.8124994 20.53125,33.5000025 20.53125,33 C20.53125,31.999995 20.4062513,31.2500025 20.15625,30.75 C19.8437484,30.0624966 19.5625013,29.0937563 19.3125,27.84375 C18.7499972,27.0937462 18.3125016,26.0625066 18,24.75 C17.8124991,23.749995 17.8437487,22.8750038 18.09375,22.125 L18.09375,21.9375 C18.2812509,21.3124969 18.1875019,20.1250088 17.8125,18.375 C17.4999984,16.7499919 17.9687437,15.1250081 19.21875,13.5 C20.4062559,11.9374922 22.2187378,11.0625009 24.65625,10.875 L26.34375,10.875 C28.7812622,11.0000006 30.5937441,11.8749919 31.78125,13.5 C33.0312563,15.1250081 33.5000016,16.7499919 33.1875,18.375 C32.8124981,20.1250088 32.7187491,21.3124969 32.90625,21.9375 C32.9687503,22.0000003 33,22.0624997 33,22.125 C33.1875009,22.7500031 33.1875009,23.6249944 33,24.75 C32.7499987,26.0000063 32.3125031,26.9999962 31.6875,27.75 C31.4374987,29.1250069 31.1562516,30.1249969 30.84375,30.75 C30.4687481,31.6250044 30.28125,32.3437472 30.28125,32.90625 C30.28125,33.5312531 30.3437494,33.8749997 30.46875,33.9375 C33.5937656,34.8750047 36.4999866,35.8749947 39.1875,36.9375 C42.0000141,33.6249834 43.40625,29.8125216 43.40625,25.5 C43.40625,20.5624753 41.6562675,16.3437675 38.15625,12.84375 Z" id="ion-ios-contact-outline---Ionicons-Copy" fill="#FFFFFF"></path>
    </g>
</svg>