<?xml version="1.0" encoding="UTF-8"?>
<svg width="50px" height="50px" viewBox="0 0 50 50" version="1.1" xmlns="http://www.w3.org/2000/svg" xmlns:xlink="http://www.w3.org/1999/xlink">
    <!-- Generator: Sketch 51 (57462) - http://www.bohemiancoding.com/sketch -->
    <title>Honda-blog_icon_estrada_50x50</title>
    <desc>Created with Sketch.</desc>
    <defs></defs>
    <g id="Honda-blog_icon_estrada_50x50" stroke="none" stroke-width="1" fill="none" fill-rule="evenodd" opacity="0.699999988">
        <path d="M37.6623503,34.6556866 C37.3664679,35.1929552 36.9670562,35.7133433 36.4776444,36.2319851 C36.4582326,36.2407164 36.4399974,36.2482836 36.4205856,36.2570149 L33.7799974,36.2570149 C33.7111738,36.2570149 33.6823503,36.1714478 33.7347032,36.1260448 C34.5135268,35.4438358 35.0776444,34.7790896 35.4529385,34.0986269 C35.7970562,33.4740448 35.7676444,32.4647015 35.6535268,32.0019403 C35.6358797,31.9315075 35.6911738,31.8663134 35.764115,31.8663134 L37.8647032,31.8552537 C37.9388209,31.8552537 38.0035268,31.9111343 38.0094091,31.9838955 C38.0782326,32.8599403 38.1194091,33.8256269 37.6623503,34.6556866 Z M33.7170562,28.5949701 C32.8717621,28.1421045 31.8358797,27.6508209 30.5382326,27.0879403 C30.4635268,27.0553433 30.4817621,26.9435821 30.564115,26.9435821 L33.6070562,26.9435821 C33.6188209,26.9435821 33.6305856,26.9464925 33.6411738,26.9517313 C34.8905856,27.5536119 35.8364679,28.086806 36.5723503,28.6019552 L36.5711738,28.6037015 L33.7517621,28.6037015 C33.7394091,28.6037015 33.7276444,28.600791 33.7170562,28.5949701 Z M32.8964679,39.3508209 C32.0864679,39.8240597 31.1676444,40.3188358 30.0658797,40.8753134 C30.0552915,40.8799701 30.0429385,40.8834627 30.0305856,40.8834627 L26.5505856,40.8834627 C26.4711738,40.8834627 26.4499974,40.7746119 26.5229385,40.7396866 C27.6982326,40.1738955 28.6847032,39.6791194 29.5470562,39.221597 C29.5576444,39.2157761 29.5694091,39.2128657 29.5817621,39.2128657 L32.8552915,39.2128657 C32.9323503,39.2128657 32.9629385,39.3129851 32.8964679,39.3508209 Z M24.3676444,24.5215075 C24.3576444,24.5215075 24.3470562,24.5191791 24.3376444,24.5151045 C23.2852915,24.0686418 22.3599974,23.6600149 21.5247032,23.2723433 L21.5305856,23.2601194 L24.3511738,23.2601194 C24.3617621,23.2601194 24.3711738,23.2624478 24.3811738,23.2665224 C25.2764679,23.6501194 26.8582326,24.063403 27.9852915,24.5197612 L27.9847032,24.5215075 L24.3676444,24.5215075 Z M16.624115,13.8727612 C16.6111738,13.8832388 16.5952915,13.8890597 16.5776444,13.8890597 L14.8705856,13.8890597 C15.6582326,13.0898507 17.3076444,12.259791 18.634115,11.4111045 C18.6464679,11.4041194 18.6599974,11.4000448 18.6747032,11.4000448 L20.3235268,11.4000448 L20.3247032,11.401209 C18.8205856,12.2516418 17.5823503,13.0793731 16.624115,13.8727612 Z M18.9111738,20.6651642 L16.7129385,20.6651642 C16.6976444,20.6651642 16.6817621,20.6599254 16.6694091,20.651194 C15.0876444,19.5964478 14.1311738,18.6138806 13.7164679,17.6225821 L13.7429385,17.6121045 L15.5911738,17.6121045 C15.6152915,17.6121045 15.6364679,17.6225821 15.6499974,17.6429552 C16.2552915,18.5481045 17.3335268,19.5859701 18.9182326,20.6529403 L18.9111738,20.6651642 Z M26.8823503,7.48549254 C26.8917621,7.48316418 28.1894091,7.47967164 28.1894091,7.47967164 L28.1923503,7.48665672 C27.1399974,7.89702985 25.5370562,8.3178806 24.5588209,8.74397015 C24.5488209,8.74804478 22.9076444,8.75037313 22.9076444,8.75037313 L22.9076444,8.74920896 C23.7970562,8.32370149 25.7611738,7.76489552 26.8823503,7.48549254 Z M45.1658797,26.0820896 C41.1217621,22.6623134 28.4011738,20.0429104 23.3276444,18.2966418 C18.254115,16.5503731 22.2982326,12.8395522 26.4158797,10.972209 C28.8511738,9.86798507 32.5358797,8.301 35.1611738,7.2590597 C37.2317621,6.43656716 35.6288209,6 34.9052915,6 L26.2870562,6 C26.2264679,6 26.164115,6.00873134 26.1058797,6.02502985 C13.2258797,9.58276119 7.15058559,13.2132537 6.85705617,17.3507463 C6.56293853,21.4981343 14.1364679,25.2089552 20.8276444,29.0652985 C27.5188209,32.9216418 23.4011738,34.5223881 18.6217621,36.5597015 C14.5499974,38.2960746 7.43646794,41.0877761 0.43764441,43.5861045 C-0.260002649,43.8346567 -0.078237943,44.8544776 0.662350292,44.8544776 L18.3999974,44.8544776 C18.3999974,44.8544776 18.6299974,44.7456269 18.7017621,44.7107015 C19.5958797,44.2752985 20.474115,43.8579403 21.3429385,43.4493134 C21.3523503,43.4446567 21.364115,43.4423284 21.3752915,43.4423284 L25.5458797,43.4469851 C25.6258797,43.4469851 25.6488209,43.550597 25.5788209,43.5878507 C24.7982326,43.9970597 23.4476444,44.8544776 23.4358797,44.8544776 L37.3611738,44.8544776 C38.0717621,44.8544776 38.7747032,44.6798507 39.3858797,44.3218657 C42.6058797,42.4405522 45.754115,39.3246269 45.754115,39.3246269 C52.004115,32.721403 49.2099974,29.5018657 45.1658797,26.0820896 Z" id="Fill-1" fill="#FFFFFF"></path>
    </g>
</svg>