<?xml version="1.0" encoding="UTF-8"?>
<svg width="50px" height="50px" viewBox="0 0 50 50" version="1.1" xmlns="http://www.w3.org/2000/svg" xmlns:xlink="http://www.w3.org/1999/xlink">
    <!-- Generator: Sketch 51 (57462) - http://www.bohemiancoding.com/sketch -->
    <title>Honda-blog_icon_classicos_50x50</title>
    <desc>Created with Sketch.</desc>
    <defs>
        <polygon id="path-1" points="0.0853785489 0.0780448718 40.5787947 0.0780448718 40.5787947 21.7100826 0.0853785489 21.7100826"></polygon>
    </defs>
    <g id="Honda-blog_icon_classicos_50x50" stroke="none" stroke-width="1" fill="none" fill-rule="evenodd" opacity="0.699999988">
        <g id="Group-32-Copy" transform="translate(0.000000, 13.000000)">
            <path d="M42.2021451,9.28198718 C41.5136593,9.28198718 40.8461514,9.37397436 40.2111356,9.54673077 C40.1970978,9.55057692 40.1833754,9.55538462 40.1691798,9.55923077 L41.4131861,12.0715705 C41.6729653,12.0299038 41.9363722,12.0063462 42.2021451,12.0063462 C44.9584543,12.0063462 47.2005678,14.2847115 47.2005678,17.0848718 C47.2005678,19.8853526 44.9584543,22.1637179 42.2021451,22.1637179 C39.445836,22.1637179 37.2037224,19.8853526 37.2037224,17.0848718 C37.2037224,15.5595513 37.8526183,14.1585897 38.9945741,13.1903205 L37.7688644,10.7146795 C37.7371609,10.7374359 37.7048265,10.7590705 37.6737539,10.7821474 C35.7631861,12.2015385 34.5223344,14.4960897 34.5223344,17.0848718 C34.5223344,21.3944872 37.9605047,24.8880769 42.2021451,24.8880769 C46.4436278,24.8880769 49.8819558,21.3944872 49.8819558,17.0848718 C49.8819558,12.7755769 46.4436278,9.28198718 42.2021451,9.28198718" id="Fill-1" fill="#FFFFFF"></path>
            <path d="M40.2091167,2.85341346 C40.2095899,3.44748397 40.2050158,4.04155449 40.2111672,4.63546474 C40.2157413,5.07841346 40.0184227,5.29267628 39.5785174,5.22392628 C38.7433438,5.09363782 37.977571,4.80325321 37.3905047,4.15325321 C36.708959,3.39892628 36.66653,2.42600962 37.2960252,1.64075321 C37.9047003,0.881298077 38.7485489,0.563509615 39.6718927,0.443637821 C40.0584858,0.393477564 40.2108517,0.640272436 40.2092744,1.00966346 C40.2069085,1.62424679 40.2086435,2.23883013 40.2091167,2.85341346" id="Fill-3" fill="#FFFFFF"></path>
            <path d="M22.5171609,13.0054327 C23.8660568,13.0163301 24.9687382,14.1639263 24.958959,15.5462981 C24.9494953,16.9084776 23.7923975,18.0648878 22.4633754,18.0400481 C21.1040694,18.0147276 20.0173186,16.8765865 20.0304101,15.4919712 C20.0436593,14.1060737 21.1553312,12.9945353 22.5171609,13.0054327" id="Fill-5" fill="#FFFFFF"></path>
            <path d="M26.0611356,7.82839744 C27.4840063,8.03080128 29.0046688,8.22471154 30.5163407,8.47375 C31.0683912,8.5649359 31.3851104,9.13657051 31.3541956,9.73641026 C31.3297476,10.2074038 31.1253312,10.3596474 30.6549842,10.2953846 C29.0048265,10.0695833 25.7235962,9.59474359 25.6836909,9.58833333 C25.1076656,9.49650641 24.7133438,9.43641026 24.7702839,8.89682692 C24.8478864,8.27615385 25.3291167,7.82647436 26.0611356,7.82839744" id="Fill-7" fill="#FFFFFF"></path>
            <path d="M20.2271767,9.42360577 C20.7240221,8.92232372 21.2893218,8.75084936 22.2268612,9.08658654 C22.3147161,9.07360577 22.4254416,9.22985577 22.5158202,9.21975962 C22.7431073,9.19395833 22.9700789,9.13354167 23.1875868,9.05838141 C23.4672397,8.96158654 23.7918454,8.68722756 23.9972082,8.7643109 C24.2181861,8.84684295 24.4011514,9.23129808 24.4599842,9.51415064 C24.5372713,9.88738782 24.5431073,10.3059776 24.4550946,10.6740865 C24.3901104,10.9458814 24.1683438,11.2899519 23.9363249,11.3748878 C23.7476814,11.4436378 23.3528864,11.241234 23.2041483,11.0407532 C22.9536751,10.7029327 22.7831703,10.6064583 22.4573028,10.9189583 C22.3659779,11.0066186 22.1730757,11.0195994 22.030489,11.0101442 C21.7697634,10.9929968 21.5121924,10.9319391 21.2530442,10.891875 C20.09153,10.7125481 20.09153,10.7130288 20.2271767,9.42360577" id="Fill-9" fill="#FFFFFF"></path>
            <path d="M25.2675552,16.3346795 C25.2659779,15.4436538 25.9801735,14.7244231 26.8489432,14.7420513 C27.6871136,14.7587179 28.3864826,15.4800321 28.3885331,16.3295513 C28.3908991,17.2010256 27.6497319,17.9422115 26.7942114,17.9242628 C25.9479968,17.9064744 25.2692902,17.1995833 25.2675552,16.3346795" id="Fill-11" fill="#FFFFFF"></path>
            <path d="M30.3000946,11.1103686 C28.6783281,10.9054006 27.0595584,10.6743109 25.4439432,10.4243109 C25.0160252,10.3114904 24.9863722,9.94097756 25.0188644,9.8680609 C26.9489905,10.1342468 28.8791167,10.4005929 30.8094006,10.6667788 C30.8376341,10.7388942 30.4860568,11.133766 30.3000946,11.1103686" id="Fill-13" fill="#FFFFFF"></path>
            <path d="M29.8637224,11.9152564 C28.4635647,11.7517949 27.0662461,11.5630128 25.6714511,11.3578846 C25.3179811,11.3061218 25.1881703,10.8437821 25.2178233,10.7822436 C26.9340694,11.0176603 28.6501577,11.2533974 30.3662461,11.4889744 C30.3809148,11.5633333 30.1944795,11.9537179 29.8637224,11.9152564" id="Fill-15" fill="#FFFFFF"></path>
            <path d="M25.5394322,11.7196314 C26.9828076,11.9165865 28.426183,12.1133814 29.8695584,12.3103365 C29.8888013,12.3794071 29.5350158,12.7638622 29.3547319,12.7430288 C28.1769716,12.6066506 27.0070978,12.4813301 25.8305994,12.2536058 C25.6746057,12.2236378 25.4933754,11.7842147 25.5394322,11.7196314" id="Fill-17" fill="#FFFFFF"></path>
            <path d="M28.8540379,13.5588301 C27.9937855,13.4774199 27.138265,13.343125 26.2811672,13.2270994 C25.9726498,13.1851122 25.6860568,13.0354327 25.7267508,12.6291827 C26.3340063,12.7099519 26.9617666,12.7920032 27.5888959,12.8775801 C28.2049842,12.9617147 28.7833754,13.0080288 29.3991483,13.0944071 C29.4174448,13.1623558 29.0581388,13.5780609 28.8540379,13.5588301" id="Fill-19" fill="#FFFFFF"></path>
            <path d="M25.9992114,13.5517788 C26.9865931,13.6884776 27.9681388,13.824375 28.95,13.9604327 C28.9496845,14.0394391 28.7618297,14.4577083 28.4288644,14.443125 C27.7012618,14.337516 27.2708202,14.2602724 26.5263407,14.2004968 C26.2381703,14.1772596 26.0383281,13.9974519 25.9992114,13.5517788" id="Fill-21" fill="#FFFFFF"></path>
            <path d="M12.5914984,16.1604808 L15.3049054,16.1604808 C15.0889748,14.316891 14.2293533,12.5444551 12.7482808,11.2225 C12.2310883,10.7609615 11.6697319,10.3824359 11.0806151,10.0864423 C11.0675237,10.0798718 11.0541167,10.0742628 11.0410252,10.0676923 L10.3437066,12.7894872 C10.5657886,12.9321154 10.7791956,13.09125 10.9787224,13.2692949 C11.8545899,14.0510256 12.3952839,15.0773077 12.5914984,16.1604808" id="Fill-23" fill="#FFFFFF"></path>
            <path d="M15.3020032,18.0405288 L12.5870189,18.0405288 C12.547429,18.2520673 12.4942744,18.4618429 12.4280284,18.6682532 C13.3502681,18.6961378 14.3977445,18.8206571 15.1707729,18.8315545 C15.2185647,18.6046314 15.2744006,18.270016 15.3020032,18.0405288" id="Fill-25" fill="#FFFFFF"></path>
            <path d="M4.38113565,20.9005769 C2.31047319,19.0525 2.1055836,15.8372756 3.92451104,13.7332692 C4.9155205,12.5872756 6.31299685,11.9698077 7.79990536,12.008109 L8.48697161,9.32621795 C8.4484858,9.32221154 8.41031546,9.31676282 8.37182965,9.31307692 C6.01425868,9.09849359 3.59170347,9.99032051 1.91,11.9355128 C-0.889053628,15.1731731 -0.575015773,20.1033013 2.61157729,22.9473718 C5.72687697,25.7278205 10.4219874,25.6795833 13.6290852,22.1138782 C13.1516404,22.1140385 12.3907571,22.1821474 11.3721451,22.2770192 C10.9183596,22.3193269 10.254795,22.0499359 9.87451104,21.6475321 C8.11709779,22.5172436 5.93949527,22.2914423 4.38113565,20.9005769" id="Fill-27" fill="#FFFFFF"></path>
            <g id="Group-31" transform="translate(4.574132, 0.082212)">
                <mask id="mask-2" fill="white">
                    <use xlink:href="#path-1"></use>
                </mask>
                <g id="Clip-30"></g>
                <path d="M37.682224,17.8591026 C37.2478391,17.8591026 36.8957886,17.5014103 36.8957886,17.0600641 C36.8957886,16.6187179 37.2478391,16.2608654 37.682224,16.2608654 C38.1167666,16.2608654 38.468817,16.6187179 38.468817,17.0600641 C38.468817,17.5014103 38.1167666,17.8591026 37.682224,17.8591026 M29.3079338,7.33426282 C27.5973659,10.5445192 25.8705521,13.7462821 24.182224,16.9687179 C23.6782808,17.9307372 22.9666088,18.3478846 21.8953155,18.3498077 C19.6923186,18.3538141 17.4896372,18.3377885 15.2867981,18.33875 C13.4492587,18.3395513 12.982224,16.7127885 12.982224,15.3906731 C12.982224,15.0834615 13.8902681,14.4219231 14.059511,13.8248077 C14.6902681,11.5999679 15.3314353,9.37817308 15.9785962,7.12064103 C18.0375868,7.12064103 20.0768612,7.12032051 22.1161356,7.12080128 C23.4902681,7.12096154 24.8651893,7.14708333 26.2386909,7.11487179 C27.3317508,7.08923077 28.4232334,6.99259615 29.5039905,6.92817308 C29.476388,6.98570513 29.3987855,7.16375 29.3079338,7.33426282 M12.4367981,14.6360256 C12.2692902,14.3054167 11.7137697,13.9153526 11.3910568,13.4772115 C9.85572555,11.3927564 9.015347,9.72320513 7.63411672,7.53009615 C7.57228707,7.43169872 7.52181388,7.32576923 7.42339117,7.14516026 L15.0383754,7.14516026 C14.74847,8.16567308 14.4694479,9.14435897 14.1920032,10.1233654 C13.8350631,11.3829808 13.5901104,12.3650321 13.195,13.6121474 C13.1032019,13.901891 12.5945268,14.3855449 12.4367981,14.6360256 M12.1648738,16.5368269 C10.187429,16.5368269 8.2494164,16.5440385 6.31187697,16.5214423 C6.26582019,16.5209615 6.1301735,16.5212821 5.96282334,16.5219231 C5.80619874,15.6087821 5.24689274,14.8368269 4.47512618,14.4044551 C4.53033123,14.2361859 4.5735489,14.0863462 4.58522082,14.0454808 C5.20888013,11.8855449 5.85919558,9.73362179 6.53443218,7.47592949 C7.04026814,8.27096154 7.48995268,8.97336538 7.93522082,9.67865385 C8.94973186,11.2858654 9.94973186,12.5794551 10.971183,14.1820192 C11.1448423,14.4542949 11.8386909,15.0834615 12.0030442,15.3571795 C12.0030442,15.3571795 12.1648738,15.5642308 12.1648738,16.5368269 M3.0268612,17.8591026 C2.59247634,17.8591026 2.24042587,17.5014103 2.24042587,17.0600641 C2.24042587,16.6187179 2.59247634,16.2608654 3.0268612,16.2608654 C3.46124606,16.2608654 3.81345426,16.6187179 3.81345426,17.0600641 C3.81345426,17.5014103 3.46124606,17.8591026 3.0268612,17.8591026 M40.5651893,16.7339423 C40.4530442,15.5236859 39.6065142,14.4962821 38.4621924,14.1417949 C37.9625079,13.9869872 37.4819085,13.9802564 37.0355363,14.0696795 C36.9714984,13.9300962 36.9011514,13.7796154 36.8227603,13.6155128 C36.2240221,12.3605449 34.9358517,9.65958333 34.9033596,9.51551282 C35.3336435,8.90028846 34.7175552,8.88650641 34.5844322,8.29259615 C34.5626656,8.19451923 34.4464196,7.20413462 33.8943691,7.42448718 C33.3719716,6.38330128 32.718817,4.97689103 32.2167666,3.92512821 C31.610142,2.65477564 31.0017823,1.38554487 30.3762303,0.0780128205 C29.9625079,0.282179487 29.5924763,0.465032051 29.2035174,0.657019231 C29.4235489,1.14371795 29.618817,1.57592949 29.8451577,2.07721154 C29.4085647,2.00189103 29.0770189,1.94467949 28.6913722,1.87817308 C28.6913722,1.40830128 28.4800158,1.28810897 28.0834858,1.28810897 C27.5375868,1.28810897 26.99153,1.30012821 26.4461041,1.30012821 C26.1722871,1.30012821 25.9751262,1.37144231 25.9751262,1.74211538 C23.1557256,2.14275641 21.1319085,2.44179487 18.8675552,2.83378205 C16.7429495,3.20157051 16.195,4.20717949 16.0372713,5.74948718 C15.693265,5.77384615 14.8732334,5.7538141 14.339795,5.74323718 C12.3792271,5.70509615 10.4177129,5.72576923 8.4565142,5.72625 C7.01676656,5.72657051 7.03033123,5.72272436 6.515347,4.36679487 C6.42780757,4.1361859 6.17007886,3.80766026 5.98695584,3.8049359 C4.4587224,3.78169872 2.99326498,4.03666667 1.8779653,5.23362179 C1.41108833,5.73458333 1.12244479,6.33410256 1.32764984,7.12208333 L5.31929022,7.12208333 C5.31929022,7.24067308 4.01582019,11.5183974 3.38253943,13.5941987 C3.33080442,13.76375 3.28443218,13.9086218 3.23900631,14.0416346 C3.17544164,14.0373077 3.11219243,14.0316987 3.04768139,14.0316987 C1.41171924,14.0316987 0.0853785489,15.3791346 0.0853785489,17.0414744 C0.0853785489,18.7038141 1.41171924,20.0514103 3.04768139,20.0514103 C4.55036278,20.0514103 5.78869085,18.9134295 5.98111987,17.4401923 C6.18837539,17.4389103 6.36124606,17.4382692 6.44342271,17.43875 C8.30335962,17.4490064 10.163612,17.4334615 12.0233912,17.4563782 C12.2254416,17.4589423 12.476388,17.6058974 12.5860095,17.7781731 C13.1014669,18.5884295 13.7875868,19.0384295 14.650836,19.1703205 C15.1727603,19.2498077 21.8178707,19.2534936 22.3735489,19.2026923 C23.5309621,19.0970833 24.3716562,18.513109 24.9358517,17.3911538 C25.4483123,16.3727244 26.0052524,15.3770513 26.5423186,14.3712821 C26.7145584,15.4841026 25.5087224,17.3695192 24.9696057,18.4488462 C24.5166088,19.3558974 23.5500473,19.9010897 22.3079338,19.95125 C20.0314353,20.0430769 17.9205521,20.0113462 15.5453155,19.7709615 C12.8189748,19.495 10.3516246,19.2116667 7.6164511,18.9427564 C6.71913249,18.8544551 6.14752366,18.9523718 5.43096215,19.3903526 C5.28317035,19.7208013 5.0416877,20.4868269 5.06471609,20.7602244 C5.20430599,21.0530128 6.28995268,21.7273718 6.89878549,21.7097436 C9.1587224,21.644359 11.4161356,21.4169551 13.6685016,21.2062179 C16.5902681,20.9328205 21.8145584,20.7985256 22.5503628,20.7985256 C24.0104574,20.7985256 25.032224,20.0897115 25.6975237,18.6732051 C26.1626656,17.6826603 28.1241798,14.3611859 27.3946845,12.7897115 C27.4276498,12.6749679 31.2858517,5.52817308 31.4178707,5.31439103 C31.8487855,6.22112179 32.2842744,7.13426282 32.6730757,7.96439103 C31.9557256,8.37272436 32.6943691,8.81086538 32.8022555,9.10092949 C32.9284385,9.44035256 32.9479968,10.2272115 33.6620347,10.1454808 C33.8282808,10.3990064 35.0590379,12.9531731 35.5970505,14.0554167 C35.6945268,14.2552564 35.7833281,14.4321795 35.865347,14.5927564 C35.0524132,15.1961218 34.5503628,16.2062179 34.6591956,17.3307372 C34.7942114,18.7275321 35.893265,19.8639103 37.2658202,20.0214423 C39.1566719,20.2385897 40.7427918,18.6485256 40.5651893,16.7339423" id="Fill-29" fill="#FFFFFF" mask="url(#mask-2)"></path>
            </g>
        </g>
    </g>
</svg>